<svg width="750" height="500" viewBox="0 0 750 500" fill="none" xmlns="http://www.w3.org/2000/svg">
<path opacity="0.2" d="M402 156.79H360V173.79H402V156.79Z" fill="black"/>
<path opacity="0.1" d="M379 180.29H337V197.29H379V180.29Z" fill="black"/>
<path opacity="0.1" d="M427 180.29H385V197.29H427V180.29Z" fill="black"/>
<path d="M257 261V47" stroke="#263238" stroke-miterlimit="10" stroke-linecap="round"/>
<path opacity="0.2" d="M402 54.79H360V71.79H402V54.79Z" fill="black"/>
<path opacity="0.1" d="M379 78.29H337V95.29H379V78.29Z" fill="black"/>
<path opacity="0.1" d="M325 41.5H283V58.5H325V41.5Z" fill="black"/>
<path opacity="0.1" d="M427 78.29H385V95.29H427V78.29Z" fill="black"/>
<path opacity="0.1" d="M427 219.5H385V236.5H427V219.5Z" fill="black"/>
<path opacity="0.2" d="M329 133.79H287V150.79H329V133.79Z" fill="black"/>
<path opacity="0.2" d="M426 111.79H384V128.79H426V111.79Z" fill="black"/>
<path opacity="0.1" d="M306 157.29H264V174.29H306V157.29Z" fill="black"/>
<path opacity="0.1" d="M354 157.29H312V174.29H354V157.29Z" fill="black"/>
<path opacity="0.2" d="M329 204.79H287V221.79H329V204.79Z" fill="black"/>
<path opacity="0.1" d="M306 228.29H264V245.29H306V228.29Z" fill="black"/>
<path opacity="0.1" d="M354 228.29H312V245.29H354V228.29Z" fill="black"/>
<path opacity="0.2" d="M306 111.5H264V128.5H306V111.5Z" fill="black"/>
<path opacity="0.2" d="M352 111.5H310V128.5H352V111.5Z" fill="black"/>
<path opacity="0.1" d="M330 90.5H288V107.5H330V90.5Z" fill="black"/>
<path d="M431.63 286.43H247.48V436.05H431.63V286.43Z" fill="#263238" stroke="white" stroke-miterlimit="10"/>
<path d="M282.18 245.47L271.11 240.16L273.88 245.16C271.41 244.436 268.903 243.845 266.37 243.39H260.84L264 247.28C264 247.28 254.92 245.16 253.73 245.16H247.41L251.41 247.99L236.79 246.93L239.99 250.57L232.45 250.11L228.45 252.59L232 254.36C232 254.36 222.91 256.13 221.73 256.83C220.55 257.53 216.59 259.31 216.59 259.31L225.68 259.66H467.47L462.73 255.42L457.99 254.71L463.12 253.65L454 250.07H449.65L453.21 247.95C453.21 247.95 444.91 245.82 443.33 245.82H431.91L434.28 243.35L424.8 244.05L425.2 241.58C425.2 241.58 419.27 243.7 418.08 244.05C416.89 244.4 413.34 245.82 413.34 245.82L411.34 241.58L408.18 243.7L406.18 245.82L405.05 243L399.51 246.19L397.51 247.6L393.95 242.6L390.4 244.37L388.03 246.14L386.48 243C386.48 243 381.34 243.36 380.16 244.42C379.084 245.21 377.88 245.809 376.6 246.19V241.94L370.28 244.42V240.53L364 243.7L359.26 240.16L357.26 243.35L352.13 241.58L351.73 243.7L345 241.93L343.82 243.7L340.66 241.22L334.34 244.41L332 241.93L322.12 244.41L321.33 241.58L313.43 244.05L303.95 238.75L304.74 242.99L299.99 242.64L291.3 241.22L291.7 243.7H288.5L288.1 245.12L281.78 242.64L282.18 245.47Z" fill="#575757"/>
<path d="M294.08 251.84C294.08 252.541 293.872 253.225 293.483 253.808C293.093 254.39 292.54 254.844 291.892 255.112C291.245 255.379 290.533 255.449 289.846 255.311C289.159 255.174 288.528 254.836 288.033 254.34C287.539 253.844 287.202 253.212 287.067 252.525C286.931 251.837 287.003 251.125 287.272 250.478C287.542 249.832 287.997 249.28 288.581 248.892C289.164 248.504 289.849 248.298 290.55 248.3C291.487 248.303 292.385 248.677 293.047 249.34C293.708 250.004 294.08 250.903 294.08 251.84Z" fill="#C53F3F"/>
<path d="M272.15 251.49C272.15 252.19 271.943 252.875 271.554 253.457C271.165 254.039 270.612 254.493 269.965 254.76C269.318 255.028 268.606 255.099 267.92 254.962C267.233 254.825 266.602 254.488 266.107 253.993C265.612 253.498 265.275 252.867 265.138 252.181C265.002 251.494 265.072 250.782 265.34 250.135C265.608 249.488 266.061 248.936 266.644 248.547C267.226 248.158 267.91 247.95 268.61 247.95C269.549 247.95 270.45 248.323 271.113 248.987C271.777 249.651 272.15 250.551 272.15 251.49Z" fill="#C53F3F"/>
<path d="M331.24 257.14C333.388 257.14 335.13 255.398 335.13 253.25C335.13 251.102 333.388 249.36 331.24 249.36C329.091 249.36 327.35 251.102 327.35 253.25C327.35 255.398 329.091 257.14 331.24 257.14Z" fill="#C53F3F"/>
<path d="M382.9 252.19C385.048 252.19 386.79 250.448 386.79 248.3C386.79 246.152 385.048 244.41 382.9 244.41C380.751 244.41 379.01 246.152 379.01 248.3C379.01 250.448 380.751 252.19 382.9 252.19Z" fill="#C53F3F"/>
<path d="M358.839 253.96C360.988 253.96 362.729 252.218 362.729 250.07C362.729 247.922 360.988 246.18 358.839 246.18C356.691 246.18 354.949 247.922 354.949 250.07C354.949 252.218 356.691 253.96 358.839 253.96Z" fill="#C53F3F"/>
<path d="M409.441 255.38C411.589 255.38 413.331 253.638 413.331 251.49C413.331 249.342 411.589 247.6 409.441 247.6C407.292 247.6 405.551 249.342 405.551 251.49C405.551 253.638 407.292 255.38 409.441 255.38Z" fill="#C53F3F"/>
<path d="M453.001 252.19C453.001 252.959 452.773 253.712 452.345 254.351C451.918 254.991 451.31 255.49 450.599 255.784C449.889 256.078 449.106 256.155 448.352 256.005C447.597 255.855 446.904 255.485 446.36 254.941C445.816 254.397 445.446 253.704 445.295 252.949C445.145 252.194 445.222 251.412 445.517 250.701C445.811 249.991 446.31 249.383 446.95 248.956C447.589 248.528 448.341 248.3 449.111 248.3C450.142 248.303 451.129 248.713 451.858 249.442C452.587 250.171 452.998 251.159 453.001 252.19V252.19Z" fill="#C53F3F"/>
<path d="M455.999 265.12H234.359V272.68H455.999V265.12Z" fill="#8F8F8F" stroke="#263238" stroke-miterlimit="10"/>
<path d="M460.68 272.74H229.67V276.78H460.68V272.74Z" fill="#8F8F8F" stroke="#263238" stroke-miterlimit="10"/>
<path d="M460.68 276.84H229.67V309.6H460.68V276.84Z" fill="#8F8F8F" stroke="#263238" stroke-miterlimit="10"/>
<path d="M415.631 283.23H274.721V303.22H415.631V283.23Z" fill="#8F8F8F" stroke="#263238" stroke-miterlimit="10"/>
<path d="M455.81 265.12H234.54L222.24 258.43H468.11L455.81 265.12Z" fill="#8F8F8F" stroke="#263238" stroke-miterlimit="10"/>
<path d="M451.95 282.06H424.99V303.16H451.95V282.06Z" fill="#8F8F8F" stroke="#263238" stroke-miterlimit="10"/>
<path d="M265.569 282.06H238.609V303.16H265.569V282.06Z" fill="#8F8F8F" stroke="#263238" stroke-miterlimit="10"/>
<path d="M451.95 326.02H424.99V415.11H451.95V326.02Z" fill="#8F8F8F" stroke="#263238" stroke-miterlimit="10"/>
<path d="M464.25 309.61H413.85V318.99H464.25V309.61Z" fill="#8F8F8F" stroke="#263238" stroke-miterlimit="10"/>
<path d="M464.25 427.41H413.85V452.03H464.25V427.41Z" fill="#8F8F8F" stroke="#263238" stroke-miterlimit="10"/>
<path d="M460.751 318.98H417.961V427.41H460.751V318.98Z" fill="#8F8F8F" stroke="#263238" stroke-miterlimit="10"/>
<path d="M264.399 326.02H237.439V415.11H264.399V326.02Z" fill="#8F8F8F" stroke="#263238" stroke-miterlimit="10"/>
<path d="M276.701 309.61H226.301V318.99H276.701V309.61Z" fill="#8F8F8F" stroke="#263238" stroke-miterlimit="10"/>
<path d="M276.701 427.41H226.301V452.03H276.701V427.41Z" fill="#8F8F8F" stroke="#263238" stroke-miterlimit="10"/>
<path d="M273.19 318.98H230.4V427.41H273.19V318.98Z" fill="#8F8F8F" stroke="#263238" stroke-miterlimit="10"/>
<path d="M413.861 427.41H276.711V452.03H413.861V427.41Z" fill="#8F8F8F" stroke="#263238" stroke-miterlimit="10"/>
<path d="M398.759 281.41C398.759 285.74 397.759 289.25 396.519 289.25C395.279 289.25 394.279 285.74 394.279 281.41C394.279 277.08 395.279 273.57 396.519 273.57C397.759 273.57 398.759 277.08 398.759 281.41Z" fill="#575757"/>
<path d="M394.28 289.25L418.92 299.89C418.92 299.89 411.08 322.28 411.08 327.89C411.08 333.5 423.96 349.73 421.16 355.33C418.36 360.93 417.24 363.17 409.4 363.17C401.56 363.17 384.2 354.77 378.6 338.53C373 322.29 382.52 315 382.52 315L394.28 289.25Z" fill="#575757"/>
<path d="M394.001 283.8L387.27 298.44C387.077 298.852 386.967 299.298 386.95 299.753C386.932 300.208 387.006 300.662 387.168 301.087C387.329 301.513 387.575 301.901 387.89 302.23C388.204 302.559 388.582 302.821 389.001 303L414.761 314.3C415.566 314.652 416.477 314.677 417.3 314.369C418.123 314.061 418.794 313.444 419.171 312.65L426.33 297.55C426.525 297.135 426.633 296.686 426.649 296.228C426.665 295.77 426.588 295.314 426.422 294.887C426.257 294.46 426.007 294.07 425.687 293.743C425.367 293.415 424.984 293.156 424.561 292.98L398.401 282.09C397.589 281.745 396.675 281.73 395.853 282.05C395.03 282.369 394.366 282.997 394.001 283.8V283.8Z" fill="white"/>
<path d="M334.97 289.25C336.208 289.25 337.21 285.74 337.21 281.41C337.21 277.08 336.208 273.57 334.97 273.57C333.733 273.57 332.73 277.08 332.73 281.41C332.73 285.74 333.733 289.25 334.97 289.25Z" fill="#575757"/>
<path d="M332.73 289.25L357.37 299.89C357.37 299.89 349.53 322.28 349.53 327.89C349.53 333.5 362.41 349.73 359.61 355.33C356.81 360.93 355.69 363.17 347.85 363.17C340.01 363.17 322.65 354.77 317.05 338.53C311.45 322.29 321 315 321 315L332.73 289.25Z" fill="#575757"/>
<path d="M332.49 283.8L325.77 298.44C325.582 298.848 325.477 299.289 325.461 299.738C325.445 300.186 325.519 300.634 325.679 301.054C325.838 301.474 326.079 301.857 326.388 302.183C326.697 302.509 327.068 302.769 327.48 302.95L353.24 314.25C354.047 314.6 354.958 314.624 355.782 314.316C356.607 314.009 357.28 313.393 357.66 312.6L364.81 297.5C365.006 297.086 365.116 296.637 365.133 296.179C365.15 295.721 365.074 295.265 364.909 294.838C364.745 294.41 364.495 294.021 364.175 293.693C363.856 293.365 363.473 293.105 363.05 292.93L336.86 282.09C336.051 281.756 335.145 281.748 334.331 282.067C333.517 282.385 332.857 283.006 332.49 283.8V283.8Z" fill="white"/>
<path d="M491 452.03H27" stroke="#263238" stroke-miterlimit="10" stroke-linecap="round"/>
<path d="M24.5391 61.1799C30.7073 64.6119 37.1615 67.5028 43.8291 69.8199C50.4737 72.2038 57.2359 74.2465 64.0891 75.9399C67.4991 76.8599 70.9591 77.5399 74.3991 78.3399L79.5991 79.3399C81.3291 79.6799 83.0591 80.0299 84.7991 80.3399C88.2891 80.8999 91.7991 81.5299 95.2691 81.9499L100.509 82.6599C102.259 82.8999 104.019 83.0399 105.779 83.2399C119.826 84.6929 133.937 85.4372 148.059 85.4699C162.179 85.4699 176.289 84.7999 190.369 83.7399C218.513 81.3099 246.482 77.1588 274.119 71.3099C281.009 69.7599 287.909 68.3099 294.789 66.6699C301.669 65.0299 308.509 63.3199 315.339 61.5299C322.169 59.7399 328.969 57.8499 335.759 55.9199L345.909 52.9199L350.999 51.3599L353.559 50.5999L354.839 50.2199L355.479 50.0199L355.799 49.9299C355.899 49.9299 356.009 49.8299 356.109 49.9299C361.199 52.5699 366.329 54.9299 371.539 57.1499C376.749 59.3699 382.029 61.4499 387.359 63.3699C398.032 67.2437 408.933 70.4597 419.999 72.9999C431.04 75.5653 442.264 77.2638 453.569 78.0799C459.229 78.5099 464.899 78.5499 470.569 78.4399C476.211 78.2581 481.838 77.7774 487.429 76.9999" stroke="#263238" stroke-miterlimit="10" stroke-linecap="round"/>
<path d="M52.8096 72.5699L50.0996 71.7099L50.1996 66.8599C51.9696 67.4099 53.7296 67.9999 55.5096 68.5299L52.8096 72.5699Z" fill="#263238"/>
<path d="M57.1999 66.1398C56.2899 69.2398 54.6699 68.6498 52.6599 67.9798C50.6499 67.3098 48.9999 66.9998 49.9999 63.8798C50.7299 61.7298 53.5599 59.0898 55.0999 57.7198C55.2144 57.6217 55.352 57.5542 55.4997 57.5239C55.6475 57.4935 55.8005 57.5011 55.9445 57.5461C56.0884 57.5911 56.2186 57.672 56.3227 57.781C56.4269 57.8901 56.5016 58.0239 56.5399 58.1698C56.9999 60.2098 57.8399 63.9398 57.1999 66.1398Z" fill="#C53F3F"/>
<path d="M54.0893 63.7398C54.0662 63.949 53.997 64.1505 53.8865 64.3297C53.776 64.5089 53.6271 64.6612 53.4505 64.7758C53.2739 64.8903 53.074 64.9642 52.8654 64.992C52.6568 65.0198 52.4445 65.0008 52.2441 64.9365C52.0437 64.8723 51.86 64.7642 51.7065 64.6202C51.553 64.4763 51.4333 64.2999 51.3563 64.104C51.2793 63.9082 51.2468 63.6976 51.2611 63.4876C51.2755 63.2776 51.3363 63.0734 51.4393 62.8898C51.4623 62.6806 51.5316 62.4791 51.6421 62.2999C51.7525 62.1208 51.9015 61.9684 52.0781 61.8539C52.2547 61.7393 52.4545 61.6655 52.6632 61.6377C52.8718 61.6099 53.084 61.6288 53.2845 61.6931C53.4849 61.7574 53.6685 61.8654 53.8221 62.0094C53.9756 62.1534 54.0952 62.3297 54.1723 62.5256C54.2493 62.7215 54.2818 62.932 54.2674 63.142C54.2531 63.352 54.1922 63.5562 54.0893 63.7398V63.7398Z" fill="white"/>
<path d="M83.1694 80.5198L85.9995 80.9998L86.6495 85.8198C84.7495 85.4998 82.8395 85.2298 80.9395 84.8198L83.1694 80.5198Z" fill="#263238"/>
<path d="M79.4586 87.37C80.0586 84.18 81.7686 84.7 83.9386 85.03C86.1086 85.36 87.8786 85.53 87.3786 88.73C86.9986 91 84.4886 94 82.9986 95.54C82.8792 95.6534 82.7353 95.7378 82.578 95.7865C82.4207 95.8352 82.2543 95.8469 82.0917 95.8208C81.9292 95.7947 81.7748 95.7314 81.6407 95.6358C81.5066 95.5403 81.3964 95.4151 81.3186 95.27C80.4186 93.34 78.9986 89.61 79.4586 87.37Z" fill="#C53F3F"/>
<path d="M83.089 89.4298C83.1739 89.1521 83.3372 88.9047 83.5591 88.7174C83.7811 88.53 84.0524 88.4107 84.3404 88.3737C84.6285 88.3366 84.9211 88.3834 85.1833 88.5085C85.4454 88.6336 85.6659 88.8316 85.8184 89.0788C85.9708 89.3261 86.0487 89.612 86.0427 89.9024C86.0367 90.1928 85.9472 90.4753 85.7847 90.716C85.6222 90.9568 85.3938 91.1455 85.1267 91.2597C84.8596 91.3739 84.5653 91.4087 84.279 91.3598C84.0733 91.3128 83.8789 91.2254 83.7073 91.1025C83.5357 90.9796 83.3903 90.8238 83.2796 90.6442C83.1688 90.4646 83.0949 90.2647 83.0622 90.0562C83.0295 89.8477 83.0386 89.6347 83.089 89.4298Z" fill="white"/>
<path d="M126.879 84.6198L124.029 84.4898L122.889 79.7698L128.519 80.0398L126.879 84.6198Z" fill="#263238"/>
<path d="M129.599 77.31C129.459 80.55 127.729 80.31 125.599 80.23C123.469 80.15 121.719 80.15 121.929 76.92C122.089 74.64 124.189 71.42 125.399 69.68C125.491 69.5557 125.612 69.456 125.751 69.3895C125.89 69.323 126.044 69.2919 126.198 69.2988C126.352 69.3057 126.502 69.3505 126.635 69.4292C126.768 69.5079 126.879 69.618 126.959 69.75C127.999 71.58 129.699 75 129.599 77.31Z" fill="#C53F3F"/>
<path d="M125.929 75.76C125.937 76.1787 125.782 76.5841 125.496 76.8903C125.21 77.1964 124.817 77.3793 124.399 77.4C124.194 77.3695 123.998 77.2989 123.821 77.1923C123.644 77.0858 123.49 76.9453 123.367 76.779C123.244 76.6127 123.156 76.4239 123.106 76.2233C123.057 76.0227 123.047 75.8143 123.079 75.61C123.078 75.1981 123.235 74.8017 123.518 74.5022C123.801 74.2028 124.187 74.023 124.599 74C125.007 74.0595 125.376 74.2776 125.625 74.607C125.874 74.9365 125.983 75.3507 125.929 75.76V75.76Z" fill="white"/>
<path d="M158.248 85.7998C159.198 85.7998 160.148 85.7998 161.098 85.7998L162.658 90.3998C160.738 90.4998 158.818 90.4998 156.898 90.5198L158.248 85.7998Z" fill="#263238"/>
<path d="M156 93.25C156 90.01 157.73 90.13 159.91 90.11C162.09 90.09 163.86 89.83 163.91 93.11C163.98 95.39 162.08 98.83 160.91 100.65C160.812 100.78 160.685 100.886 160.54 100.959C160.394 101.032 160.233 101.07 160.07 101.07C159.907 101.07 159.746 101.032 159.6 100.959C159.455 100.886 159.328 100.78 159.23 100.65C158 98.88 156 95.54 156 93.25Z" fill="#C53F3F"/>
<path d="M159.878 94.5899C159.845 94.1694 159.976 93.7525 160.245 93.4275C160.514 93.1026 160.899 92.8954 161.318 92.8499C161.527 92.8576 161.732 92.9064 161.922 92.9936C162.112 93.0807 162.283 93.2044 162.425 93.3577C162.567 93.5109 162.678 93.6907 162.75 93.8867C162.823 94.0826 162.856 94.291 162.848 94.4999C162.888 94.9246 162.759 95.3479 162.49 95.6788C162.22 96.0098 161.832 96.2219 161.408 96.2699C160.983 96.2491 160.583 96.0607 160.296 95.7458C160.01 95.431 159.859 95.0153 159.878 94.5899V94.5899Z" fill="white"/>
<path d="M202.03 82.3999L199.19 82.6599L197.34 78.1599L202.97 77.6399L202.03 82.3999Z" fill="#263238"/>
<path d="M203.629 74.7898C203.969 78.0198 202.219 78.0298 200.089 78.2298C197.959 78.4298 196.229 78.7298 195.929 75.4998C195.729 73.2198 197.329 69.6998 198.269 67.8298C198.351 67.7015 198.461 67.5936 198.59 67.5142C198.72 67.4347 198.866 67.3859 199.018 67.3715C199.169 67.357 199.322 67.3773 199.464 67.4307C199.606 67.4841 199.735 67.5693 199.839 67.6798C201.129 69.3498 203.389 72.5198 203.629 74.7898Z" fill="#C53F3F"/>
<path d="M199.74 73.7599C199.717 74.0366 199.617 74.3013 199.449 74.5228C199.282 74.7443 199.055 74.9135 198.795 75.0106C198.535 75.1076 198.252 75.1286 197.981 75.0709C197.709 75.0132 197.46 74.8793 197.262 74.6849C197.064 74.4904 196.925 74.2435 196.862 73.9731C196.799 73.7027 196.815 73.42 196.907 73.1582C196.999 72.8963 197.164 72.6661 197.382 72.4946C197.601 72.3231 197.863 72.2175 198.14 72.1899C198.559 72.1899 198.961 72.3543 199.26 72.6479C199.56 72.9415 199.732 73.3408 199.74 73.7599V73.7599Z" fill="white"/>
<path d="M233.259 79.13L236.079 78.72L238.219 83.11L232.529 83.94L233.259 79.13Z" fill="#263238"/>
<path d="M231.999 86.8098C231.519 83.6098 233.289 83.4998 235.449 83.1898C237.609 82.8798 239.329 82.4698 239.839 85.6498C240.199 87.9298 238.759 91.5498 237.839 93.4698C237.769 93.6192 237.662 93.7488 237.53 93.847C237.397 93.9453 237.242 94.0092 237.079 94.0329C236.915 94.0567 236.748 94.0396 236.593 93.9832C236.438 93.9269 236.299 93.8329 236.189 93.7098C234.769 92.1198 232.309 89.0798 231.999 86.8098Z" fill="#C53F3F"/>
<path d="M236 87.6299C235.953 87.4256 235.946 87.2141 235.981 87.0073C236.016 86.8006 236.091 86.6028 236.203 86.4252C236.314 86.2477 236.46 86.094 236.631 85.973C236.802 85.8519 236.995 85.7659 237.2 85.7199C237.622 85.6973 238.037 85.8386 238.357 86.1144C238.678 86.3902 238.879 86.779 238.92 87.1999C238.967 87.4035 238.974 87.6144 238.939 87.8205C238.904 88.0266 238.828 88.2237 238.717 88.4004C238.605 88.5771 238.46 88.73 238.288 88.85C238.117 88.9701 237.924 89.055 237.72 89.0999C237.298 89.1303 236.88 88.9931 236.558 88.7179C236.236 88.4428 236.036 88.0519 236 87.6299V87.6299Z" fill="white"/>
<path d="M276.329 70.5499L273.549 71.1599L271.199 66.8799C273.059 66.5299 274.899 66.0899 276.739 65.6899L276.329 70.5499Z" fill="#263238"/>
<path d="M277.1 62.7699C277.78 65.9399 276.05 66.1799 273.95 66.6399C271.85 67.0999 270.16 67.5499 269.51 64.3899C269.05 62.1399 270.26 58.4799 270.99 56.5199C271.054 56.3786 271.149 56.254 271.27 56.156C271.39 56.058 271.531 55.9894 271.682 55.9554C271.834 55.9215 271.991 55.9232 272.141 55.9604C272.292 55.9976 272.432 56.0694 272.55 56.1699C274 57.6599 276.61 60.5399 277.1 62.7699Z" fill="#C53F3F"/>
<path d="M273.109 62.2398C273.186 62.4378 273.219 62.6501 273.206 62.862C273.192 63.0739 273.132 63.2803 273.031 63.4668C272.929 63.6533 272.788 63.8154 272.618 63.9418C272.447 64.0682 272.251 64.1558 272.043 64.1986C271.835 64.2414 271.62 64.2383 271.413 64.1895C271.207 64.1407 271.013 64.0474 270.846 63.9162C270.679 63.7849 270.543 63.6188 270.447 63.4294C270.351 63.2401 270.297 63.032 270.29 62.8198C270.223 62.619 270.199 62.407 270.217 62.1964C270.234 61.9857 270.295 61.7809 270.394 61.5942C270.493 61.4074 270.628 61.2425 270.793 61.1095C270.957 60.9764 271.146 60.8779 271.35 60.8198C271.559 60.7963 271.77 60.8144 271.972 60.8732C272.174 60.932 272.362 61.0303 272.526 61.1624C272.69 61.2944 272.826 61.4577 272.926 61.6426C273.026 61.8276 273.088 62.0306 273.109 62.2398V62.2398Z" fill="white"/>
<path d="M307.059 64.0799L309.829 63.3999L312.369 67.5599L306.809 68.9399L307.059 64.0799Z" fill="#263238"/>
<path d="M306.529 71.86C305.749 68.72 307.529 68.43 309.609 67.86C311.689 67.29 313.389 66.77 314.199 69.86C314.779 72.07 313.699 75.86 312.999 77.86C312.943 78.0139 312.85 78.1518 312.728 78.2613C312.606 78.3709 312.459 78.4489 312.3 78.4884C312.141 78.5279 311.975 78.5277 311.816 78.4879C311.657 78.4481 311.511 78.3698 311.389 78.26C309.819 76.87 307.079 74.08 306.529 71.86Z" fill="#C53F3F"/>
<path d="M310.619 72.27C310.492 71.8721 310.525 71.4401 310.712 71.0663C310.899 70.6926 311.224 70.4068 311.619 70.27C312.036 70.2054 312.461 70.3047 312.806 70.5471C313.151 70.7895 313.389 71.1561 313.469 71.57C313.551 71.7681 313.59 71.9816 313.582 72.1958C313.574 72.4101 313.519 72.6201 313.423 72.8115C313.326 73.003 313.19 73.1713 313.022 73.305C312.854 73.4387 312.66 73.5347 312.452 73.5863C312.244 73.638 312.027 73.6441 311.816 73.6043C311.605 73.5645 311.406 73.4797 311.231 73.3557C311.056 73.2317 310.91 73.0714 310.803 72.8857C310.695 72.7001 310.629 72.4935 310.609 72.28L310.619 72.27Z" fill="white"/>
<path d="M349.18 51.6598L346.45 52.4698L343.76 48.4698L349.39 46.7898C349.209 48.4065 349.139 50.0336 349.18 51.6598V51.6598Z" fill="#263238"/>
<path d="M350.089 43.6499C350.269 44.2092 350.276 44.8095 350.11 45.373C349.944 45.9364 349.613 46.4371 349.159 46.8099C348.779 47.0869 348.366 47.3153 347.929 47.4899C347.489 47.6599 346.989 47.7999 346.479 47.9499C344.409 48.5599 342.779 49.1999 341.859 46.0899C341.209 43.8999 342.109 40.0899 342.679 38.0899C342.733 37.9438 342.821 37.8124 342.935 37.7061C343.049 37.5999 343.186 37.5218 343.336 37.4781C343.486 37.4344 343.643 37.4263 343.797 37.4544C343.95 37.4824 344.095 37.546 344.219 37.6399C344.619 37.9799 345.099 38.4099 345.599 38.8899L346.359 39.6399C346.659 39.8899 347.109 40.0999 347.439 40.3599C348.703 41.086 349.649 42.26 350.089 43.6499Z" fill="#C53F3F"/>
<path d="M345.279 43.63C345.313 43.9081 345.267 44.1901 345.146 44.4429C345.025 44.6956 344.834 44.9085 344.596 45.0566C344.358 45.2046 344.083 45.2815 343.803 45.2783C343.523 45.2751 343.249 45.1919 343.015 45.0385C342.78 44.8851 342.595 44.6679 342.479 44.4125C342.364 44.157 342.325 43.874 342.365 43.5968C342.405 43.3195 342.524 43.0595 342.707 42.8475C342.89 42.6355 343.13 42.4802 343.399 42.4C343.811 42.3195 344.238 42.4031 344.589 42.6329C344.94 42.8626 345.187 43.2204 345.279 43.63V43.63Z" fill="white"/>
<path d="M378.089 60.3599L380.749 61.3599L380.429 66.2199C378.609 65.5399 376.819 64.8099 375.029 64.0999L378.089 60.3599Z" fill="#263238"/>
<path d="M373.069 66.34C374.299 63.34 375.889 64.15 377.939 64.95C379.989 65.75 381.699 66.23 380.559 69.27C379.759 71.41 376.659 73.85 374.889 75.06C374.747 75.1444 374.588 75.1951 374.423 75.2083C374.258 75.2214 374.093 75.1966 373.939 75.1357C373.786 75.0749 373.648 74.9796 373.537 74.8573C373.426 74.7349 373.345 74.5887 373.299 74.43C372.819 72.34 372.199 68.46 373.069 66.34Z" fill="#C53F3F"/>
<path d="M376.209 69.08C376.253 68.8629 376.344 68.6581 376.476 68.4799C376.607 68.3017 376.776 68.1544 376.971 68.0484C377.166 67.9425 377.381 67.8803 377.602 67.8663C377.823 67.8523 378.045 67.8869 378.251 67.9675C378.458 68.0481 378.644 68.1729 378.797 68.3331C378.95 68.4933 379.066 68.685 379.138 68.8948C379.209 69.1046 379.233 69.3275 379.209 69.5478C379.185 69.7681 379.113 69.9804 378.999 70.17C378.947 70.3802 378.852 70.5771 378.718 70.7474C378.585 70.9177 378.417 71.0576 378.225 71.1576C378.033 71.2577 377.822 71.3156 377.606 71.3276C377.39 71.3396 377.174 71.3053 376.972 71.2271C376.771 71.1488 376.588 71.0284 376.436 70.8739C376.285 70.7194 376.168 70.5343 376.094 70.331C376.02 70.1278 375.99 69.9111 376.006 69.6953C376.023 69.4796 376.085 69.2698 376.189 69.08H376.209Z" fill="white"/>
<path d="M420.169 72.7898C419.249 72.5798 418.319 72.3898 417.399 72.1498L417.119 67.2898C418.929 67.7498 420.749 68.1498 422.569 68.5598L420.169 72.7898Z" fill="#263238"/>
<path d="M424.079 66.06C423.399 69.23 421.739 68.71 419.669 68.24C417.599 67.77 415.899 67.47 416.669 64.33C417.239 62.11 419.859 59.33 421.309 57.82C421.418 57.714 421.552 57.6369 421.698 57.5957C421.844 57.5546 421.999 57.5508 422.147 57.5846C422.295 57.6184 422.432 57.6888 422.546 57.7893C422.66 57.8898 422.747 58.0172 422.799 58.16C423.459 60.12 424.559 63.82 424.079 66.06Z" fill="#C53F3F"/>
<path d="M420.779 63.8999C420.667 64.1477 420.487 64.3587 420.259 64.5084C420.032 64.658 419.767 64.7402 419.495 64.7455C419.223 64.7507 418.955 64.6787 418.722 64.5379C418.489 64.397 418.301 64.1931 418.179 63.9497C418.058 63.7063 418.007 63.4334 418.034 63.1627C418.062 62.8919 418.165 62.6343 418.332 62.4198C418.5 62.2053 418.724 62.0426 418.98 61.9506C419.236 61.8585 419.513 61.841 419.779 61.8999C420.172 62.0388 420.496 62.3249 420.683 62.6979C420.869 63.071 420.904 63.5019 420.779 63.8999V63.8999Z" fill="white"/>
<path d="M451.059 78.3499C451.999 78.4499 452.959 78.4899 453.909 78.5499L455.059 83.2799C453.109 83.1699 451.159 83.0499 449.219 82.8499L451.059 78.3499Z" fill="#263238"/>
<path d="M447.999 85.52C448.309 82.29 450.069 82.62 452.279 82.78C454.489 82.94 456.279 82.88 456.129 86.12C456.029 88.4 453.769 91.64 452.389 93.34C452.275 93.4646 452.135 93.5619 451.978 93.6246C451.822 93.6874 451.653 93.714 451.485 93.7025C451.317 93.6909 451.153 93.6416 451.007 93.558C450.86 93.4745 450.734 93.3589 450.639 93.22C449.509 91.34 447.759 87.8 447.999 85.52Z" fill="#C53F3F"/>
<path d="M451.839 87.2499C451.849 86.82 452.026 86.411 452.332 86.1088C452.637 85.8066 453.049 85.6349 453.479 85.6299C453.904 85.6946 454.29 85.9165 454.56 86.2518C454.83 86.587 454.964 87.0112 454.936 87.4407C454.909 87.8702 454.721 88.2738 454.411 88.5717C454.1 88.8696 453.689 89.0402 453.259 89.0499C453.047 89.0264 452.841 88.9609 452.655 88.8574C452.468 88.7539 452.304 88.6144 452.172 88.4469C452.04 88.2794 451.943 88.0873 451.885 87.8819C451.828 87.6764 451.812 87.4616 451.839 87.2499V87.2499Z" fill="white"/>
<path d="M401 50H304V171H401V50Z" fill="#A8A8A8"/>
<path d="M394.58 58H310.41V163H394.58V58Z" fill="white"/>
<path opacity="0.1" d="M375.619 81.6499H329.369V139.35H375.619V81.6499Z" fill="black"/>
<path d="M228 418.46C228 418.46 252.84 440.78 253.15 441.72C253.46 442.66 260.69 451.78 267.3 460.59C273.91 469.4 284.3 472.53 287.42 468.13C290.54 463.73 291.82 449.9 288.99 443.92C286.16 437.94 277.99 430.09 277.99 430.09L273.91 399.6C273.91 399.6 261.05 423.18 228 418.46Z" fill="#263238" stroke="#263238" stroke-miterlimit="10" stroke-linecap="round"/>
<path d="M276.45 429.46L256.33 440.46L264.4 449.89L280.53 440.77L276.45 429.46ZM261.68 441.72L274.9 433.9L277.4 439.84L264.65 446.65L261.68 441.72Z" fill="white" stroke="#263238" stroke-miterlimit="10" stroke-linecap="round"/>
<path d="M208.23 398.34C208.23 398.34 204.46 399.76 206.82 403.53C209.18 407.3 212.48 415.79 220.5 419.53C228.52 423.27 245.02 423.3 260.58 415.76C276.14 408.22 280.38 393.6 281.33 389.35C282.28 385.1 276.61 375.21 275.2 371.43C273.79 367.65 264.82 370.49 264.82 370.49C264.82 370.49 258.69 384.64 245.02 390.77C231.35 396.9 208.23 398.34 208.23 398.34Z" fill="white" stroke="#263238" stroke-miterlimit="10" stroke-linecap="round"/>
<path d="M199.279 388.44C199.279 388.44 206.819 401.17 214.839 405.44C222.859 409.71 240.769 408.27 254.919 397.44C269.069 386.61 270.479 376.69 270.479 372.92C270.479 369.15 268.119 350.28 268.119 350.28C268.119 350.28 231.809 376.69 219.549 380.93L199.279 388.44Z" fill="#C53F3F" stroke="#263238" stroke-miterlimit="10" stroke-linecap="round"/>
<path d="M106.379 423.33L117.219 451.16C117.219 451.16 110.149 456.34 104.019 458.23C97.8894 460.12 89.3994 462.94 91.7594 466.23C94.1194 469.52 105.439 473.3 117.219 473.3C128.999 473.3 134.669 470.47 137.969 467.17C140.363 464.924 143.055 463.02 145.969 461.51L146.439 466.23C146.439 466.23 153.509 465.28 157.289 462.92C161.069 460.56 165.289 454.44 165.289 454.44C165.289 454.44 163.879 445.01 162.459 442.18C161.039 439.35 159.629 435.57 159.629 435.57V421.92C159.629 421.92 134.669 434.65 106.379 423.33Z" fill="#263238" stroke="#263238" stroke-miterlimit="10" stroke-linecap="round"/>
<path d="M118.64 444.08L113.92 454.46L125.24 461.53L135.62 447.85L118.64 444.08ZM116.8 453.5L119.66 447.18L129.66 449.52L124.34 458L116.8 453.5Z" fill="white" stroke="#263238" stroke-miterlimit="10" stroke-linecap="round"/>
<path d="M93.1786 391.27C93.1786 391.27 89.3986 395.04 89.8686 399.76C90.3386 404.48 93.6486 414.37 94.1186 419.09C94.5886 423.81 120.049 435.59 134.669 435.09C149.289 434.59 166.269 424.25 169.569 420.47C172.869 416.69 171.919 411.47 171.919 404.47C171.919 397.47 171.449 396.47 168.619 395.98C165.789 395.49 161.079 395.51 159.619 397.4C158.159 399.29 145.949 408.72 126.139 405.4C114.187 403.37 102.89 398.527 93.1786 391.27V391.27Z" fill="white" stroke="#263238" stroke-miterlimit="10" stroke-linecap="round"/>
<path d="M88 371.46C88 371.46 91.29 396 98.36 404C105.43 412 123.36 418.15 135.14 416.73C146.92 415.31 154.95 411.07 159.66 405.89C162.687 402.401 165.083 398.411 166.74 394.1C166.74 394.1 113.92 386.55 88 371.46Z" fill="#C53F3F" stroke="#263238" stroke-miterlimit="10" stroke-linecap="round"/>
<path d="M74.3094 328.08C74.3094 328.08 70.5394 325.72 69.5994 328.55C68.6594 331.38 60.1694 352.13 61.5994 361.55C63.0294 370.97 98.0394 395.93 123.849 402.55C154.969 410.55 193.849 409.7 229.469 393.11C277.099 370.95 291.719 326.11 292.659 312.95C293.599 299.79 292.659 292.2 287.479 286.54C282.299 280.88 267.199 271.92 263.479 275.23C259.759 278.54 264.889 287.01 244.609 312.01C224.329 337.01 208.779 353.01 165.859 354.92C122.939 356.83 94.6594 344.07 86.1694 337.92C77.6794 331.77 74.3094 328.08 74.3094 328.08Z" fill="white" stroke="#263238" stroke-miterlimit="10" stroke-linecap="round"/>
<path d="M85.3295 293C85.3295 293 71.6095 330.07 71.4695 332.9C71.3295 335.73 91.6595 371.71 152.039 372.9C212.419 374.09 249.239 346.74 261.479 319.98C273.719 293.22 271.169 278.46 271.169 278.46L232.309 262.76C232.309 262.76 272.179 277.09 205.139 295.36C138.099 313.63 85.3295 293 85.3295 293Z" fill="#C53F3F" stroke="#263238" stroke-miterlimit="10" stroke-linecap="round"/>
<path d="M245.999 269.25C245.999 269.25 239.859 295.06 218.139 310.25C196.419 325.44 176.349 335.66 143.989 326.64C111.629 317.62 95.9991 310.22 83.2991 301.21C83.2991 301.21 82.6191 317.9 105.299 331.42L101.689 321.2L107.689 323.36L112.959 335.46C141.579 348.74 170.309 348.94 205.379 336.46C218.619 331.74 227.559 325.55 233.699 319.13L228.209 306.53L232.089 302.21L238.879 312.79C244.969 304.01 246.749 295.55 247.989 290.57C250.459 280.73 245.999 269.25 245.999 269.25Z" fill="#263238" stroke="#263238" stroke-miterlimit="10" stroke-linecap="round"/>
<path d="M141.82 335.46L147.82 345.15C163.22 346.63 179.31 344.64 196.97 339.24L191.97 326.39L183.12 328C180.252 328.721 177.339 329.249 174.4 329.58L141.82 335.46Z" fill="white" stroke="#263238" stroke-miterlimit="10" stroke-linecap="round"/>
<path d="M98.3594 213.49C98.3594 213.49 78.5594 222.49 69.5994 226.69C60.6394 230.89 31.8694 231.88 31.8694 231.88C31.8694 231.88 27.1594 234.24 20.5594 249.8C13.9594 265.36 17.2494 289.88 39.4194 296C61.5894 302.12 79.4994 285.17 79.4994 285.17C79.4994 285.17 76.9994 309.48 102.129 323.36C124.299 335.62 145.989 341.75 180.879 334.68C215.769 327.61 231.179 311.07 238.579 298.75C245.109 287.87 246.899 274.32 246.899 274.32C246.899 274.32 252.559 246.03 246.899 230.94C241.239 215.85 219.549 210.66 203.049 208.78C186.549 206.9 163.439 205 160.139 205C156.839 205 111.089 205.48 98.3594 213.49Z" fill="#C53F3F" stroke="#263238" stroke-miterlimit="10" stroke-linecap="round"/>
<path d="M83.1387 253.74C83.8621 251.613 84.7377 249.541 85.7587 247.54" stroke="#263238" stroke-miterlimit="10" stroke-linecap="round"/>
<path d="M79.5002 285.17C78.9592 276.981 79.5311 268.756 81.2002 260.72" stroke="#263238" stroke-miterlimit="10" stroke-linecap="round"/>
<path d="M292.17 288C292.17 288 301.6 305 308.68 303.09C315.76 301.18 315.28 290.83 315.28 290.83C317.916 291.749 320.726 292.056 323.498 291.728C326.27 291.401 328.931 290.447 331.28 288.94C339.28 283.75 339.28 272.44 335.52 263.94C331.76 255.44 307.23 249.32 307.23 249.32C307.23 249.32 303.49 279 292.17 288Z" fill="white" stroke="#263238" stroke-miterlimit="10" stroke-linecap="round"/>
<path d="M280.379 233.3L284.159 231.41C289.066 233.735 294.101 235.781 299.239 237.54C305.379 239.43 310.559 248.86 311.029 260.65C311.499 272.44 302.029 287.05 293.589 289.88C285.149 292.71 278.969 289.88 274.719 288C270.469 286.12 262.459 283.75 262.939 280.45C263.419 277.15 265.289 277.62 268.119 271.45C270.949 265.28 275.669 254.01 275.669 247.4C275.669 240.79 280.379 233.3 280.379 233.3Z" fill="white" stroke="#263238" stroke-miterlimit="10" stroke-linecap="round"/>
<path d="M179.939 205C197.184 202.792 214.658 203.112 231.809 205.95C260.109 210.66 288.399 237.54 289.809 243.67C291.219 249.8 284.629 272 278.499 277.15C272.369 282.3 267.649 282.34 266.239 281.4C264.829 280.46 229.929 266.78 215.779 264.89" fill="#C53F3F"/>
<path d="M179.939 205C197.184 202.792 214.658 203.112 231.809 205.95C260.109 210.66 288.399 237.54 289.809 243.67C291.219 249.8 284.629 272 278.499 277.15C272.369 282.3 267.649 282.34 266.239 281.4C264.829 280.46 229.929 266.78 215.779 264.89" stroke="#263238" stroke-miterlimit="10" stroke-linecap="round"/>
<path d="M52.1488 214.91C52.1488 214.91 45.0788 211.13 38.9488 215.38C32.8188 219.63 24.7988 230 24.7988 239C24.7988 248 34.2288 256.91 45.0788 256.91C55.9288 256.91 63.4688 254.09 66.7688 245.6C70.0688 237.11 61.1088 216.79 52.1488 214.91Z" fill="white" stroke="#263238" stroke-miterlimit="10" stroke-linecap="round"/>
<path d="M179.94 205C197.184 202.792 214.658 203.112 231.81 205.95C242.64 207.75 253.46 212.8 262.81 218.69C273.51 208.77 266.019 185.51 261.079 172.94C255.889 159.73 229.01 137.57 204.49 126.73C179.97 115.89 149.79 114.46 137.49 118.24C125.19 122.02 94.5895 136.16 79.9995 145.59C65.4095 155.02 60.1995 178.12 60.1995 189.91C60.1995 201.7 61.1395 213.49 60.6695 218.21C60.1995 222.93 44.1595 242.21 44.1595 242.21C44.1595 242.21 25.2695 255 26.6895 257.35C28.1095 259.7 34.2295 266.78 42.2495 268.66C50.2695 270.54 52.1495 272.44 55.4495 275.74C58.7495 279.04 68.1795 272.91 68.1795 272.91C66.5658 264.118 67.0524 255.069 69.5995 246.5C73.8395 232.35 84.2195 229.05 92.2295 222.92C100.24 216.79 156.36 210.66 176.17 211.13C178.816 211.229 181.454 211.49 184.07 211.91L179.94 205Z" fill="#C53F3F"/>
<path opacity="0.3" d="M179.94 205C197.184 202.792 214.658 203.112 231.81 205.95C242.64 207.75 253.46 212.8 262.81 218.69C273.51 208.77 266.019 185.51 261.079 172.94C255.889 159.73 229.01 137.57 204.49 126.73C179.97 115.89 149.79 114.46 137.49 118.24C125.19 122.02 94.5895 136.16 79.9995 145.59C65.4095 155.02 60.1995 178.12 60.1995 189.91C60.1995 201.7 61.1395 213.49 60.6695 218.21C60.1995 222.93 44.1595 242.21 44.1595 242.21C44.1595 242.21 25.2695 255 26.6895 257.35C28.1095 259.7 34.2295 266.78 42.2495 268.66C50.2695 270.54 52.1495 272.44 55.4495 275.74C58.7495 279.04 68.1795 272.91 68.1795 272.91C66.5658 264.118 67.0524 255.069 69.5995 246.5C73.8395 232.35 84.2195 229.05 92.2295 222.92C100.24 216.79 156.36 210.66 176.17 211.13C178.816 211.229 181.454 211.49 184.07 211.91L179.94 205Z" fill="black"/>
<path d="M179.94 205C197.184 202.792 214.658 203.112 231.81 205.95C242.64 207.75 253.46 212.8 262.81 218.69C273.51 208.77 266.019 185.51 261.079 172.94C255.889 159.73 229.01 137.57 204.49 126.73C179.97 115.89 149.79 114.46 137.49 118.24C125.19 122.02 94.5895 136.16 79.9995 145.59C65.4095 155.02 60.1995 178.12 60.1995 189.91C60.1995 201.7 61.1395 213.49 60.6695 218.21C60.1995 222.93 44.1595 242.21 44.1595 242.21C44.1595 242.21 25.2695 255 26.6895 257.35C28.1095 259.7 34.2295 266.78 42.2495 268.66C50.2695 270.54 52.1495 272.44 55.4495 275.74C58.7495 279.04 68.1795 272.91 68.1795 272.91C66.5658 264.118 67.0524 255.069 69.5995 246.5C73.8395 232.35 84.2195 229.05 92.2295 222.92C100.24 216.79 156.36 210.66 176.17 211.13C178.816 211.229 181.454 211.49 184.07 211.91L179.94 205Z" stroke="#263238" stroke-miterlimit="10" stroke-linecap="round"/>
<path d="M56.0985 252.83C55.5285 254.05 54.9785 255.31 54.4785 256.61" stroke="#263238" stroke-miterlimit="10" stroke-linecap="round"/>
<path d="M68.249 234.91C64.5697 238.821 61.3673 243.155 58.709 247.82" stroke="#263238" stroke-miterlimit="10" stroke-linecap="round"/>
<path d="M57.819 238.25C57.819 238.25 46.999 243.67 40.709 252.86" stroke="#263238" stroke-miterlimit="10" stroke-linecap="round"/>
<path d="M80.7695 220.72C85.583 214.92 88.4979 207.781 89.1195 200.27" stroke="#263238" stroke-miterlimit="10" stroke-linecap="round"/>
<path d="M71.0586 191.5C71.0586 190.18 71.0586 188.79 71.1686 187.33" stroke="#263238" stroke-miterlimit="10" stroke-linecap="round"/>
<path d="M74.5089 210.29C73.0266 206.857 72.0562 203.225 71.6289 199.51" stroke="#263238" stroke-miterlimit="10" stroke-linecap="round"/>
<path d="M52.1504 212.55C52.1504 212.55 51.7004 212.89 50.9604 213.55C47.9604 216.13 40.2704 223.48 39.8904 231.44C39.4204 241.34 44.1304 242.29 44.1304 242.29L54.5104 235.68C54.5104 235.68 69.1304 236.16 74.3104 230.5C79.4904 224.84 82.8004 218.71 74.3104 211.64C65.8204 204.57 52.1504 212.55 52.1504 212.55Z" fill="white" stroke="#263238" stroke-miterlimit="10" stroke-linecap="round"/>
<path d="M130 274.79C130 274.79 123.11 316.87 152.66 337.62C152.66 337.62 164.33 340.21 185.33 333.9C185.33 333.9 167.72 298.06 167.72 270.39L130 274.79Z" fill="white" stroke="#263238" stroke-miterlimit="10" stroke-linecap="round"/>
<path d="M96.4495 189.82C95.713 197.767 94.342 205.642 92.3495 213.37C89.0895 226.37 86.1695 241.37 90.2195 254.77C93.2195 264.58 100.879 272.03 110.219 275.97C140.299 288.7 191.859 282.86 198.309 244.1C200.629 230.18 195.669 216.8 188.309 205.18C178.759 190.18 174.309 185.73 174.309 185.73C174.309 185.73 158.609 191.53 135.399 191.53C112.189 191.53 96.4495 189.82 96.4495 189.82Z" fill="white" stroke="#263238" stroke-miterlimit="10" stroke-linecap="round"/>
<path d="M141.25 225.43C141.25 226.698 140.874 227.937 140.169 228.991C139.465 230.045 138.464 230.867 137.293 231.352C136.121 231.837 134.833 231.964 133.589 231.717C132.346 231.47 131.204 230.859 130.307 229.963C129.411 229.066 128.8 227.924 128.553 226.681C128.306 225.437 128.432 224.148 128.918 222.977C129.403 221.806 130.224 220.805 131.278 220.1C132.333 219.396 133.572 219.02 134.84 219.02C136.54 219.02 138.17 219.695 139.372 220.897C140.574 222.1 141.25 223.73 141.25 225.43Z" fill="#263238"/>
<path d="M134.16 218.15C140.6 219.55 154.83 223.53 163.16 225.89C169.8 219.7 169.08 209.76 165.42 201.77C163.491 197.444 161.324 193.228 158.93 189.14L108.76 193.57C108.76 193.57 104.67 207.91 105.01 217.81C105.16 222.01 108.5 225.22 112.65 227.48C116.71 224.09 126.84 216.55 134.16 218.15Z" fill="white" stroke="#263238" stroke-miterlimit="10" stroke-linecap="round"/>
<path d="M161.469 211.4C161.469 213.51 158.659 215.23 155.199 215.23C151.739 215.23 148.939 213.51 148.939 211.4C148.939 209.29 151.739 207.57 155.199 207.57C158.659 207.57 161.469 209.28 161.469 211.4Z" fill="#C53F3F"/>
<path opacity="0.6" d="M161.469 211.4C161.469 213.51 158.659 215.23 155.199 215.23C151.739 215.23 148.939 213.51 148.939 211.4C148.939 209.29 151.739 207.57 155.199 207.57C158.659 207.57 161.469 209.28 161.469 211.4Z" fill="white"/>
<path d="M122.469 213.14C122.469 215.25 119.669 216.97 116.209 216.97C112.749 216.97 109.939 215.25 109.939 213.14C109.939 211.03 112.749 209.31 116.209 209.31C119.669 209.31 122.469 211 122.469 213.14Z" fill="#C53F3F"/>
<path opacity="0.6" d="M122.469 213.14C122.469 215.25 119.669 216.97 116.209 216.97C112.749 216.97 109.939 215.25 109.939 213.14C109.939 211.03 112.749 209.31 116.209 209.31C119.669 209.31 122.469 211 122.469 213.14Z" fill="white"/>
<path d="M131.6 214.73C127.23 215.322 122.979 216.59 119 218.49C106.63 224.91 106.61 218.7 105.24 220.41C103.87 222.12 113.24 233.16 121.39 232.14C129.54 231.12 134.67 224 134.67 224C134.67 224 143.13 231.89 152.67 231.89C162.21 231.89 168.62 219 168.62 219C162.549 219.127 156.498 218.255 150.71 216.42C144.518 214.579 138.019 214.005 131.6 214.73V214.73Z" fill="white" stroke="#263238" stroke-miterlimit="10" stroke-linecap="round"/>
<path d="M139.11 213.37C139.154 214.367 138.899 215.355 138.377 216.205C137.855 217.056 137.09 217.731 136.181 218.143C135.272 218.556 134.261 218.687 133.277 218.519C132.293 218.352 131.382 217.894 130.66 217.204C129.939 216.515 129.44 215.625 129.229 214.649C129.017 213.674 129.103 212.658 129.474 211.731C129.845 210.805 130.485 210.01 131.311 209.451C132.137 208.891 133.112 208.591 134.11 208.59C134.753 208.573 135.393 208.683 135.993 208.914C136.593 209.146 137.142 209.494 137.606 209.938C138.071 210.383 138.444 210.915 138.702 211.504C138.96 212.093 139.099 212.727 139.11 213.37Z" fill="#C53F3F" stroke="#263238" stroke-miterlimit="10" stroke-linecap="round"/>
<path d="M127.16 206C127.16 207.6 126.4 208.9 125.46 208.9C124.52 208.9 123.75 207.6 123.75 206C123.75 204.4 124.51 203.1 125.46 203.1C126.41 203.1 127.16 204.43 127.16 206Z" fill="#263238"/>
<path d="M144.57 205.69C144.57 207.29 143.81 208.59 142.86 208.59C141.91 208.59 141.16 207.29 141.16 205.69C141.16 204.09 141.92 202.79 142.86 202.79C143.8 202.79 144.57 204.09 144.57 205.69Z" fill="#263238"/>
<path d="M147.299 208.93C147.299 208.93 152.079 206.2 156.859 206.2" stroke="#263238" stroke-miterlimit="10" stroke-linecap="round"/>
<path d="M114.539 206.89C114.539 206.89 119.999 208.59 121.699 209.96" stroke="#263238" stroke-miterlimit="10" stroke-linecap="round"/>
<path d="M93.2891 170.24C93.2891 170.24 99.4491 160.1 107.379 154.38C115.309 148.66 120.159 147.38 125.449 141.6C130.739 135.82 136.899 138.08 150.119 139.84C163.339 141.6 179.629 143.84 182.719 149.09C185.809 154.34 187.999 163.19 194.169 181.25C200.339 199.31 204.739 214.25 206.509 219.58C208.279 224.91 206.509 225.75 204.739 225.75C202.969 225.75 190.649 203.28 184.919 193.15C179.189 183.02 175.229 178.61 175.229 178.61C175.229 178.61 167.299 179.93 149.229 181.69C131.159 183.45 117.509 184.78 106.489 180.81C95.4691 176.84 93.2891 170.24 93.2891 170.24Z" fill="#C53F3F" stroke="#263238" stroke-miterlimit="10" stroke-linecap="round"/>
<path d="M151.389 146.9C149.849 145.35 148.789 144.25 148.789 144.25" stroke="#263238" stroke-miterlimit="10" stroke-linecap="round"/>
<path d="M171.26 163.19C171.26 163.19 165.54 158.78 161.57 156.14C159.449 154.573 157.444 152.856 155.57 151" stroke="#263238" stroke-miterlimit="10" stroke-linecap="round"/>
<path d="M93.2892 170.24C93.2892 170.24 92.8491 188.3 94.1691 191.82C95.4891 195.34 107.819 199.31 124.169 199.75C140.519 200.19 162.939 194.91 169.109 192.26C175.279 189.61 177.479 187.86 177.919 184.78C178.359 181.7 175.279 169.36 174.399 166.71C174.151 165.944 173.749 165.236 173.218 164.631C172.686 164.025 172.037 163.535 171.309 163.19C171.309 163.19 146.199 173.76 121.529 173.76C96.8591 173.76 96.8592 168.48 96.8592 168.48C96.8592 168.48 92.8492 166.71 93.2892 170.24Z" fill="white" stroke="#263238" stroke-miterlimit="10" stroke-linecap="round"/>
<path d="M119.42 198.34C119.42 198.34 123.9 194.17 128.71 197.34" stroke="#263238" stroke-miterlimit="10" stroke-linecap="round"/>
<path d="M137.68 197.37C137.68 197.37 142.16 193.21 146.97 196.37" stroke="#263238" stroke-miterlimit="10" stroke-linecap="round"/>
<path d="M204.74 225.75C204.74 225.75 202.1 231.03 202.54 235.88C202.98 240.73 206.07 245.57 210.47 245.57C214.87 245.57 223.25 242.93 224.57 236.76C225.89 230.59 222.81 228 218 224.42C213.19 220.84 204.74 225.75 204.74 225.75Z" fill="white" stroke="#263238" stroke-miterlimit="10" stroke-linecap="round"/>
<path d="M443.85 233.84H715" stroke="#263238" stroke-linecap="round" stroke-linejoin="round"/>
<path d="M419.15 233.84H441.27" stroke="#263238" stroke-linecap="round" stroke-linejoin="round"/>
<path d="M428.801 238.84H715.001" stroke="#263238" stroke-linecap="round" stroke-linejoin="round"/>
<path d="M419.15 238.84H423" stroke="#263238" stroke-linecap="round" stroke-linejoin="round"/>
<path d="M486.941 76.5039L492.191 77.2039C493.941 77.4439 495.701 77.5839 497.451 77.7839C511.498 79.2419 525.609 79.9862 539.731 80.0139C553.851 80.0139 567.961 79.3539 582.041 78.2839C610.199 75.844 638.181 71.6862 665.831 65.8339C672.721 64.2839 679.631 62.8339 686.501 61.1939C693.371 59.5539 700.221 57.8439 707.051 56.0539C713.881 54.2639 720.641 52.3639 727.431 50.4439L737.591 47.4439L742.671 45.9339L745.231 45.1739L746.511 44.7939L747.151 44.6039L747.471 44.5039C747.571 44.5039 747.691 44.4039 747.781 44.5039" stroke="#263238" stroke-linecap="round" stroke-linejoin="round"/>
<path d="M445.772 58.294C445.681 58.6983 445.436 59.0511 445.088 59.2771C444.741 59.5031 444.319 59.5846 443.912 59.504C443.547 59.3374 443.261 59.0367 443.112 58.6643C442.963 58.2918 442.963 57.8763 443.112 57.504C443.206 57.101 443.452 56.7498 443.798 56.5242C444.145 56.2986 444.566 56.2161 444.972 56.294C445.332 56.4662 445.614 56.7674 445.762 57.1379C445.911 57.5084 445.914 57.9211 445.772 58.294Z" fill="white"/>
<path d="M518.552 79.174L515.702 79.044L514.572 74.324L520.192 74.594L518.552 79.174Z" fill="#263238"/>
<path d="M521.273 71.874C521.133 75.114 519.403 74.874 517.273 74.784C515.143 74.694 513.403 74.714 513.613 71.474C513.763 69.194 515.873 65.984 517.073 64.244C517.163 64.1176 517.283 64.0157 517.423 63.9477C517.562 63.8797 517.717 63.8477 517.872 63.8547C518.027 63.8617 518.178 63.9073 518.311 63.9876C518.444 64.0678 518.555 64.18 518.633 64.314C519.633 66.134 521.373 69.584 521.273 71.874Z" fill="#087527"/>
<path d="M517.602 70.364C517.611 70.7836 517.456 71.1902 517.171 71.498C516.885 71.8058 516.492 71.9908 516.072 72.014C515.868 71.9835 515.672 71.9129 515.495 71.8063C515.318 71.6998 515.163 71.5593 515.041 71.393C514.918 71.2267 514.83 71.0379 514.78 70.8373C514.731 70.6366 514.721 70.4282 514.752 70.224C514.747 69.8087 514.902 69.4072 515.185 69.1035C515.468 68.7997 515.858 68.6172 516.272 68.594C516.683 68.6535 517.053 68.873 517.303 69.2046C517.552 69.5363 517.66 69.9531 517.602 70.364V70.364Z" fill="white"/>
<path d="M549.922 80.364C550.872 80.364 551.822 80.364 552.782 80.364L554.332 84.964C552.412 85.054 550.492 85.054 548.572 85.074L549.922 80.364Z" fill="#263238"/>
<path d="M547.633 87.8039C547.633 84.5639 549.363 84.6939 551.553 84.6739C553.743 84.6539 555.493 84.3839 555.553 87.6739C555.633 89.9639 553.723 93.4039 552.553 95.2239C552.462 95.3642 552.338 95.4796 552.191 95.5595C552.044 95.6394 551.88 95.6813 551.713 95.6813C551.546 95.6813 551.381 95.6394 551.235 95.5595C551.088 95.4796 550.963 95.3642 550.873 95.2239C549.723 93.4439 547.663 90.0939 547.633 87.8039Z" fill="#087527"/>
<path d="M551.552 89.154C551.507 88.7244 551.635 88.2946 551.906 87.959C552.178 87.6234 552.572 87.4094 553.002 87.364C553.211 87.373 553.416 87.4231 553.605 87.5114C553.795 87.5998 553.965 87.7246 554.106 87.8788C554.247 88.033 554.357 88.2135 554.428 88.41C554.499 88.6065 554.531 88.8152 554.522 89.024C554.558 89.4472 554.428 89.8679 554.159 90.1966C553.89 90.5253 553.504 90.7361 553.082 90.784C552.664 90.7658 552.271 90.5851 551.985 90.2805C551.699 89.976 551.544 89.5717 551.552 89.154V89.154Z" fill="white"/>
<path d="M593.702 76.9538L590.862 77.2138L589.012 72.7138L594.642 72.1938L593.702 76.9538Z" fill="#263238"/>
<path d="M595.313 69.3639C595.653 72.5839 593.903 72.6039 591.763 72.7939C589.623 72.9839 587.903 73.2939 587.613 70.0739C587.403 67.7939 589.003 64.2639 589.943 62.3939C590.025 62.2646 590.136 62.1559 590.267 62.0762C590.398 61.9966 590.545 61.9481 590.698 61.9346C590.851 61.921 591.005 61.9428 591.148 61.9982C591.29 62.0536 591.419 62.1411 591.523 62.2539C592.833 63.9039 595.063 67.0739 595.313 69.3639Z" fill="#087527"/>
<path d="M591.412 68.3639C591.449 68.5676 591.446 68.7766 591.402 68.979C591.359 69.1813 591.275 69.3731 591.157 69.5432C591.039 69.7133 590.889 69.8583 590.714 69.97C590.54 70.0817 590.345 70.1578 590.142 70.1939C589.799 70.2868 589.436 70.272 589.102 70.1517C588.769 70.0314 588.48 69.8114 588.275 69.5215C588.071 69.2315 587.96 68.8857 587.959 68.5309C587.958 68.176 588.065 67.8294 588.268 67.5378C588.47 67.2463 588.757 67.0241 589.09 66.9012C589.423 66.7783 589.785 66.7608 590.129 66.851C590.472 66.9412 590.779 67.1347 591.008 67.4053C591.238 67.676 591.379 68.0106 591.412 68.3639Z" fill="white"/>
<path d="M624.933 73.6839L627.763 73.2739L629.893 77.6639L624.213 78.4939L624.933 73.6839Z" fill="#263238"/>
<path d="M623.653 81.3639C623.183 78.1639 624.943 78.044 627.103 77.734C629.263 77.424 630.983 77.0139 631.493 80.2039C631.853 82.4739 630.423 86.104 629.493 88.024C629.422 88.1714 629.316 88.2991 629.184 88.396C629.052 88.4929 628.898 88.556 628.737 88.5797C628.575 88.6034 628.409 88.587 628.255 88.5319C628.101 88.4769 627.963 88.3849 627.853 88.264C626.443 86.684 623.983 83.6339 623.653 81.3639Z" fill="#087527"/>
<path d="M627.693 82.184C627.601 81.7729 627.675 81.3419 627.9 80.9857C628.125 80.6294 628.482 80.377 628.893 80.284C629.317 80.2563 629.734 80.3958 630.056 80.6725C630.377 80.9493 630.577 81.3412 630.613 81.764C630.66 81.9676 630.667 82.1785 630.632 82.3846C630.597 82.5907 630.521 82.7878 630.41 82.9645C630.298 83.1412 630.153 83.2941 629.982 83.4141C629.81 83.5342 629.617 83.6191 629.413 83.664C628.989 83.6943 628.57 83.5557 628.248 83.2785C627.926 83.0012 627.726 82.6078 627.693 82.184V82.184Z" fill="white"/>
<path d="M668.003 65.1039L665.223 65.7139L662.883 61.4339C664.733 61.0939 666.573 60.6539 668.423 60.2439L668.003 65.1039Z" fill="#263238"/>
<path d="M668.772 57.364C669.452 60.524 667.722 60.764 665.622 61.234C663.522 61.704 661.832 62.144 661.182 58.974C660.722 56.734 661.932 53.074 662.672 51.104C662.737 50.9651 662.833 50.8431 662.953 50.7473C663.073 50.6516 663.213 50.5847 663.363 50.5518C663.513 50.5189 663.668 50.521 663.817 50.5578C663.966 50.5946 664.104 50.6651 664.222 50.764C665.692 52.224 668.282 55.094 668.772 57.364Z" fill="#087527"/>
<path d="M664.832 56.804C664.897 57.0048 664.921 57.2166 664.902 57.4267C664.884 57.6369 664.823 57.8412 664.724 58.0276C664.625 58.214 664.49 58.3787 664.327 58.5121C664.163 58.6454 663.975 58.7447 663.772 58.804C663.558 58.8332 663.34 58.8188 663.132 58.7615C662.923 58.7043 662.729 58.6054 662.56 58.4708C662.39 58.3362 662.25 58.1687 662.148 57.9785C662.045 57.7883 661.982 57.5792 661.962 57.364C661.885 57.166 661.853 56.9537 661.866 56.7418C661.88 56.5299 661.94 56.3234 662.041 56.137C662.143 55.9505 662.284 55.7884 662.454 55.662C662.625 55.5356 662.821 55.448 663.029 55.4052C663.237 55.3624 663.452 55.3655 663.659 55.4143C663.865 55.4631 664.059 55.5563 664.226 55.6876C664.393 55.8189 664.529 55.985 664.625 56.1743C664.721 56.3637 664.775 56.5717 664.782 56.784L664.832 56.804Z" fill="white"/>
<path d="M698.732 58.6439L701.502 57.9539L704.042 62.1239L698.482 63.4939L698.732 58.6439Z" fill="#263238"/>
<path d="M698.203 66.424C697.423 63.274 699.203 62.994 701.283 62.424C703.363 61.854 705.063 61.344 705.883 64.474C706.453 66.694 705.373 70.424 704.673 72.474C704.616 72.6262 704.523 72.7623 704.402 72.8705C704.281 72.9788 704.136 73.0559 703.978 73.0953C703.821 73.1347 703.656 73.1351 703.498 73.0966C703.34 73.058 703.194 72.9816 703.073 72.874C701.503 71.434 698.763 68.644 698.203 66.424Z" fill="#087527"/>
<path d="M702.292 66.8339C702.162 66.436 702.194 66.0028 702.381 65.6284C702.568 65.254 702.895 64.9685 703.292 64.8339C703.709 64.764 704.137 64.8612 704.483 65.1045C704.83 65.3478 705.066 65.7176 705.142 66.1339C705.208 66.3309 705.234 66.5389 705.219 66.746C705.205 66.9532 705.149 67.1555 705.056 67.3412C704.963 67.527 704.835 67.6926 704.678 67.8286C704.521 67.9646 704.339 68.0684 704.142 68.1339C703.725 68.2011 703.298 68.1029 702.952 67.86C702.607 67.6172 702.37 67.249 702.292 66.8339V66.8339Z" fill="white"/>
<path d="M740.832 46.214L738.102 47.034L735.402 42.974L741.032 41.304C740.847 42.9337 740.78 44.5746 740.832 46.214V46.214Z" fill="#263238"/>
<path d="M741.763 38.2039C741.944 38.763 741.952 39.3638 741.786 39.9276C741.62 40.4914 741.288 40.992 740.833 41.3639C740.456 41.6467 740.042 41.8756 739.603 42.0439C739.163 42.2139 738.673 42.3539 738.153 42.5039C736.093 43.1239 734.453 43.7539 733.543 40.6539C732.893 38.4539 733.793 34.6539 734.363 32.6539C734.416 32.5086 734.503 32.3777 734.616 32.2715C734.729 32.1654 734.865 32.0869 735.013 32.0423C735.161 31.9977 735.318 31.9882 735.471 32.0145C735.623 32.0408 735.768 32.1022 735.893 32.1939C736.293 32.5439 736.773 32.9639 737.273 33.4439L738.033 34.2039C738.333 34.4439 738.783 34.6639 739.113 34.9139C740.38 35.6369 741.326 36.8122 741.763 38.2039V38.2039Z" fill="#087527"/>
<path d="M736.952 38.194C736.987 38.4726 736.941 38.7553 736.82 39.0086C736.699 39.262 736.508 39.4754 736.27 39.6236C736.031 39.7719 735.755 39.8488 735.475 39.8452C735.194 39.8416 734.92 39.7577 734.686 39.6034C734.451 39.4492 734.266 39.2309 734.151 38.9746C734.037 38.7183 733.998 38.4345 734.04 38.1569C734.081 37.8793 734.202 37.6194 734.387 37.408C734.571 37.1966 734.813 37.0425 735.082 36.964C735.493 36.8838 735.919 36.9677 736.268 37.1976C736.618 37.4275 736.863 37.7852 736.952 38.194V38.194Z" fill="white"/>
<path d="M599.751 427.69L585.601 425.42V425.21L584.971 425.31L584.341 425.21V425.42L570.101 427.69L510.471 447.53V451.84H527.031L527.951 448.77L575.061 440.09V451.84H584.341H585.601H594.821V440.09L641.651 448.77L642.561 451.84H659.031V447.53L599.751 427.69Z" fill="#263238" stroke="#263238" stroke-miterlimit="10"/>
<path d="M442 419.29C453.88 420.19 491.76 407.62 491.76 407.62C491.76 407.62 474.27 423.71 460.76 432.62L461.67 432.49C461.67 432.49 460.52 433.09 458.67 433.95C457.23 434.85 455.85 435.65 454.56 436.31C450.09 438.461 445.472 440.289 440.74 441.78C443.3 443.17 449.89 444.53 455.21 444.18C463.98 443.59 479.76 440.09 479.76 440.09C479.76 440.09 467.48 444.76 482.1 444.18C496.72 443.6 511.9 438.33 513.66 437.18C515.42 436.03 502.55 444.78 515.41 444.18C528.27 443.58 558.07 433.66 559.83 433.07C561.59 432.48 558.66 443.59 566.26 442.42C573.86 441.25 584.37 434.24 584.37 434.24C584.37 434.24 585.54 444.18 594.31 442.42C603.08 440.66 601.91 437.16 604.83 437.75C607.75 438.34 615.93 445.35 621.83 444.18C627.73 443.01 627.67 438.92 627.67 438.92C627.67 438.92 638.19 446.52 646.38 444.18C654.57 441.84 654.56 440.09 654.56 440.09C654.56 440.09 684.95 446.52 689.62 444.18C694.29 441.84 684.36 438.92 684.36 438.92C684.36 438.92 722.36 448.27 727.61 448.27C732.86 448.27 722.35 444.18 722.35 444.18C729.605 445.179 736.93 445.567 744.25 445.34C744.51 443.1 732.99 441.07 723.77 436.34C710.28 429.34 686.63 407.62 686.63 407.62C686.63 407.62 724.51 420.19 736.39 419.29C748.27 418.39 743.82 408.52 724.51 396.85C708.1 386.94 687.38 363.65 692.57 366.34C697.76 369.03 720.05 376.21 725.25 370.83C730.45 365.45 704.91 350.83 694.06 343.01C679.21 332.24 675.49 321.47 675.49 321.47C675.49 321.47 694.8 332.24 715.6 332.24C721 332.24 707.43 318.78 691.09 299.93C674.75 281.08 665.09 259.55 665.09 259.55C665.09 259.55 691.09 275.7 696.29 271.22C701.49 266.74 679.21 249.68 665.84 232.63C652.47 215.58 647.27 201.22 647.27 201.22C647.27 201.22 677.72 227.22 685.89 222.75C694.06 218.28 677 212 665.09 193.14C653.18 174.28 647.27 168 647.27 168C647.27 168 664.35 179.67 671.78 173.39C679.21 167.11 663.61 162.62 649.5 145.57C635.39 128.52 631.67 122.23 631.67 122.23C631.67 122.23 650.24 128.51 652.47 123.13C654.7 117.75 642.81 117.74 630.93 108.77C619.05 99.8 613.11 91.77 613.11 91.77C613.11 91.77 619.79 98 628.7 98C637.61 98 626.47 90.82 613.1 69.28C607.471 60.4121 602.725 51.0138 598.93 41.22C595 30.82 589.52 14.57 582 33.73C577.09 46.29 572.23 58.05 565.26 69.29C551.91 90.83 540.77 98 549.68 98C558.59 98 565.28 91.72 565.28 91.72C565.28 91.72 559.33 99.8 547.45 108.72C535.57 117.64 523.68 117.72 525.91 123.08C528.14 128.44 546.71 122.18 546.71 122.18C546.71 122.18 542.99 128.46 528.88 145.52C514.77 162.58 499.18 167.05 506.6 173.34C514.02 179.63 531.11 168 531.11 168C531.11 168 525.17 174.28 513.29 193.13C501.41 211.98 484.29 218.26 492.49 222.74C500.69 227.22 531.11 201.21 531.11 201.21C531.11 201.21 525.91 215.56 512.54 232.62C499.17 249.68 476.89 266.72 482.09 271.21C487.29 275.7 513.29 259.54 513.29 259.54C513.29 259.54 503.63 281.08 487.29 299.92C470.95 318.76 457.38 332.23 462.78 332.23C483.58 332.23 502.89 321.46 502.89 321.46C502.89 321.46 499.18 332.24 484.32 343C473.48 350.86 447.93 365.43 453.13 370.82C458.33 376.21 480.61 369.02 485.81 366.33C491.01 363.64 470.28 386.93 453.87 396.84C434.56 408.52 430.1 418.39 442 419.29Z" fill="#087527"/>
<path d="M570.34 145.77C570.34 148.274 569.597 150.721 568.206 152.803C566.815 154.885 564.838 156.508 562.524 157.466C560.211 158.424 557.665 158.675 555.21 158.187C552.754 157.698 550.498 156.492 548.728 154.722C546.957 152.951 545.751 150.696 545.263 148.24C544.774 145.784 545.025 143.238 545.983 140.925C546.941 138.612 548.564 136.635 550.646 135.243C552.728 133.852 555.176 133.11 557.68 133.11C559.342 133.109 560.989 133.435 562.526 134.071C564.062 134.707 565.459 135.639 566.634 136.815C567.81 137.991 568.743 139.387 569.379 140.924C570.014 142.46 570.341 144.107 570.34 145.77V145.77Z" fill="#263238" stroke="#263238" stroke-linecap="round" stroke-linejoin="round"/>
<path d="M561.169 129.33H554.189V133.89H561.169V129.33Z" fill="#263238"/>
<path d="M557.49 129.06V123.7" stroke="#263238" stroke-linecap="round" stroke-linejoin="round"/>
<path d="M545.15 146.77L551.32 141.67L556.96 147.31L563.66 141.41L568.49 146.5L570.09 145.41" stroke="#087527" stroke-linecap="round" stroke-linejoin="round"/>
<path d="M546.221 150.53L551.321 146.5L556.961 152.14L563.661 146.23L568.491 151.33" stroke="#087527" stroke-linecap="round" stroke-linejoin="round"/>
<path d="M658.11 369.309C663.054 364.365 663.054 356.349 658.11 351.405C653.166 346.461 645.15 346.461 640.206 351.405C635.262 356.349 635.262 364.365 640.206 369.309C645.15 374.253 653.166 374.253 658.11 369.309Z" fill="#263238" stroke="#263238" stroke-linecap="round" stroke-linejoin="round"/>
<path d="M652.65 343.92H645.67V348.48H652.65V343.92Z" fill="#263238"/>
<path d="M648.971 343.66V338.29" stroke="#263238" stroke-linecap="round" stroke-linejoin="round"/>
<path d="M636.631 361.36L642.801 356.26L648.441 361.9L655.141 356L659.971 361.09L661.581 360" stroke="#087527" stroke-linecap="round" stroke-linejoin="round"/>
<path d="M637.699 365.12L642.799 361.09L648.439 366.73L655.139 360.83L659.969 365.92" stroke="#087527" stroke-linecap="round" stroke-linejoin="round"/>
<path d="M633.904 267.89C635.502 261.083 631.279 254.27 624.472 252.672C617.666 251.074 610.852 255.297 609.254 262.104C607.657 268.911 611.879 275.724 618.686 277.322C625.493 278.92 632.307 274.697 633.904 267.89Z" fill="#263238" stroke="#263238" stroke-linecap="round" stroke-linejoin="round"/>
<path d="M625.07 248.56H618.09V253.12H625.07V248.56Z" fill="#263238"/>
<path d="M621.391 248.29V242.92" stroke="#263238" stroke-linecap="round" stroke-linejoin="round"/>
<path d="M609.051 266L615.221 260.9L620.851 266.54L627.561 260.63L632.391 265.73L634.001 264.64" stroke="#087527" stroke-linecap="round" stroke-linejoin="round"/>
<path d="M610.119 269.75L615.219 265.73L620.849 271.36L627.559 265.46L632.389 270.56" stroke="#087527" stroke-linecap="round" stroke-linejoin="round"/>
<path d="M587.15 88.1599C594.142 88.1599 599.81 82.4918 599.81 75.4998C599.81 68.5079 594.142 62.8398 587.15 62.8398C580.158 62.8398 574.49 68.5079 574.49 75.4998C574.49 82.4918 580.158 88.1599 587.15 88.1599Z" fill="white"/>
<path d="M590.64 59.0601H583.66V63.6201H590.64V59.0601Z" fill="#263238"/>
<path d="M586.961 58.7899V53.4299" stroke="#263238" stroke-linecap="round" stroke-linejoin="round"/>
<path d="M574.619 76.4999L580.789 71.3999L586.419 77.0399L593.129 71.1399L597.959 76.2299L599.559 75.1399" stroke="#263238" stroke-linecap="round" stroke-linejoin="round"/>
<path d="M575.689 80.26L580.789 76.23L586.419 81.87L593.129 75.97L597.959 81.06" stroke="#263238" stroke-linecap="round" stroke-linejoin="round"/>
<path d="M578.171 294.088C584.622 291.392 587.666 283.977 584.97 277.525C582.274 271.074 574.859 268.03 568.408 270.726C561.956 273.422 558.912 280.837 561.608 287.288C564.304 293.74 571.719 296.784 578.171 294.088Z" fill="white"/>
<path d="M576.791 265.95H569.811V270.51H576.791V265.95Z" fill="#263238"/>
<path d="M573.109 265.68V260.32" stroke="#263238" stroke-linecap="round" stroke-linejoin="round"/>
<path d="M560.77 283.39L566.94 278.29L572.57 283.93L579.28 278.02L584.11 283.12L585.71 282.03" stroke="#263238" stroke-linecap="round" stroke-linejoin="round"/>
<path d="M561.84 287.15L566.94 283.12L572.57 288.76L579.28 282.85L584.11 287.95" stroke="#263238" stroke-linecap="round" stroke-linejoin="round"/>
<path d="M584.02 204.667C590.471 201.971 593.516 194.556 590.82 188.105C588.124 181.653 580.708 178.609 574.257 181.305C567.806 184.001 564.762 191.416 567.458 197.868C570.154 204.319 577.569 207.363 584.02 204.667Z" fill="white"/>
<path d="M582.64 176.53H575.66V181.09H582.64V176.53Z" fill="#263238"/>
<path d="M578.949 176.26V170.9" stroke="#263238" stroke-linecap="round" stroke-linejoin="round"/>
<path d="M566.609 193.97L572.779 188.87L578.419 194.51L585.129 188.6L589.959 193.7L591.559 192.61" stroke="#263238" stroke-linecap="round" stroke-linejoin="round"/>
<path d="M567.689 197.72L572.779 193.7L578.419 199.34L585.129 193.43L589.959 198.53" stroke="#263238" stroke-linecap="round" stroke-linejoin="round"/>
<path d="M523.87 384.269C524.983 377.366 520.289 370.868 513.387 369.755C506.484 368.642 499.986 373.336 498.873 380.239C497.76 387.141 502.453 393.639 509.356 394.752C516.259 395.865 522.757 391.172 523.87 384.269Z" fill="white"/>
<path d="M514.861 365.82H507.881V370.38H514.861V365.82Z" fill="#263238"/>
<path d="M511.18 365.55V360.19" stroke="#263238" stroke-linecap="round" stroke-linejoin="round"/>
<path d="M498.83 383.26L505.01 378.16L510.64 383.8L517.35 377.89L522.18 382.99L523.78 381.9" stroke="#263238" stroke-linecap="round" stroke-linejoin="round"/>
<path d="M499.91 387.02L505.01 382.99L510.64 388.63L517.35 382.72L522.18 387.82" stroke="#263238" stroke-linecap="round" stroke-linejoin="round"/>
<path d="M623.207 395.953C624.331 389.052 619.648 382.546 612.747 381.422C605.846 380.299 599.341 384.982 598.217 391.883C597.093 398.784 601.776 405.289 608.677 406.413C615.578 407.537 622.083 402.854 623.207 395.953Z" fill="white"/>
<path d="M614.22 377.51H607.24V382.07H614.22V377.51Z" fill="#263238"/>
<path d="M610.529 377.24V371.88" stroke="#263238" stroke-linecap="round" stroke-linejoin="round"/>
<path d="M598.189 394.95L604.359 389.85L609.999 395.49L616.699 389.58L621.529 394.68L623.139 393.59" stroke="#263238" stroke-linecap="round" stroke-linejoin="round"/>
<path d="M599.26 398.7L604.36 394.68L610 400.31L616.7 394.41L621.53 399.51" stroke="#263238" stroke-linecap="round" stroke-linejoin="round"/>
<path d="M578.436 376.828C580.033 370.021 575.811 363.207 569.004 361.61C562.197 360.012 555.383 364.235 553.786 371.041C552.188 377.848 556.411 384.662 563.218 386.26C570.024 387.857 576.838 383.635 578.436 376.828Z" fill="#263238" stroke="#263238" stroke-linecap="round" stroke-linejoin="round"/>
<path d="M569.611 357.49H562.631V362.05H569.611V357.49Z" fill="#263238"/>
<path d="M565.92 357.23V351.86" stroke="#263238" stroke-linecap="round" stroke-linejoin="round"/>
<path d="M565.58 369.43C565.582 370.148 565.371 370.851 564.973 371.449C564.576 372.048 564.01 372.515 563.346 372.791C562.683 373.067 561.953 373.14 561.248 373.002C560.543 372.863 559.896 372.518 559.387 372.01C558.878 371.503 558.532 370.856 558.391 370.152C558.25 369.447 558.321 368.717 558.596 368.053C558.87 367.389 559.335 366.822 559.933 366.423C560.53 366.023 561.232 365.81 561.95 365.81C562.911 365.81 563.833 366.191 564.514 366.87C565.194 367.548 565.578 368.469 565.58 369.43V369.43Z" fill="#087527"/>
<path d="M573.361 368.23C573.361 368.655 573.234 369.071 572.998 369.424C572.762 369.778 572.426 370.053 572.033 370.216C571.64 370.379 571.208 370.422 570.791 370.339C570.374 370.256 569.991 370.051 569.69 369.75C569.39 369.449 569.185 369.066 569.102 368.649C569.019 368.232 569.061 367.8 569.224 367.407C569.387 367.014 569.662 366.678 570.016 366.442C570.37 366.206 570.785 366.08 571.211 366.08C571.493 366.079 571.773 366.133 572.035 366.241C572.296 366.348 572.534 366.507 572.734 366.707C572.934 366.907 573.092 367.144 573.2 367.406C573.307 367.667 573.362 367.947 573.361 368.23V368.23Z" fill="#087527"/>
<path d="M560.209 378.15C560.209 378.522 560.099 378.885 559.892 379.194C559.686 379.504 559.392 379.745 559.049 379.887C558.705 380.029 558.327 380.066 557.962 379.994C557.598 379.921 557.263 379.742 557 379.479C556.737 379.216 556.558 378.881 556.485 378.517C556.413 378.152 556.45 377.774 556.592 377.431C556.735 377.087 556.976 376.793 557.285 376.587C557.594 376.38 557.957 376.27 558.329 376.27C558.828 376.27 559.306 376.468 559.659 376.821C560.011 377.173 560.209 377.651 560.209 378.15V378.15Z" fill="#087527"/>
<path d="M573.63 378.82C573.632 379.485 573.437 380.136 573.069 380.689C572.701 381.243 572.177 381.675 571.563 381.931C570.949 382.187 570.273 382.255 569.621 382.127C568.968 381.998 568.369 381.679 567.898 381.209C567.427 380.74 567.106 380.141 566.975 379.489C566.845 378.837 566.911 378.161 567.165 377.546C567.419 376.932 567.85 376.407 568.402 376.037C568.955 375.667 569.605 375.47 570.27 375.47C571.16 375.47 572.013 375.823 572.642 376.451C573.272 377.079 573.627 377.931 573.63 378.82V378.82Z" fill="#087527"/>
<path d="M564.5 382.31C564.5 382.55 564.429 382.784 564.295 382.983C564.162 383.182 563.972 383.337 563.751 383.429C563.529 383.52 563.285 383.543 563.05 383.496C562.815 383.448 562.6 383.332 562.431 383.162C562.262 382.992 562.148 382.775 562.102 382.54C562.057 382.304 562.082 382.061 562.175 381.84C562.268 381.619 562.425 381.431 562.625 381.299C562.825 381.167 563.06 381.098 563.3 381.1C563.619 381.103 563.924 381.231 564.149 381.458C564.374 381.684 564.5 381.991 564.5 382.31V382.31Z" fill="#087527"/>
<path d="M576.839 373.73C576.841 374.075 576.741 374.412 576.551 374.699C576.361 374.987 576.09 375.211 575.772 375.345C575.454 375.478 575.104 375.514 574.766 375.448C574.428 375.382 574.117 375.217 573.873 374.974C573.628 374.731 573.461 374.421 573.394 374.083C573.326 373.745 573.359 373.395 573.491 373.076C573.622 372.758 573.845 372.486 574.132 372.294C574.418 372.102 574.755 372 575.099 372C575.559 372 576 372.182 576.326 372.506C576.652 372.83 576.837 373.27 576.839 373.73V373.73Z" fill="#087527"/>
<path d="M614.758 117.115C615.334 110.146 610.151 104.031 603.183 103.456C596.215 102.88 590.1 108.063 589.524 115.031C588.949 121.999 594.131 128.115 601.099 128.69C608.068 129.265 614.183 124.083 614.758 117.115Z" fill="white"/>
<path d="M605.64 99.6399H598.66V104.2H605.64V99.6399Z" fill="#263238"/>
<path d="M601.961 99.37V94" stroke="#263238" stroke-linecap="round" stroke-linejoin="round"/>
<path d="M601.611 111.58C601.619 112.298 601.413 113.002 601.02 113.603C600.626 114.204 600.063 114.674 599.402 114.954C598.74 115.234 598.011 115.31 597.306 115.175C596.601 115.039 595.952 114.696 595.442 114.19C594.932 113.685 594.584 113.039 594.442 112.335C594.301 111.631 594.371 110.901 594.646 110.237C594.92 109.574 595.385 109.006 595.983 108.608C596.58 108.21 597.283 107.998 598.001 108C598.952 108.003 599.865 108.38 600.54 109.05C601.216 109.72 601.6 110.629 601.611 111.58V111.58Z" stroke="#263238" stroke-linecap="round" stroke-linejoin="round"/>
<path d="M609.39 110.37C609.39 110.796 609.263 111.212 609.027 111.565C608.79 111.919 608.454 112.195 608.06 112.357C607.667 112.52 607.234 112.562 606.817 112.478C606.399 112.394 606.016 112.188 605.716 111.887C605.416 111.585 605.212 111.201 605.13 110.783C605.048 110.366 605.092 109.933 605.256 109.54C605.421 109.148 605.698 108.812 606.053 108.577C606.408 108.342 606.824 108.218 607.25 108.22C607.532 108.22 607.811 108.276 608.071 108.384C608.331 108.492 608.568 108.651 608.767 108.85C608.965 109.05 609.123 109.287 609.23 109.548C609.337 109.809 609.391 110.088 609.39 110.37V110.37Z" stroke="#263238" stroke-linecap="round" stroke-linejoin="round"/>
<path d="M596.25 120.3C596.25 120.672 596.14 121.035 595.933 121.344C595.727 121.654 595.433 121.895 595.09 122.037C594.746 122.179 594.368 122.216 594.003 122.144C593.639 122.071 593.304 121.892 593.041 121.629C592.778 121.366 592.599 121.031 592.526 120.667C592.454 120.302 592.491 119.924 592.633 119.58C592.776 119.237 593.017 118.943 593.326 118.737C593.635 118.53 593.998 118.42 594.37 118.42C594.869 118.42 595.347 118.618 595.7 118.971C596.052 119.323 596.25 119.801 596.25 120.3V120.3Z" stroke="#263238" stroke-linecap="round" stroke-linejoin="round"/>
<path d="M609.659 121C609.659 121.665 609.462 122.315 609.092 122.868C608.723 123.42 608.197 123.851 607.583 124.105C606.968 124.359 606.292 124.425 605.64 124.295C604.988 124.164 604.39 123.843 603.92 123.372C603.451 122.901 603.131 122.302 603.003 121.649C602.874 120.997 602.942 120.321 603.198 119.707C603.454 119.093 603.886 118.569 604.44 118.201C604.994 117.833 605.644 117.638 606.309 117.64C606.75 117.64 607.187 117.727 607.594 117.896C608.001 118.065 608.371 118.312 608.682 118.625C608.993 118.937 609.24 119.307 609.407 119.715C609.575 120.122 609.661 120.559 609.659 121V121Z" stroke="#263238" stroke-linecap="round" stroke-linejoin="round"/>
<path d="M600.539 124.46C600.539 124.699 600.468 124.933 600.335 125.132C600.202 125.331 600.013 125.486 599.792 125.578C599.571 125.669 599.328 125.693 599.093 125.647C598.858 125.6 598.643 125.485 598.474 125.316C598.304 125.146 598.189 124.931 598.142 124.696C598.096 124.461 598.12 124.218 598.211 123.997C598.303 123.776 598.458 123.587 598.657 123.454C598.856 123.321 599.09 123.25 599.329 123.25C599.65 123.25 599.958 123.377 600.185 123.604C600.412 123.831 600.539 124.139 600.539 124.46Z" stroke="#263238" stroke-linecap="round" stroke-linejoin="round"/>
<path d="M612.881 115.87C612.883 116.217 612.782 116.557 612.59 116.846C612.399 117.135 612.125 117.361 611.805 117.495C611.485 117.628 611.132 117.664 610.792 117.597C610.452 117.53 610.139 117.363 609.893 117.117C609.648 116.872 609.481 116.559 609.414 116.219C609.347 115.878 609.382 115.526 609.516 115.206C609.65 114.885 609.876 114.612 610.165 114.421C610.454 114.229 610.794 114.128 611.141 114.13C611.602 114.13 612.045 114.313 612.371 114.64C612.698 114.966 612.881 115.408 612.881 115.87Z" stroke="#263238" stroke-linecap="round" stroke-linejoin="round"/>
<path d="M563.679 235.15C563.679 237.653 562.937 240.1 561.547 242.181C560.157 244.263 558.181 245.886 555.869 246.844C553.557 247.803 551.012 248.055 548.557 247.568C546.102 247.081 543.846 245.878 542.074 244.109C540.303 242.34 539.096 240.087 538.605 237.632C538.114 235.178 538.362 232.633 539.317 230.319C540.272 228.005 541.892 226.027 543.971 224.633C546.051 223.24 548.496 222.494 550.999 222.49C552.664 222.487 554.312 222.813 555.85 223.448C557.389 224.083 558.787 225.015 559.964 226.191C561.142 227.367 562.076 228.763 562.714 230.301C563.351 231.838 563.679 233.486 563.679 235.15V235.15Z" fill="white"/>
<path d="M554.519 218.71H547.539V223.27H554.519V218.71Z" fill="#263238"/>
<path d="M550.83 218.45V213.08" stroke="#263238" stroke-linecap="round" stroke-linejoin="round"/>
<path d="M550.49 230.65C550.492 231.369 550.281 232.072 549.883 232.671C549.485 233.269 548.918 233.736 548.254 234.012C547.591 234.288 546.86 234.361 546.155 234.221C545.45 234.081 544.802 233.735 544.294 233.227C543.785 232.719 543.439 232.071 543.3 231.366C543.16 230.661 543.233 229.93 543.509 229.266C543.785 228.603 544.252 228.036 544.85 227.638C545.448 227.24 546.152 227.028 546.87 227.03C547.831 227.03 548.751 227.411 549.43 228.09C550.109 228.769 550.49 229.69 550.49 230.65Z" stroke="#263238" stroke-linecap="round" stroke-linejoin="round"/>
<path d="M558.271 229.45C558.271 229.875 558.145 230.291 557.908 230.644C557.672 230.998 557.336 231.273 556.943 231.436C556.551 231.599 556.118 231.641 555.701 231.559C555.284 231.476 554.901 231.271 554.6 230.97C554.3 230.669 554.095 230.286 554.012 229.869C553.929 229.452 553.972 229.02 554.134 228.627C554.297 228.234 554.573 227.898 554.926 227.662C555.28 227.426 555.695 227.3 556.121 227.3C556.403 227.299 556.684 227.353 556.945 227.461C557.206 227.568 557.444 227.727 557.644 227.927C557.844 228.127 558.002 228.364 558.11 228.625C558.217 228.887 558.272 229.167 558.271 229.45V229.45Z" stroke="#263238" stroke-linecap="round" stroke-linejoin="round"/>
<path d="M545.119 239.37C545.119 239.742 545.009 240.105 544.803 240.414C544.596 240.724 544.302 240.965 543.959 241.107C543.615 241.249 543.237 241.286 542.873 241.214C542.508 241.141 542.173 240.962 541.91 240.699C541.647 240.436 541.468 240.101 541.395 239.737C541.323 239.372 541.36 238.994 541.502 238.651C541.645 238.307 541.886 238.013 542.195 237.807C542.504 237.6 542.868 237.49 543.239 237.49C543.738 237.49 544.216 237.688 544.569 238.041C544.921 238.393 545.119 238.871 545.119 239.37V239.37Z" stroke="#263238" stroke-linecap="round" stroke-linejoin="round"/>
<path d="M558.54 240C558.542 240.665 558.347 241.315 557.979 241.869C557.611 242.423 557.087 242.855 556.473 243.111C555.859 243.367 555.183 243.435 554.531 243.307C553.879 243.178 553.279 242.859 552.808 242.389C552.337 241.92 552.016 241.321 551.886 240.669C551.755 240.017 551.821 239.341 552.075 238.726C552.329 238.112 552.76 237.587 553.313 237.217C553.865 236.847 554.515 236.65 555.18 236.65C556.07 236.65 556.923 237.003 557.553 237.63C558.182 238.258 558.538 239.111 558.54 240V240Z" stroke="#263238" stroke-linecap="round" stroke-linejoin="round"/>
<path d="M549.41 243.53C549.41 243.77 549.339 244.004 549.206 244.203C549.072 244.402 548.883 244.557 548.661 244.649C548.439 244.74 548.195 244.763 547.96 244.716C547.725 244.668 547.51 244.552 547.341 244.382C547.172 244.212 547.058 243.995 547.012 243.76C546.967 243.524 546.992 243.281 547.085 243.06C547.178 242.839 547.335 242.651 547.535 242.519C547.736 242.387 547.971 242.318 548.21 242.32C548.529 242.323 548.835 242.451 549.059 242.678C549.284 242.904 549.41 243.211 549.41 243.53V243.53Z" stroke="#263238" stroke-linecap="round" stroke-linejoin="round"/>
<path d="M561.761 235C561.751 235.343 561.641 235.676 561.443 235.957C561.245 236.238 560.969 236.454 560.649 236.58C560.329 236.705 559.979 236.733 559.644 236.661C559.308 236.588 559.001 236.419 558.76 236.173C558.52 235.928 558.358 235.617 558.293 235.279C558.228 234.942 558.264 234.593 558.397 234.276C558.529 233.959 558.752 233.688 559.037 233.496C559.322 233.305 559.657 233.202 560.001 233.2C560.236 233.197 560.47 233.242 560.687 233.332C560.905 233.422 561.102 233.555 561.266 233.723C561.431 233.892 561.559 234.091 561.644 234.311C561.729 234.53 561.769 234.765 561.761 235V235Z" stroke="#263238" stroke-linecap="round" stroke-linejoin="round"/>
<path d="M528.28 331.053C534.731 328.357 537.775 320.942 535.08 314.49C532.384 308.039 524.968 304.995 518.517 307.691C512.066 310.387 509.021 317.802 511.717 324.253C514.413 330.705 521.829 333.749 528.28 331.053Z" fill="#263238" stroke="#263238" stroke-linecap="round" stroke-linejoin="round"/>
<path d="M526.91 302.91H519.93V307.47H526.91V302.91Z" fill="#263238"/>
<path d="M523.23 302.64V297.28" stroke="#263238" stroke-linecap="round" stroke-linejoin="round"/>
<path d="M522.881 314.85C522.881 315.566 522.668 316.266 522.271 316.861C521.873 317.456 521.307 317.92 520.646 318.194C519.984 318.468 519.257 318.54 518.554 318.4C517.852 318.261 517.207 317.916 516.701 317.41C516.195 316.903 515.85 316.258 515.71 315.556C515.571 314.854 515.642 314.126 515.916 313.465C516.19 312.803 516.654 312.238 517.249 311.84C517.845 311.442 518.545 311.23 519.261 311.23C520.221 311.23 521.141 311.611 521.82 312.29C522.499 312.969 522.881 313.89 522.881 314.85V314.85Z" fill="#087527"/>
<path d="M530.659 313.64C530.661 314.066 530.537 314.483 530.301 314.838C530.066 315.193 529.73 315.47 529.337 315.634C528.943 315.798 528.51 315.842 528.092 315.759C527.674 315.677 527.29 315.472 526.989 315.17C526.688 314.869 526.483 314.485 526.4 314.067C526.318 313.649 526.361 313.216 526.525 312.823C526.689 312.429 526.966 312.094 527.321 311.858C527.676 311.623 528.093 311.498 528.519 311.5C529.087 311.5 529.631 311.725 530.033 312.127C530.434 312.528 530.659 313.072 530.659 313.64Z" fill="#087527"/>
<path d="M517.52 323.57C517.52 323.942 517.41 324.305 517.203 324.614C516.996 324.924 516.703 325.165 516.359 325.307C516.016 325.449 515.638 325.486 515.273 325.414C514.908 325.341 514.573 325.162 514.31 324.899C514.047 324.636 513.868 324.301 513.796 323.937C513.723 323.572 513.761 323.194 513.903 322.85C514.045 322.507 514.286 322.213 514.595 322.007C514.904 321.8 515.268 321.69 515.64 321.69C516.138 321.69 516.617 321.888 516.969 322.241C517.322 322.593 517.52 323.071 517.52 323.57V323.57Z" fill="#087527"/>
<path d="M530.931 324.24C530.933 324.905 530.737 325.556 530.369 326.11C530 326.664 529.476 327.097 528.861 327.352C528.247 327.608 527.571 327.675 526.918 327.546C526.265 327.416 525.666 327.096 525.195 326.626C524.725 326.155 524.404 325.556 524.275 324.903C524.146 324.25 524.213 323.574 524.469 322.959C524.724 322.345 525.156 321.82 525.71 321.452C526.265 321.084 526.916 320.888 527.581 320.89C528.469 320.893 529.319 321.246 529.947 321.874C530.574 322.502 530.928 323.352 530.931 324.24V324.24Z" fill="#087527"/>
<path d="M521.811 327.73C521.811 327.969 521.74 328.203 521.607 328.402C521.474 328.601 521.285 328.756 521.064 328.848C520.843 328.94 520.599 328.963 520.365 328.917C520.13 328.87 519.914 328.755 519.745 328.586C519.576 328.416 519.461 328.201 519.414 327.966C519.367 327.731 519.391 327.488 519.483 327.267C519.574 327.046 519.729 326.857 519.928 326.724C520.127 326.591 520.361 326.52 520.601 326.52C520.922 326.52 521.229 326.648 521.456 326.874C521.683 327.101 521.811 327.409 521.811 327.73Z" fill="#087527"/>
<path d="M532.41 320.88C533.371 320.88 534.15 320.101 534.15 319.14C534.15 318.179 533.371 317.4 532.41 317.4C531.449 317.4 530.67 318.179 530.67 319.14C530.67 320.101 531.449 320.88 532.41 320.88Z" fill="#087527"/>
<path d="M620.08 193.48C627.072 193.48 632.74 187.812 632.74 180.82C632.74 173.828 627.072 168.16 620.08 168.16C613.088 168.16 607.42 173.828 607.42 180.82C607.42 187.812 613.088 193.48 620.08 193.48Z" fill="#263238" stroke="#263238" stroke-linecap="round" stroke-linejoin="round"/>
<path d="M623.57 164.38H616.59V168.94H623.57V164.38Z" fill="#263238"/>
<path d="M619.881 164.11V158.75" stroke="#263238" stroke-linecap="round" stroke-linejoin="round"/>
<path d="M619.539 176.32C619.541 177.039 619.33 177.742 618.932 178.34C618.534 178.939 617.967 179.406 617.303 179.682C616.639 179.958 615.909 180.03 615.204 179.891C614.498 179.751 613.851 179.405 613.343 178.897C612.834 178.388 612.488 177.741 612.349 177.036C612.209 176.331 612.282 175.6 612.558 174.936C612.834 174.272 613.3 173.706 613.899 173.308C614.497 172.909 615.2 172.698 615.919 172.7C616.879 172.7 617.8 173.081 618.479 173.76C619.158 174.439 619.539 175.36 619.539 176.32V176.32Z" fill="#087527"/>
<path d="M627.32 175.11C627.321 175.536 627.197 175.952 626.962 176.307C626.727 176.662 626.392 176.939 625.999 177.103C625.607 177.268 625.174 177.312 624.756 177.23C624.339 177.148 623.954 176.944 623.653 176.644C623.351 176.344 623.145 175.96 623.062 175.543C622.978 175.126 623.02 174.693 623.182 174.3C623.345 173.906 623.62 173.57 623.974 173.333C624.328 173.096 624.744 172.97 625.17 172.97C625.738 172.97 626.283 173.195 626.686 173.596C627.089 173.997 627.317 174.541 627.32 175.11V175.11Z" fill="#087527"/>
<path d="M614.17 185C614.17 185.372 614.06 185.735 613.853 186.044C613.647 186.354 613.353 186.594 613.01 186.737C612.666 186.879 612.288 186.916 611.923 186.844C611.559 186.771 611.224 186.592 610.961 186.329C610.698 186.066 610.519 185.731 610.446 185.367C610.374 185.002 610.411 184.624 610.553 184.28C610.696 183.937 610.937 183.643 611.246 183.437C611.555 183.23 611.918 183.12 612.29 183.12C612.789 183.12 613.267 183.318 613.62 183.671C613.972 184.023 614.17 184.501 614.17 185V185Z" fill="#087527"/>
<path d="M627.589 185.71C627.591 186.375 627.396 187.025 627.028 187.579C626.66 188.133 626.136 188.565 625.522 188.821C624.908 189.077 624.232 189.145 623.58 189.017C622.927 188.888 622.328 188.569 621.857 188.099C621.386 187.63 621.065 187.031 620.934 186.379C620.804 185.727 620.87 185.051 621.124 184.436C621.378 183.822 621.809 183.296 622.361 182.927C622.914 182.557 623.564 182.36 624.229 182.36C624.67 182.359 625.107 182.444 625.514 182.612C625.922 182.78 626.292 183.026 626.604 183.338C626.917 183.649 627.164 184.018 627.333 184.426C627.502 184.833 627.589 185.269 627.589 185.71V185.71Z" fill="#087527"/>
<path d="M618.471 189.2C618.471 189.439 618.4 189.673 618.267 189.872C618.134 190.071 617.945 190.226 617.724 190.318C617.503 190.409 617.259 190.433 617.025 190.387C616.79 190.34 616.574 190.225 616.405 190.056C616.236 189.886 616.121 189.671 616.074 189.436C616.027 189.201 616.051 188.958 616.143 188.737C616.234 188.516 616.39 188.327 616.589 188.194C616.788 188.061 617.021 187.99 617.261 187.99C617.582 187.99 617.889 188.117 618.116 188.344C618.343 188.571 618.471 188.879 618.471 189.2Z" fill="#087527"/>
<path d="M630.811 180.61C630.812 180.956 630.712 181.296 630.52 181.585C630.329 181.874 630.057 182.1 629.737 182.234C629.418 182.368 629.065 182.404 628.725 182.337C628.385 182.271 628.072 182.105 627.827 181.861C627.581 181.617 627.413 181.305 627.345 180.965C627.277 180.625 627.311 180.273 627.443 179.953C627.575 179.632 627.799 179.358 628.087 179.166C628.375 178.973 628.714 178.87 629.061 178.87C629.523 178.87 629.967 179.053 630.294 179.379C630.622 179.705 630.808 180.147 630.811 180.61V180.61Z" fill="#087527"/>
<path d="M636.995 329.292C643.446 326.596 646.49 319.181 643.794 312.73C641.098 306.278 633.683 303.234 627.232 305.93C620.781 308.626 617.736 316.041 620.432 322.493C623.128 328.944 630.544 331.988 636.995 329.292Z" fill="white"/>
<path d="M635.621 301.16H628.641V305.72H635.621V301.16Z" fill="white" stroke="#263238" stroke-linecap="round" stroke-linejoin="round"/>
<path d="M631.939 300.89V295.53" stroke="#263238" stroke-linecap="round" stroke-linejoin="round"/>
<path d="M631.59 313.1C631.59 313.816 631.377 314.516 630.98 315.111C630.582 315.706 630.016 316.17 629.355 316.444C628.693 316.718 627.966 316.79 627.263 316.65C626.561 316.511 625.916 316.166 625.41 315.66C624.904 315.153 624.559 314.508 624.419 313.806C624.279 313.104 624.351 312.376 624.625 311.715C624.899 311.053 625.363 310.488 625.958 310.09C626.554 309.692 627.254 309.48 627.97 309.48C628.93 309.48 629.85 309.861 630.529 310.54C631.208 311.219 631.59 312.14 631.59 313.1V313.1Z" stroke="#263238" stroke-linecap="round" stroke-linejoin="round"/>
<path d="M639.37 311.89C639.372 312.316 639.248 312.733 639.012 313.088C638.777 313.443 638.441 313.72 638.048 313.884C637.654 314.048 637.221 314.092 636.803 314.009C636.385 313.927 636.001 313.722 635.7 313.42C635.399 313.119 635.194 312.735 635.111 312.317C635.029 311.899 635.072 311.466 635.236 311.073C635.4 310.679 635.677 310.344 636.032 310.108C636.387 309.873 636.804 309.748 637.23 309.75C637.798 309.75 638.342 309.975 638.743 310.377C639.145 310.778 639.37 311.322 639.37 311.89Z" stroke="#263238" stroke-linecap="round" stroke-linejoin="round"/>
<path d="M626.231 321.82C626.231 322.192 626.12 322.555 625.914 322.864C625.707 323.174 625.414 323.415 625.07 323.557C624.727 323.699 624.349 323.736 623.984 323.664C623.619 323.591 623.284 323.412 623.021 323.149C622.758 322.886 622.579 322.551 622.507 322.187C622.434 321.822 622.472 321.444 622.614 321.1C622.756 320.757 622.997 320.463 623.306 320.257C623.615 320.05 623.979 319.94 624.351 319.94C624.849 319.94 625.328 320.138 625.68 320.491C626.033 320.843 626.231 321.321 626.231 321.82V321.82Z" stroke="#263238" stroke-linecap="round" stroke-linejoin="round"/>
<path d="M639.64 322.49C639.642 323.155 639.446 323.806 639.078 324.36C638.709 324.914 638.185 325.347 637.57 325.602C636.956 325.858 636.28 325.925 635.627 325.796C634.974 325.666 634.375 325.346 633.904 324.876C633.434 324.405 633.113 323.806 632.984 323.153C632.855 322.5 632.922 321.824 633.178 321.209C633.433 320.595 633.865 320.07 634.419 319.702C634.974 319.334 635.625 319.138 636.29 319.14C637.178 319.14 638.03 319.493 638.659 320.121C639.287 320.749 639.64 321.601 639.64 322.49V322.49Z" stroke="#263238" stroke-linecap="round" stroke-linejoin="round"/>
<path d="M630.52 326C630.52 326.239 630.449 326.473 630.316 326.672C630.183 326.871 629.994 327.026 629.773 327.118C629.552 327.21 629.308 327.233 629.074 327.187C628.839 327.14 628.623 327.025 628.454 326.856C628.285 326.686 628.17 326.471 628.123 326.236C628.076 326.001 628.1 325.758 628.192 325.537C628.283 325.316 628.438 325.127 628.637 324.994C628.836 324.861 629.07 324.79 629.31 324.79C629.631 324.79 629.938 324.918 630.165 325.144C630.392 325.371 630.52 325.679 630.52 326Z" stroke="#263238" stroke-linecap="round" stroke-linejoin="round"/>
<path d="M641.121 319.13C642.082 319.13 642.861 318.351 642.861 317.39C642.861 316.429 642.082 315.65 641.121 315.65C640.16 315.65 639.381 316.429 639.381 317.39C639.381 318.351 640.16 319.13 641.121 319.13Z" stroke="#263238" stroke-linecap="round" stroke-linejoin="round"/>
<path d="M608.9 220.23C611.6 220.23 613.79 218.041 613.79 215.34C613.79 212.639 611.6 210.45 608.9 210.45C606.199 210.45 604.01 212.639 604.01 215.34C604.01 218.041 606.199 220.23 608.9 220.23Z" fill="white"/>
<path d="M561.661 198.24C561.661 197.273 561.374 196.327 560.837 195.523C560.299 194.719 559.536 194.092 558.642 193.722C557.749 193.352 556.765 193.255 555.817 193.444C554.868 193.632 553.997 194.098 553.313 194.782C552.629 195.466 552.164 196.337 551.975 197.286C551.786 198.234 551.883 199.218 552.253 200.111C552.623 201.005 553.25 201.768 554.054 202.306C554.858 202.843 555.804 203.13 556.771 203.13C558.068 203.13 559.312 202.615 560.229 201.698C561.146 200.781 561.661 199.537 561.661 198.24V198.24Z" fill="white"/>
<path d="M587.72 243.86C590.421 243.86 592.61 241.671 592.61 238.97C592.61 236.269 590.421 234.08 587.72 234.08C585.019 234.08 582.83 236.269 582.83 238.97C582.83 241.671 585.019 243.86 587.72 243.86Z" fill="white"/>
<path d="M639.85 211.27C639.85 210.302 639.563 209.356 639.026 208.552C638.488 207.748 637.723 207.121 636.829 206.751C635.935 206.381 634.951 206.285 634.003 206.475C633.054 206.664 632.182 207.131 631.499 207.816C630.816 208.501 630.351 209.373 630.163 210.322C629.976 211.271 630.074 212.255 630.445 213.148C630.817 214.041 631.445 214.805 632.251 215.341C633.056 215.877 634.003 216.162 634.97 216.16C635.612 216.161 636.248 216.036 636.842 215.79C637.435 215.545 637.974 215.184 638.427 214.73C638.881 214.275 639.24 213.736 639.484 213.142C639.729 212.548 639.853 211.912 639.85 211.27V211.27Z" fill="white"/>
<path d="M613.001 146.11C613.001 145.142 612.714 144.197 612.176 143.392C611.638 142.588 610.874 141.961 609.98 141.591C609.086 141.221 608.102 141.125 607.153 141.315C606.204 141.504 605.333 141.971 604.649 142.656C603.966 143.341 603.501 144.213 603.313 145.162C603.126 146.111 603.224 147.095 603.596 147.988C603.967 148.882 604.596 149.645 605.401 150.181C606.207 150.717 607.153 151.002 608.121 151C608.762 151 609.398 150.873 609.991 150.628C610.583 150.382 611.122 150.021 611.575 149.567C612.028 149.113 612.387 148.574 612.632 147.981C612.877 147.387 613.002 146.752 613.001 146.11V146.11Z" fill="white"/>
<path d="M582.001 111.08C582.001 110.113 581.714 109.167 581.177 108.363C580.639 107.559 579.876 106.932 578.982 106.562C578.088 106.192 577.105 106.095 576.157 106.284C575.208 106.473 574.337 106.938 573.653 107.622C572.969 108.306 572.503 109.177 572.315 110.126C572.126 111.075 572.223 112.058 572.593 112.951C572.963 113.845 573.59 114.609 574.394 115.146C575.198 115.683 576.144 115.97 577.111 115.97C578.408 115.97 579.651 115.455 580.568 114.538C581.486 113.621 582.001 112.377 582.001 111.08V111.08Z" fill="white"/>
<path d="M588.54 50C591.241 50 593.43 47.8106 593.43 45.11C593.43 42.4093 591.241 40.22 588.54 40.22C585.84 40.22 583.65 42.4093 583.65 45.11C583.65 47.8106 585.84 50 588.54 50Z" fill="white"/>
<path d="M648.809 237.34C648.811 236.372 648.526 235.425 647.989 234.619C647.453 233.814 646.689 233.185 645.795 232.814C644.901 232.443 643.917 232.345 642.968 232.533C642.018 232.722 641.146 233.188 640.462 233.872C639.777 234.557 639.311 235.429 639.123 236.378C638.934 237.328 639.032 238.312 639.403 239.206C639.775 240.1 640.403 240.863 641.209 241.4C642.014 241.937 642.961 242.222 643.929 242.22C645.224 242.22 646.465 241.706 647.38 240.791C648.295 239.875 648.809 238.634 648.809 237.34Z" fill="white"/>
<path d="M529.889 278.88C529.889 277.913 529.603 276.967 529.065 276.163C528.528 275.359 527.764 274.732 526.871 274.362C525.977 273.992 524.994 273.895 524.045 274.084C523.097 274.273 522.226 274.738 521.542 275.422C520.858 276.106 520.392 276.977 520.203 277.926C520.015 278.875 520.111 279.858 520.482 280.751C520.852 281.645 521.478 282.409 522.283 282.946C523.087 283.483 524.032 283.77 524.999 283.77C526.296 283.77 527.54 283.255 528.457 282.338C529.374 281.421 529.889 280.177 529.889 278.88V278.88Z" fill="white"/>
<path d="M529.889 278.88C529.889 277.913 529.603 276.967 529.065 276.163C528.528 275.359 527.764 274.732 526.871 274.362C525.977 273.992 524.994 273.895 524.045 274.084C523.097 274.273 522.226 274.738 521.542 275.422C520.858 276.106 520.392 276.977 520.203 277.926C520.015 278.875 520.111 279.858 520.482 280.751C520.852 281.645 521.478 282.409 522.283 282.946C523.087 283.483 524.032 283.77 524.999 283.77C526.296 283.77 527.54 283.255 528.457 282.338C529.374 281.421 529.889 280.177 529.889 278.88V278.88Z" fill="white"/>
<path d="M570.62 311.46C573.321 311.46 575.51 309.271 575.51 306.57C575.51 303.869 573.321 301.68 570.62 301.68C567.92 301.68 565.73 303.869 565.73 306.57C565.73 309.271 567.92 311.46 570.62 311.46Z" fill="white"/>
<path d="M550.249 339.16C552.95 339.16 555.139 336.971 555.139 334.27C555.139 331.569 552.95 329.38 550.249 329.38C547.549 329.38 545.359 331.569 545.359 334.27C545.359 336.971 547.549 339.16 550.249 339.16Z" fill="white"/>
<path d="M612.16 348.12C614.86 348.12 617.05 345.931 617.05 343.23C617.05 340.529 614.86 338.34 612.16 338.34C609.459 338.34 607.27 340.529 607.27 343.23C607.27 345.931 609.459 348.12 612.16 348.12Z" fill="white"/>
<path d="M665.1 287.84C665.1 286.872 664.813 285.927 664.275 285.122C663.738 284.318 662.973 283.691 662.079 283.321C661.185 282.951 660.201 282.855 659.253 283.045C658.304 283.234 657.433 283.701 656.749 284.386C656.066 285.071 655.601 285.943 655.413 286.892C655.226 287.841 655.324 288.825 655.695 289.718C656.067 290.612 656.695 291.375 657.501 291.911C658.306 292.447 659.253 292.732 660.22 292.73C660.862 292.73 661.497 292.603 662.09 292.358C662.683 292.112 663.221 291.751 663.675 291.297C664.128 290.843 664.487 290.304 664.732 289.711C664.976 289.117 665.102 288.482 665.1 287.84V287.84Z" fill="white"/>
<path d="M678.951 388.84C681.651 388.84 683.841 386.651 683.841 383.95C683.841 381.249 681.651 379.06 678.951 379.06C676.25 379.06 674.061 381.249 674.061 383.95C674.061 386.651 676.25 388.84 678.951 388.84Z" fill="white"/>
<path d="M656.14 407.58C658.841 407.58 661.03 405.391 661.03 402.69C661.03 399.989 658.841 397.8 656.14 397.8C653.439 397.8 651.25 399.989 651.25 402.69C651.25 405.391 653.439 407.58 656.14 407.58Z" fill="white"/>
<path d="M576.319 403.5C576.319 402.533 576.032 401.587 575.495 400.783C574.958 399.979 574.194 399.352 573.3 398.982C572.407 398.612 571.424 398.515 570.475 398.704C569.527 398.893 568.655 399.358 567.971 400.042C567.287 400.726 566.822 401.597 566.633 402.546C566.444 403.494 566.541 404.478 566.911 405.371C567.281 406.265 567.908 407.028 568.712 407.566C569.516 408.103 570.462 408.39 571.429 408.39C572.726 408.39 573.97 407.875 574.887 406.958C575.804 406.041 576.319 404.797 576.319 403.5V403.5Z" fill="white"/>
<path d="M614.6 294.35C614.6 293.382 614.313 292.437 613.776 291.632C613.238 290.828 612.473 290.201 611.579 289.831C610.685 289.461 609.701 289.365 608.753 289.555C607.804 289.744 606.932 290.211 606.249 290.896C605.566 291.581 605.101 292.453 604.913 293.402C604.726 294.351 604.824 295.335 605.195 296.228C605.567 297.122 606.195 297.885 607.001 298.421C607.806 298.957 608.753 299.242 609.72 299.24C611.015 299.237 612.257 298.721 613.172 297.804C614.086 296.887 614.6 295.645 614.6 294.35Z" fill="white"/>
<path d="M547.809 391.28C547.809 390.313 547.523 389.367 546.985 388.563C546.448 387.759 545.684 387.132 544.791 386.762C543.897 386.392 542.914 386.295 541.965 386.484C541.017 386.673 540.145 387.138 539.462 387.822C538.778 388.506 538.312 389.377 538.123 390.326C537.935 391.274 538.031 392.258 538.402 393.151C538.772 394.045 539.398 394.808 540.203 395.346C541.007 395.883 541.952 396.17 542.919 396.17C543.562 396.171 544.198 396.046 544.792 395.8C545.386 395.555 545.926 395.195 546.38 394.741C546.834 394.286 547.194 393.747 547.44 393.153C547.685 392.559 547.811 391.922 547.809 391.28Z" fill="white"/>
<path d="M523.38 356.26C526.081 356.26 528.27 354.071 528.27 351.37C528.27 348.669 526.081 346.48 523.38 346.48C520.68 346.48 518.49 348.669 518.49 351.37C518.49 354.071 520.68 356.26 523.38 356.26Z" fill="white"/>
<path d="M526.63 245.49C529.331 245.49 531.52 243.301 531.52 240.6C531.52 237.899 529.331 235.71 526.63 235.71C523.93 235.71 521.74 237.899 521.74 240.6C521.74 243.301 523.93 245.49 526.63 245.49Z" fill="white"/>
<path d="M547.001 179.51C547.003 178.542 546.718 177.596 546.181 176.79C545.645 175.985 544.882 175.357 543.989 174.985C543.096 174.613 542.112 174.515 541.163 174.703C540.214 174.89 539.341 175.355 538.656 176.039C537.972 176.722 537.505 177.593 537.315 178.542C537.126 179.491 537.222 180.475 537.592 181.369C537.962 182.263 538.589 183.027 539.393 183.565C540.197 184.103 541.143 184.39 542.111 184.39C543.406 184.39 544.648 183.876 545.565 182.961C546.482 182.046 546.998 180.805 547.001 179.51V179.51Z" fill="white"/>
<path d="M578.759 138.78C581.46 138.78 583.649 136.591 583.649 133.89C583.649 131.189 581.46 129 578.759 129C576.058 129 573.869 131.189 573.869 133.89C573.869 136.591 576.058 138.78 578.759 138.78Z" fill="white"/>
<path d="M640.669 155.07C643.37 155.07 645.559 152.881 645.559 150.18C645.559 147.479 643.37 145.29 640.669 145.29C637.969 145.29 635.779 147.479 635.779 150.18C635.779 152.881 637.969 155.07 640.669 155.07Z" fill="white"/>
<path d="M621.929 123.31C624.63 123.31 626.819 121.121 626.819 118.42C626.819 115.719 624.63 113.53 621.929 113.53C619.228 113.53 617.039 115.719 617.039 118.42C617.039 121.121 619.228 123.31 621.929 123.31Z" fill="white"/>
<path d="M612.16 85.8401C614.86 85.8401 617.05 83.6507 617.05 80.9501C617.05 78.2494 614.86 76.0601 612.16 76.0601C609.459 76.0601 607.27 78.2494 607.27 80.9501C607.27 83.6507 609.459 85.8401 612.16 85.8401Z" fill="white"/>
<path d="M519.3 416.53C519.3 415.562 519.012 414.616 518.475 413.812C517.937 413.008 517.173 412.381 516.279 412.011C515.384 411.641 514.401 411.545 513.452 411.735C512.503 411.924 511.632 412.391 510.948 413.076C510.265 413.761 509.8 414.633 509.612 415.582C509.425 416.531 509.523 417.515 509.895 418.408C510.266 419.301 510.895 420.064 511.7 420.601C512.506 421.137 513.452 421.422 514.42 421.42C515.061 421.42 515.697 421.293 516.289 421.047C516.882 420.802 517.42 420.441 517.874 419.987C518.327 419.533 518.686 418.994 518.931 418.4C519.176 417.807 519.301 417.172 519.3 416.53V416.53Z" fill="white"/>
<path d="M481.021 399.43C483.722 399.43 485.911 397.241 485.911 394.54C485.911 391.839 483.722 389.65 481.021 389.65C478.32 389.65 476.131 391.839 476.131 394.54C476.131 397.241 478.32 399.43 481.021 399.43Z" fill="white"/>
<path d="M494.05 354.63C496.751 354.63 498.94 352.441 498.94 349.74C498.94 347.039 496.751 344.85 494.05 344.85C491.349 344.85 489.16 347.039 489.16 349.74C489.16 352.441 491.349 354.63 494.05 354.63Z" fill="white"/>
<path d="M494.05 316.35C496.751 316.35 498.94 314.161 498.94 311.46C498.94 308.759 496.751 306.57 494.05 306.57C491.349 306.57 489.16 308.759 489.16 311.46C489.16 314.161 491.349 316.35 494.05 316.35Z" fill="white"/>
<path d="M711.53 396.17C711.53 395.202 711.243 394.257 710.705 393.452C710.167 392.648 709.403 392.021 708.509 391.651C707.615 391.281 706.631 391.185 705.682 391.375C704.733 391.564 703.862 392.031 703.179 392.716C702.495 393.401 702.03 394.273 701.843 395.222C701.655 396.171 701.753 397.155 702.125 398.048C702.497 398.942 703.125 399.705 703.931 400.241C704.736 400.777 705.682 401.062 706.65 401.06C707.945 401.057 709.186 400.541 710.101 399.624C711.016 398.707 711.53 397.465 711.53 396.17Z" fill="white"/>
<path d="M626.001 419.79C626.001 418.823 625.714 417.877 625.177 417.073C624.639 416.269 623.876 415.642 622.982 415.272C622.088 414.902 621.105 414.805 620.157 414.994C619.208 415.183 618.337 415.648 617.653 416.332C616.969 417.016 616.503 417.887 616.315 418.836C616.126 419.784 616.223 420.768 616.593 421.661C616.963 422.555 617.59 423.318 618.394 423.856C619.198 424.393 620.144 424.68 621.111 424.68C621.753 424.681 622.39 424.556 622.984 424.31C623.577 424.065 624.117 423.705 624.571 423.251C625.026 422.796 625.386 422.257 625.631 421.663C625.876 421.069 626.002 420.432 626.001 419.79V419.79Z" fill="white"/>
<path d="M691.171 313.09C691.171 312.123 690.884 311.177 690.347 310.373C689.809 309.569 689.046 308.942 688.152 308.572C687.258 308.202 686.275 308.105 685.327 308.294C684.378 308.483 683.507 308.948 682.823 309.632C682.139 310.316 681.673 311.187 681.485 312.136C681.296 313.085 681.393 314.068 681.763 314.961C682.133 315.855 682.76 316.619 683.564 317.156C684.368 317.693 685.313 317.98 686.281 317.98C687.578 317.98 688.821 317.465 689.738 316.548C690.655 315.631 691.171 314.387 691.171 313.09Z" fill="white"/>
<path d="M677.319 346.48C677.319 345.513 677.032 344.567 676.495 343.763C675.958 342.959 675.194 342.332 674.3 341.962C673.407 341.592 672.424 341.495 671.475 341.684C670.527 341.872 669.655 342.338 668.971 343.022C668.287 343.706 667.822 344.577 667.633 345.526C667.444 346.474 667.541 347.458 667.911 348.351C668.281 349.245 668.908 350.008 669.712 350.546C670.516 351.083 671.462 351.37 672.429 351.37C673.726 351.37 674.97 350.855 675.887 349.938C676.804 349.021 677.319 347.777 677.319 346.48V346.48Z" fill="white"/>
<path d="M427 452H749" stroke="#263238" stroke-linecap="round" stroke-linejoin="round"/>
</svg>
