<?xml version="1.0" encoding="UTF-8"?>
<svg id="Calque_2" data-name="Calque 2" xmlns="http://www.w3.org/2000/svg" viewBox="0 0 928 911">
  <defs>
    <style>
      .cls-1 {
        fill: #581116;
        stroke: #581116;
      }

      .cls-1, .cls-2, .cls-3, .cls-4 {
        stroke-linecap: round;
        stroke-linejoin: round;
      }

      .cls-2 {
        fill: #c04a54;
        stroke: #c04a54;
      }

      .cls-3 {
        fill: #9f6b6e;
        stroke: #9f6b6e;
      }

      .cls-4 {
        fill: #ad1327;
        stroke: #ad1327;
      }

      .cls-5 {
        fill: #b8001f;
      }
    </style>
  </defs>
  <g>
    <path class="cls-5" d="M307.37,684.54l-18.63-22.64h5.52c3.4,0,6.17-.44,8.28-1.31,1.56-.74,2.92-1.85,4.07-3.35,1.15-1.49,1.73-3.14,1.73-4.93,0-1.61-.48-3.14-1.45-4.59s-2.35-2.63-4.14-3.55c-1.79-.92-3.86-1.38-6.21-1.38h-12.56v41.75h-3.11v-44.86h15.67c2.12,0,4.09,.33,5.93,1,1.84,.67,3.45,1.62,4.83,2.86,1.33,1.2,2.36,2.55,3.07,4.07,.71,1.52,1.07,3.08,1.07,4.69,0,2.53-.76,4.8-2.28,6.8-1.52,2-3.31,3.44-5.38,4.31-1.43,.64-2.82,1.05-4.17,1.21-1.36,.16-2.79,.24-4.31,.24l16.22,19.67h-4.14Z"/>
    <path class="cls-5" d="M323.51,684.54v-44.86h29.05v3.17h-25.95v17.67h20.22v3.17h-20.22v17.6h25.95v3.24h-29.05Z"/>
    <path class="cls-5" d="M407.57,684.54v-35.47l-19.88,28.36-20.15-28.43v35.54h-3.11v-45.41l23.26,32.85,22.98-32.85v45.41h-3.11Z"/>
    <path class="cls-5" d="M424.82,684.54v-44.86h3.11v44.86h-3.11Z"/>
    <path class="cls-5" d="M445.18,648.1v36.44h-3.11v-45.41l31.05,37.13v-36.58h3.11v45.62l-31.05-37.2Z"/>
    <path class="cls-5" d="M502.39,684.54h-12.9v-44.86h12.9c3.17,0,6.12,.59,8.83,1.76,2.71,1.17,5.06,2.84,7.04,5,1.89,2.07,3.33,4.44,4.35,7.11,1.01,2.67,1.52,5.5,1.52,8.49s-.51,5.82-1.52,8.49c-1.01,2.67-2.46,5.06-4.35,7.18-1.98,2.21-4.33,3.9-7.04,5.07-2.72,1.17-5.66,1.76-8.83,1.76Zm-9.8-3.11h9.8c5.57,0,10.1-1.96,13.6-5.87,1.61-1.75,2.84-3.78,3.69-6.11,.85-2.32,1.28-4.8,1.28-7.42s-.43-5.03-1.28-7.35-2.08-4.36-3.69-6.11c-3.54-3.82-8.07-5.73-13.6-5.73h-9.8v38.58Z"/>
    <path class="cls-5" d="M534.54,684.54v-44.86h29.05v3.17h-25.95v17.67h20.22v3.17h-20.22v17.6h25.95v3.24h-29.05Z"/>
    <path class="cls-5" d="M601.9,684.54l-18.63-22.64h5.52c3.4,0,6.17-.44,8.28-1.31,1.56-.74,2.92-1.85,4.07-3.35,1.15-1.49,1.73-3.14,1.73-4.93,0-1.61-.48-3.14-1.45-4.59s-2.35-2.63-4.14-3.55c-1.79-.92-3.86-1.38-6.21-1.38h-12.56v41.75h-3.11v-44.86h15.67c2.12,0,4.09,.33,5.93,1,1.84,.67,3.45,1.62,4.83,2.86,1.33,1.2,2.36,2.55,3.07,4.07,.71,1.52,1.07,3.08,1.07,4.69,0,2.53-.76,4.8-2.28,6.8-1.52,2-3.31,3.44-5.38,4.31-1.43,.64-2.82,1.05-4.17,1.21-1.36,.16-2.79,.24-4.31,.24l16.22,19.67h-4.14Z"/>
    <path class="cls-5" d="M646.86,667.18c1.17,1.73,1.76,3.58,1.76,5.56,0,1.7-.41,3.32-1.24,4.87-.83,1.54-2.02,2.89-3.59,4.04-3.22,2.3-6.97,3.45-11.25,3.45-2.12,0-4.14-.3-6.07-.9-1.93-.6-3.66-1.45-5.18-2.55-2.62-1.93-4.21-4.3-4.76-7.11l2.97-1.66c.14,2.53,1.38,4.6,3.73,6.21,1.2,.92,2.6,1.62,4.21,2.11,1.61,.48,3.31,.72,5.11,.72,3.68,0,6.79-.94,9.32-2.83,2.44-1.79,3.66-3.91,3.66-6.35,0-1.43-.45-2.76-1.35-4-.9-1.24-2.15-2.3-3.76-3.17-1.52-.78-4.23-1.4-8.14-1.86-.32-.05-1.48-.23-3.48-.55-2-.32-3.72-.83-5.14-1.52-2.25-1.1-4.03-2.56-5.31-4.38-1.29-1.82-1.93-3.78-1.93-5.9,0-1.7,.42-3.3,1.28-4.8,.85-1.49,2.06-2.82,3.62-3.97,1.52-1.1,3.24-1.96,5.18-2.55,1.93-.6,3.96-.9,6.07-.9,4.28,0,8.03,1.15,11.25,3.45,2.67,2.02,4.23,4.37,4.69,7.04l-2.97,1.66c-.05-1.15-.38-2.25-1-3.31s-1.51-2.02-2.66-2.9c-1.24-.92-2.67-1.62-4.28-2.11-1.61-.48-3.29-.72-5.04-.72s-3.44,.24-5.07,.72c-1.63,.48-3.05,1.19-4.24,2.11-1.2,.87-2.12,1.85-2.76,2.93-.64,1.08-.97,2.2-.97,3.35,0,1.43,.53,2.84,1.59,4.24,1.06,1.4,2.37,2.5,3.93,3.28,.97,.46,2.04,.79,3.21,1,1.17,.21,2.68,.43,4.52,.66,.32,.05,1.13,.16,2.42,.34,1.29,.18,2.53,.44,3.73,.76,1.2,.32,2.21,.71,3.04,1.17,2.12,1.2,3.76,2.66,4.93,4.38Z"/>
  </g>
  <g>
    <polygon class="cls-2" points="412.59 308.74 412.57 376.89 338.3 323.04 412.59 308.74"/>
    <polygon class="cls-4" points="412.57 376.89 338.3 323.04 338.28 401.67 412.57 376.89"/>
    <path class="cls-4" d="M484.25,323.17l-17.67-73.64-53.99,59.21h38.52c4.67,.01,9.3,.78,13.69,2.35,5.91,2.11,13.78,5.86,19.45,12.09Z"/>
    <polygon class="cls-3" points="338.28 401.67 338.27 439.79 338.25 491.88 409.82 442.19 338.28 401.67"/>
    <polygon class="cls-1" points="590.33 581.93 517.06 581.93 504.78 559.05 590.33 581.93"/>
    <polygon class="cls-1" points="410.21 581.93 338.34 581.93 411.09 534.95 410.21 581.93"/>
    <polygon class="cls-1" points="338.25 491.88 338.34 581.93 411.09 534.95 338.25 491.88"/>
    <path class="cls-1" d="M484.28,363.23l9.71,76.39-81.42-62.74s38.1,.9,44.36,.01c6.25-.89,21.33-5.26,27.35-13.67Z"/>
    <path class="cls-1" d="M552.65,395.45l-68.37-32.22,9.71,76.39s37.61-7.28,58.67-44.17Z"/>
    <polygon class="cls-3" points="496.19 439.62 412.57 376.89 409.82 439.62 496.19 439.62"/>
    <path class="cls-2" d="M532.42,265.74l-48.16,57.44-17.67-73.64s33.6-2.26,65.83,16.21Z"/>
    <path class="cls-3" d="M567.58,343.22l-83.32-20.03,48.15-57.45s35.5,21.42,35.17,77.48Z"/>
    <polygon class="cls-1" points="338.33 249.49 413.15 308.83 338.3 323.04 338.33 249.49"/>
    <polygon class="cls-1" points="466.58 249.53 413.15 308.83 338.33 249.49 466.58 249.53"/>
    <path class="cls-4" d="M540.28,492.05l-69.1,4.92,25.14-57.18s16.15,6.94,43.95,52.26Z"/>
    <path class="cls-2" d="M496.54,439.79l-25.7,57.01s-11.5-20.98-20.74-32.53c-8.6-10.75-20.57-21.83-40.28-24.65l86.72,.17Z"/>
    <polygon class="cls-2" points="590.33 581.93 540.4 492.29 504.78 559.05 590.33 581.93"/>
    <polygon class="cls-3" points="470.84 496.8 504.78 559.05 540.22 491.86 470.84 496.8"/>
    <path class="cls-4" d="M484.25,323.19s19.46,16.75,.04,40.06l82.95-24.81-82.99-15.25Z"/>
    <path class="cls-4" d="M567.22,338.44l-82.95,24.81,68.38,32.2s17.6-30.17,14.56-57.01Z"/>
    <polygon class="cls-3" points="409.82 442.19 412.57 376.89 338.28 401.67 409.82 442.19"/>
    <polygon class="cls-4" points="410.4 439.53 338.25 466.02 338.25 491.88 410.4 439.53"/>
    <polygon class="cls-4" points="410.4 439.53 411.09 534.95 338.25 491.88 410.4 439.53"/>
  </g>
</svg>