<svg width="556" height="586" viewBox="0 0 556 586" fill="none" xmlns="http://www.w3.org/2000/svg">
<g clip-path="url(#clip0_710_112)">
<path d="M110.5 535.13L91.87 512.49H97.39C100.79 512.49 103.56 512.05 105.67 511.18C107.23 510.44 108.59 509.33 109.74 507.83C110.89 506.34 111.47 504.69 111.47 502.9C111.47 501.29 110.99 499.76 110.02 498.31C109.05 496.86 107.67 495.68 105.88 494.76C104.09 493.84 102.02 493.38 99.67 493.38H87.11V535.13H84V490.27H99.67C101.79 490.27 103.76 490.6 105.6 491.27C107.44 491.94 109.05 492.89 110.43 494.13C111.76 495.33 112.79 496.68 113.5 498.2C114.21 499.72 114.57 501.28 114.57 502.89C114.57 505.42 113.81 507.69 112.29 509.69C110.77 511.69 108.98 513.13 106.91 514C105.48 514.64 104.09 515.05 102.74 515.21C101.38 515.37 99.95 515.45 98.43 515.45L114.65 535.12H110.5V535.13Z" fill="#B81823"/>
<path d="M126.641 535.13V490.27H155.691V493.44H129.741V511.11H149.961V514.28H129.741V531.88H155.691V535.12H126.641V535.13Z" fill="#B81823"/>
<path d="M210.701 535.13V499.66L190.821 528.02L170.671 499.59V535.13H167.561V489.72L190.821 522.57L213.801 489.72V535.13H210.701Z" fill="#B81823"/>
<path d="M227.949 535.13V490.27H231.059V535.13H227.949Z" fill="#B81823"/>
<path d="M248.309 498.69V535.13H245.199V489.72L276.249 526.85V490.27H279.359V535.89L248.309 498.69Z" fill="#B81823"/>
<path d="M305.519 535.13H292.619V490.27H305.519C308.689 490.27 311.639 490.86 314.349 492.03C317.059 493.2 319.409 494.87 321.389 497.03C323.279 499.1 324.719 501.47 325.739 504.14C326.749 506.81 327.259 509.64 327.259 512.63C327.259 515.62 326.749 518.45 325.739 521.12C324.729 523.79 323.279 526.18 321.389 528.3C319.409 530.51 317.059 532.2 314.349 533.37C311.629 534.54 308.689 535.13 305.519 535.13ZM295.719 532.02H305.519C311.089 532.02 315.619 530.06 319.119 526.15C320.729 524.4 321.959 522.37 322.809 520.04C323.659 517.72 324.089 515.24 324.089 512.62C324.089 510 323.659 507.59 322.809 505.27C321.959 502.95 320.729 500.91 319.119 499.16C315.579 495.34 311.049 493.43 305.519 493.43H295.719V532.01V532.02Z" fill="#B81823"/>
<path d="M337.67 535.13V490.27H366.72V493.44H340.77V511.11H360.99V514.28H340.77V531.88H366.72V535.12H337.67V535.13Z" fill="#B81823"/>
<path d="M405.029 535.13L386.399 512.49H391.919C395.319 512.49 398.089 512.05 400.199 511.18C401.759 510.44 403.119 509.33 404.269 507.83C405.419 506.34 405.999 504.69 405.999 502.9C405.999 501.29 405.519 499.76 404.549 498.31C403.579 496.86 402.199 495.68 400.409 494.76C398.619 493.84 396.549 493.38 394.199 493.38H381.639V535.13H378.529V490.27H394.199C396.319 490.27 398.289 490.6 400.129 491.27C401.969 491.94 403.579 492.89 404.959 494.13C406.289 495.33 407.319 496.68 408.029 498.2C408.739 499.72 409.099 501.28 409.099 502.89C409.099 505.42 408.339 507.69 406.819 509.69C405.299 511.69 403.509 513.13 401.439 514C400.009 514.64 398.619 515.05 397.269 515.21C395.909 515.37 394.479 515.45 392.959 515.45L409.179 535.12H405.029V535.13Z" fill="#B81823"/>
<path d="M449.991 517.77C451.161 519.5 451.751 521.35 451.751 523.33C451.751 525.03 451.341 526.65 450.511 528.2C449.681 529.74 448.491 531.09 446.921 532.24C443.701 534.54 439.951 535.69 435.671 535.69C433.551 535.69 431.531 535.39 429.601 534.79C427.671 534.19 425.941 533.34 424.421 532.24C421.801 530.31 420.211 527.94 419.661 525.13L422.631 523.47C422.771 526 424.011 528.07 426.361 529.68C427.561 530.6 428.961 531.3 430.571 531.79C432.181 532.27 433.881 532.51 435.681 532.51C439.361 532.51 442.471 531.57 445.001 529.68C447.441 527.89 448.661 525.77 448.661 523.33C448.661 521.9 448.211 520.57 447.311 519.33C446.411 518.09 445.161 517.03 443.551 516.16C442.031 515.38 439.321 514.76 435.411 514.3C435.091 514.25 433.931 514.07 431.931 513.75C429.931 513.43 428.211 512.92 426.791 512.23C424.541 511.13 422.761 509.67 421.481 507.85C420.191 506.03 419.551 504.07 419.551 501.95C419.551 500.25 419.971 498.65 420.831 497.15C421.681 495.66 422.891 494.33 424.451 493.18C425.971 492.08 427.691 491.22 429.631 490.63C431.561 490.03 433.591 489.73 435.701 489.73C439.981 489.73 443.731 490.88 446.951 493.18C449.621 495.2 451.181 497.55 451.641 500.22L448.671 501.88C448.621 500.73 448.291 499.63 447.671 498.57C447.051 497.51 446.161 496.55 445.011 495.67C443.771 494.75 442.341 494.05 440.731 493.56C439.121 493.08 437.441 492.84 435.691 492.84C433.941 492.84 432.251 493.08 430.621 493.56C428.991 494.04 427.571 494.75 426.381 495.67C425.181 496.54 424.261 497.52 423.621 498.6C422.981 499.68 422.651 500.8 422.651 501.95C422.651 503.38 423.181 504.79 424.241 506.19C425.301 507.59 426.611 508.69 428.171 509.47C429.141 509.93 430.211 510.26 431.381 510.47C432.551 510.68 434.061 510.9 435.901 511.13C436.221 511.18 437.031 511.29 438.321 511.47C439.611 511.65 440.851 511.91 442.051 512.23C443.251 512.55 444.261 512.94 445.091 513.4C447.211 514.6 448.851 516.06 450.021 517.78H449.991V517.77Z" fill="#B81823"/>
<path d="M215.722 159.33L215.702 227.48L141.432 173.63L215.722 159.33Z" fill="#C14A55"/>
<path d="M215.7 227.48L141.43 173.63L141.41 252.26L215.7 227.48Z" fill="#C5413F"/>
<path d="M287.381 173.76L269.711 100.12L215.721 159.33H254.241C258.911 159.34 263.541 160.11 267.931 161.68C273.841 163.79 281.711 167.54 287.381 173.77V173.76Z" fill="#C5413F"/>
<path d="M141.411 252.26L141.401 290.38L141.381 342.47L212.951 292.78L141.411 252.26Z" fill="#AC202B"/>
<path d="M393.46 432.52H320.19L307.91 409.64L393.46 432.52Z" fill="#591319"/>
<path d="M213.341 432.52H141.471L214.221 385.54L213.341 432.52Z" fill="#591319"/>
<path d="M141.381 342.47L141.471 432.52L214.221 385.54L141.381 342.47Z" fill="#591319"/>
<path d="M287.411 213.82L297.121 290.21L215.701 227.47C215.701 227.47 253.801 228.37 260.061 227.48C266.311 226.59 281.391 222.22 287.411 213.81V213.82Z" fill="#591319"/>
<path d="M355.78 246.04L287.41 213.82L297.12 290.21C297.12 290.21 334.73 282.93 355.79 246.04H355.78Z" fill="#591319"/>
<path d="M299.321 290.21L215.701 227.48L212.951 290.21H299.321Z" fill="#AC202B"/>
<path d="M335.551 116.33L287.391 173.77L269.721 100.13C269.721 100.13 303.321 97.8701 335.551 116.34V116.33Z" fill="#C14A55"/>
<path d="M370.711 193.81L287.391 173.78L335.541 116.33C335.541 116.33 371.041 137.75 370.711 193.81Z" fill="#AC202B"/>
<path d="M141.462 100.08L216.282 159.42L141.432 173.63L141.462 100.08Z" fill="#591319"/>
<path d="M269.711 100.12L216.281 159.42L141.461 100.08L269.711 100.12Z" fill="#591319"/>
<path d="M343.411 342.64L274.311 347.56L299.451 290.38C299.451 290.38 315.601 297.32 343.401 342.64H343.411Z" fill="#C5413F" stroke="#C5413F" stroke-linecap="round" stroke-linejoin="round"/>
<path d="M299.671 290.38L273.971 347.39C273.971 347.39 262.471 326.41 253.231 314.86C244.631 304.11 232.661 293.03 212.951 290.21L299.671 290.38Z" fill="#C14A55" stroke="#C14A55" stroke-linecap="round" stroke-linejoin="round"/>
<path d="M393.46 432.52L343.53 342.88L307.91 409.64L393.46 432.52Z" fill="#C14A55" stroke="#C14A55" stroke-linecap="round" stroke-linejoin="round"/>
<path d="M273.971 347.39L307.911 409.64L343.351 342.45L273.971 347.39Z" fill="#AC202B"/>
<path d="M287.381 173.78C287.381 173.78 306.841 190.53 287.421 213.84L370.371 189.03L287.381 173.78Z" fill="#C5413F"/>
<path d="M370.35 189.03L287.4 213.84L355.78 246.04C355.78 246.04 373.38 215.87 370.34 189.03H370.35Z" fill="#C5413F"/>
<path d="M212.95 292.78L215.7 227.48L141.41 252.26L212.95 292.78Z" fill="#AC202B"/>
<path d="M213.531 290.12L141.381 316.61V342.47L213.531 290.12Z" fill="#C5413F"/>
<path d="M213.531 290.12L214.221 385.54L141.381 342.47L213.531 290.12Z" fill="#C5413F"/>
<path d="M401.107 200.651L399.107 203.651C399.107 203.651 403.107 235.651 406.107 237.651C409.107 239.651 415.107 233.651 415.107 233.651C415.107 233.651 403.607 203.151 401.107 200.651Z" fill="#D62116"/>
<path d="M424.107 239.651C424.107 239.651 417.107 243.651 413.107 237.651C409.107 231.651 398.747 204.651 398.747 204.651L343.107 144.651L247.107 73.6513C247.107 73.6513 305.107 38.6513 345.107 57.6513C385.107 76.6513 423.107 116.371 424.107 160.011C425.107 203.651 424.107 239.651 424.107 239.651Z" fill="#C5413F"/>
<path d="M369.107 101.651C369.107 101.651 399.107 138.831 401.107 176.241C403.107 213.651 293.697 101.651 293.697 101.651L267.107 84.6514L248.107 72.6514C248.107 72.6514 278.107 58.6514 283.107 57.6514C284.107 71.6514 298.107 100.651 321.107 113.651C344.107 126.651 398.107 166.651 369.107 101.651Z" fill="#AC202B"/>
<path d="M234.227 68.5913C234.227 68.5913 202.097 92.6513 215.097 100.651C226.097 101.651 267.097 109.651 302.097 138.651C337.097 167.651 393.097 214.651 400.097 202.651C407.097 190.651 234.227 68.5913 234.227 68.5913Z" fill="#D2D1D5" stroke="#3B4C2E" stroke-width="0.25" stroke-miterlimit="10"/>
<path d="M241.107 67.6514C264.107 69.6514 323.107 115.651 323.107 115.651C323.107 115.651 383.107 166.651 399.107 173.651C415.107 180.651 399.107 203.971 399.107 203.971C399.107 203.971 371.107 192.651 345.107 161.651C319.107 130.651 247.107 93.6514 238.107 92.6514C238.107 92.6514 219.107 86.6514 227.107 72.6514C232.107 66.6514 240.107 67.6514 241.107 67.6514Z" fill="#F2F2F2" stroke="#3B4C2E" stroke-width="0.25" stroke-miterlimit="10"/>
<path d="M426.656 282.561C426.656 282.561 447.336 283.271 438.396 262.791C438.396 262.791 453.496 251.331 433.646 245.701C433.646 245.701 435.126 231.131 419.996 237.841C419.996 237.841 411.536 226.971 405.966 240.231C405.966 240.231 386.976 240.071 395.916 253.491C395.916 253.491 383.156 256.411 396.246 270.601C396.246 270.601 391.446 284.791 404.866 280.321C404.866 280.321 412.696 293.741 426.666 282.561H426.656Z" fill="#F2F2F2" stroke="#3B4C2E" stroke-width="0.25" stroke-miterlimit="10"/>
</g>
<defs>
<clipPath id="clip0_710_112">
<rect width="388.2" height="484.89" fill="white" transform="translate(84 51)"/>
</clipPath>
</defs>
</svg>
