<?xml version="1.0" encoding="UTF-8"?>
<svg id="Calque_3" data-name="Calque 3" xmlns="http://www.w3.org/2000/svg" viewBox="0 0 312.76 306.09">
  <path d="M135.4,123.37s-.08-.03-.1-.07c-.02-.05-.03-.12-.03-.17,0-.26,0-.53,0-.79v-.17c.02-1.01,.06-2.08,.15-3.48,.02-.33,.02-.67,.02-1v-2.27s-.01-1.74-.01-1.74c0-.19,0-.38,0-.58,0,0,0-1.07,0-1.29,0-.24,0-.47,0-.7v-.66c-.01-.27-.01-.54-.02-.81,0-.18,0-.98,0-1.17,0-.2,0-.4-.01-.61,0,0-.02-1.13-.03-1.36,0-.19-.03-2.61-.03-2.61,0-.41-.01-.81-.02-1.22,0-.19-.01-.38-.02-.58-.01-.31-.03-.62-.03-.94,0-.54,.03-1.08,.05-1.6v-.28c.02-.16,.03-.32,.04-.48,.01-.16,.02-.32,.03-.48,0-.13,0-.27,0-.4h.05s0-.08,0-.08h-.05c0-.07,0-.24,0-.24,0-.08,0-.17,0-.26,.02-.23,.14-.36,.36-.39,.07,0,.15-.01,.23-.01,.05,0,.1,0,.14,0,.14,0,.27,.02,.41,.04l.47,.05c.2,.02,.4,.04,.6,.06h.16c.26,.03,.56,.06,.85,.06,.15,0,.3,0,.47,0,.13,0,.26,0,.4,0,.18,0,.35,0,.53-.01,.5-.01,1.77-.05,1.77-.05,.84-.02,1.71-.05,2.57-.07,.5-.01,1.01-.02,1.51-.02l2.29-.03h.27c.1,.02,.19,.02,.28,.03h.61c.45,.02,.94,.03,1.43,.03h.17c1.26,0,2.53-.02,3.79-.03l2.18-.02c.41,0,.83,0,1.25-.01,.13,0,.25,.01,.39,.02h.1c.07,.01,.12,.06,.12,.13,0,.07-.04,.12-.11,.14-.1,.02-.18,.04-.26,.04-.12,0-.24,.01-.37,.02h-.05c-.13,0-.26,.01-.39,.02-.06,0-.12,0-.22,.02-.09,0-.18,.02-.27,.02h-.22s-.59,0-.59,0h-.2c-.13,0-.27,0-.41,.03-1.41,.24-2.58,.91-3.48,2-.55,.66-.93,1.34-1.15,2.06-.2,.66-.31,1.29-.31,1.91,0,.46,0,.99,.1,1.51,.21,1.12,.82,1.99,1.79,2.59,.66,.4,1.37,.81,2.23,1.28,.22,.12,.44,.26,.68,.4,.35,.22,.72,.44,1.11,.61,.07,.03,.1,.12,.07,.21-.02,.08-.08,.13-.17,.13h0c-.06,0-.12-.03-.17-.05-.09-.05-.18-.1-.28-.16,0,0-.64-.37-.93-.54-.86-.5-1.76-1.02-2.67-1.48l-.11-.06c-.15-.07-.3-.15-.45-.22-.56-.26-1.15-.39-1.77-.4h-.16c-.74,0-1.43,.12-2.05,.35-1.04,.39-1.82,1.1-2.3,2.11-.37,.79-.5,1.65-.37,2.57,.11,.77,.35,1.44,.74,2.04,.29,.45,.58,.92,.86,1.38l.55,.92c.47,.79,.97,1.6,1.51,2.36,.03,.04,.05,.07,.07,.11,.03,.05,.04,.1,.03,.14,0,.03-.02,.05-.04,.07-.03,.02-.06,.03-.09,.03-.03,0-.07-.01-.1-.04-.06-.05-.11-.11-.15-.17-.1-.13-.19-.27-.28-.41l-.36-.53c-.2-.3-.41-.61-.62-.9l-.08-.12c-.71-1.01-1.44-2.05-2.09-3.12-.08-.13-.15-.22-.22-.29-.54-.52-1.16-.86-1.83-1.01-.54-.12-1.09-.18-1.62-.18-.21,0-.41,0-.62,.03-.71,.06-1.4,.26-2.12,.59-.56,.26-1,.61-1.35,1.06l-.14,.18c-.11,.14-.23,.29-.34,.43-.21,.28-.39,.61-.58,1.06-.23,.53-.38,1.11-.45,1.73-.03,.24-.05,.49-.06,.73-.03,.97-.11,1.97-.19,2.93-.05,.61-.1,1.24-.14,1.87,0,.04,0,.1-.03,.14-.02,.03-.06,.09-.1,.09h0Zm6.31-11.46c.49,0,.99,.1,1.53,.3,.21,.08,.41,.17,.64,.27,.1,.05,.21,.09,.31,.13,.02,0,.04,.01,.08,.03l.07,.02-.02-.07c-.07-.21-.18-.34-.28-.44-.1-.1-.21-.18-.3-.25-.87-.67-1.65-1.08-2.46-1.31-.38-.11-.84-.22-1.34-.22h-.04c-.32,0-.62,.05-.91,.13-.37,.1-.69,.23-.99,.39-.46,.24-.89,.62-1.26,1.12-.24,.32-.44,.69-.6,1.15-.07,.18-.12,.4-.15,.63-.08,.58-.1,1.19-.05,1.95l.03-.05v.08s.05-.01,.05-.01v-.02s.05-.08,.06-.13c.01-.03,.02-.05,.03-.08l.05-.12c.05-.12,.11-.25,.17-.37,.17-.33,.38-.65,.67-.97,.51-.58,1.02-1.01,1.56-1.29,.62-.32,1.27-.57,1.91-.72,.39-.09,.8-.14,1.21-.14h.04Zm-1.9-1.94c.62,0,1.27,.12,1.98,.36,.5,.17,.94,.37,1.34,.6,.01,0,.02,.02,.05,.03,.02,.02,.04,.03,.07,.03h.05s0-.04,0-.04c0-.05-.02-.09-.06-.14l-.02-.04c-.14-.24-.29-.47-.46-.73l-.26-.41c-.5-.8-1.02-1.63-1.47-2.51-.24-.47-.63-.71-1.19-.75-.07,0-.15,0-.22,0-1.07,0-1.97,.49-2.66,1.47-.46,.65-.78,1.4-.96,2.29-.16,.76-.15,1.54-.13,2.27l.02,.06,.04,.03,.04-.05s.06-.08,.08-.12c.43-.7,.97-1.28,1.6-1.72,.46-.32,.99-.52,1.61-.59,.17-.02,.33-.03,.5-.03h.03Zm9.72-3.17c.24,0,.5,.01,.77,.04,.02,0,.04,0,.07,0h.05s-.03-.06-.03-.06c-.01-.02-.02-.03-.04-.04-.42-.31-.88-.48-1.38-.5-.14,0-.28-.02-.42-.03h-.05c-.1-.01-.19-.02-.29-.03-.06,0-.12,0-.19,0-.37,0-.73,.06-1.12,.19-.27,.09-.53,.2-.81,.31-.19,.08-.37,.21-.57,.4-.33,.32-.6,.7-.78,1.13-.24,.55-.39,1.11-.44,1.66-.04,.42-.03,.8,.05,1.14,.06,.29,.15,.59,.23,.87l.04,.15c.02,.08,.04,.15,.1,.18l.03,.02,.02-.03s.02-.09,0-.14c0-.02,0-.04,0-.06-.08-1.59,.38-2.89,1.37-3.88,.69-.69,1.51-1.1,2.46-1.24,.28-.04,.58-.06,.87-.07h.06Zm-1.37-1.06s.1,0,.15,0c.02,0,.04,0,.07,0,.03,0,.06,0,.09,0,.06,0,.12,0,.17-.02l.06-.03-.05-.05s-.07-.06-.1-.08l-.79-.5c-.47-.3-.95-.59-1.41-.89-.51-.33-1.08-.48-1.61-.6-.2-.05-.42-.08-.63-.1-.11-.01-.22-.02-.33-.02-.53,0-1.02,.12-1.51,.37-.62,.32-1.01,.87-1.18,1.68-.02,.09-.02,.19-.01,.28,.05,.43,.12,.77,.31,1.08,.77,1.26,1.55,2.53,2.35,3.83,.03,.05,.06,.11,.12,.14l.05,.02v-.05s.02-.08,.02-.12c-.06-.45-.03-.91,.02-1.35,.04-.39,.15-.77,.32-1.14,.53-1.13,1.3-1.85,2.36-2.21,.51-.17,1.02-.26,1.52-.26h.05Zm-8.17,.21c.07,0,.14,0,.22,0,.02,0,.04,0,.07,0h.04s0-.05,0-.05c0-.03,0-.06-.02-.08l-.15-.27c-.2-.36-.41-.73-.63-1.09-.12-.21-.33-.34-.63-.42-.22-.06-.43-.09-.63-.09-.75,0-1.39,.4-1.89,1.19-.18,.28-.25,.6-.33,.94-.17,.72-.23,1.32-.19,1.9,0,.09,0,.19,0,.28,0,.05,0,.11,0,.17,0,.09,0,.19,.03,.31l.03,.07,.04-.08s.05-.09,.07-.13c.42-.89,1.06-1.61,1.91-2.13,.4-.24,.84-.4,1.35-.49,.22-.04,.44-.05,.68-.06h.04Zm12.69-8.58c-.27,.01-.55,.05-.89,.11-.49,.09-1,.25-1.56,.48-.49,.2-.94,.49-1.39,.89-.33,.29-.59,.64-.77,1.04-.34,.74-.51,1.44-.51,2.13,0,.88,.19,1.59,.62,2.22,.29,.43,.59,.88,1.01,1.23,.07,.06,.16,.13,.25,.19,.36,.22,.73,.43,1.1,.64,.03,.02,.07,.03,.12,.05h.03s.02-.01,.02-.01c.03-.05,.01-.09-.02-.17-.11-.31-.22-.64-.28-.98-.04-.25-.08-.53-.08-.81,0-.53,0-1.07,.09-1.61,.13-.87,.42-1.72,.84-2.54,.35-.66,.8-1.26,1.35-1.78,.39-.37,.82-.67,1.3-.88,.02,0,.03-.01,.06-.02,.05-.02,.1-.04,.15-.09v-.06s-.08,0-.08,0c-.05,0-.1,0-.15,0h-.34c-.15,0-.3-.01-.45-.01-.13,0-.26,0-.39,0Zm-9.12,5.68c.18,0,.41,0,.66,.06,.03,0,.07,.01,.11,.01,.02,0,.04,0,.06,0l.06-.02-.05-.05s-.05-.04-.07-.06l-.85-.55c-.42-.27-.83-.54-1.24-.82-.13-.09-.26-.13-.39-.13-.09,0-.18,.02-.28,.06l-.06,.03c-.35,.16-.7,.32-1.03,.55-.44,.32-.74,.73-.9,1.25-.02,.07-.03,.14-.05,.21v.07c-.03,.1-.02,.19,.04,.28l.95,1.57s.03,.04,.07,.07l.05,.04,.04-.18c.03-.13,.05-.24,.07-.34,.06-.26,.17-.52,.31-.79,.27-.51,.69-.86,1.29-1.08,.26-.1,.51-.15,.75-.15h.45Zm-5.18,.41c.15,0,.3,.02,.46,.05,0,0,.07,0,.07,0v-.03c.02-.07-.01-.12-.04-.16l-.02-.03c-.19-.33-.39-.66-.58-.98-.06-.09-.11-.19-.17-.28-.12-.19-.24-.39-.35-.59-.1-.19-.25-.29-.49-.33-.05,0-.1-.01-.16-.01h0c-.46,0-1.07,.32-1.3,.99-.03,.1-.03,.21-.03,.33,0,.56,0,1.06,.01,1.53,0,.32,.01,.63,.03,.95v.25s.01,.04,.01,.04l.02,.06,.04-.03s.04-.03,.05-.05c.04-.06,.07-.13,.11-.2,.05-.1,.11-.2,.17-.29,.46-.69,1.11-1.09,1.93-1.18,.08,0,.16-.01,.23-.01h.02Zm8.74-5.99c-.5,.17-.99,.42-1.46,.75-.48,.34-.86,.8-1.16,1.41-.06,.11-.1,.25-.14,.43-.19,.93-.03,1.73,.48,2.39,.39,.51,.83,.93,1.3,1.24,.35,.24,.73,.46,1.06,.66,.12,.07,.25,.15,.4,.24,.04,.03,.1,.06,.18,.06h.06s-.05-.11-.05-.11c-.02-.06-.05-.11-.07-.15-.36-.73-.55-1.43-.58-2.16-.16-.99,.36-2.47,1.17-3.29,.6-.61,1.24-1.04,1.97-1.3l.18-.06c.09-.03,.18-.06,.26-.1,.03-.01,.06-.03,.1-.06l.05-.03-.05-.03s-.04-.01-.08-.02l-.76-.02-.91-.02c-.22,0-.49,0-.75-.02-.06,0-.11,0-.17,0-.32,0-.64,.06-1.05,.2Zm-7.72,2.36c-.43,.04-.84,.22-1.22,.54-.1,.09-.18,.2-.24,.34-.07,.16-.06,.29,.01,.42,.18,.31,.37,.62,.55,.94l.63,1.08s.04,.06,.08,.1l.03,.03,.03-.03s.06-.1,.08-.17v-.05c.14-.48,.36-.87,.68-1.18,.42-.41,.85-.63,1.34-.69,.03,0,.05,0,.07-.02h.03s0-.04,0-.04c-.01-.05-.05-.08-.13-.13-.41-.28-.83-.57-1.25-.85-.05-.03-.1-.07-.17-.11-.06-.03-.11-.07-.16-.11-.09-.06-.18-.09-.29-.09h-.05Zm6.71-2.6h-.07s0,.05,0,.05c-.61,.02-1.22,.04-1.83,.06-.12,0-.22,.04-.31,.12-.09,.08-.19,.16-.28,.23-.12,.1-.24,.2-.36,.3-.28,.24-.52,.52-.71,.81-.26,.39-.42,.82-.49,1.27-.04,.3,0,.61,.12,.94,.02,.06,.07,.12,.14,.17,.08,.06,.16,.11,.24,.16l1.78,1.16s.1,.07,.17,.09h.08s-.04-.07-.04-.07c-.03-.06-.05-.1-.08-.14-.43-.68-.57-1.46-.44-2.38,.04-.31,.16-.62,.34-.92,.4-.66,.92-1.19,1.55-1.57l.26-.16v-.03s-.04-.03-.06-.04v-.05Zm-10.37,.75h-.02s-.03,.07-.03,.1c0,.04,0,.08,0,.11l.02,.48c.01,.35,.03,.7,.04,1.05,0,.19,0,.39,0,.63,0,.13,0,.26,0,.39,0,.07,0,.14,.02,.23v.12s.06-.03,.06-.03c.08-.05,.15-.11,.23-.17,.11-.09,.22-.17,.35-.23,.19-.07,.38-.1,.6-.13h.08s.03-.02,.03-.02v-.04s0-.06-.02-.09c-.04-.08-.09-.15-.15-.25-.05-.09-.11-.18-.16-.27-.16-.29-.91-1.66-.91-1.66-.01-.02-.02-.04-.03-.07-.03-.06-.05-.11-.1-.15h-.02Zm7.35-.6c-.12,0-.25,0-.37,.02l-.34,.02c-.18,.01-.36,.02-.54,.03-.56,.03-1.12,.05-1.68,.08-.1,0-.18,.04-.25,.11-.35,.33-.49,.75-.43,1.25,.03,.25,.16,.47,.37,.62,.17,.12,.33,.24,.5,.36,.35,.24,.7,.48,1.05,.72,.05,.03,.1,.06,.17,.1l.06,.03h.05s0-.05,0-.05c0-.04,0-.07,0-.1,0-.08,0-.15,0-.24,0-.14,0-.29,.01-.43,.06-.93,.49-1.7,1.27-2.29,.02-.01,.04-.03,.06-.04,.05-.03,.1-.06,.13-.12l.02-.04-.04-.02s-.04-.02-.06-.02h0Zm-4.11,2.09l-.03,.03h-.02s.04-.07,.04-.07c-.04-.04-.09-.07-.16-.12l-.31-.19c-.59-.37-1.18-.74-1.77-1.11-.14-.08-.27-.16-.43-.25-.03-.01-.05-.02-.1-.04l-.07-.02,.03,.07c.13,.35,.56,1.14,1.27,2.37,0,.02,.02,.03,.03,.05,.03,.06,.05,.1,.1,.13h.02s.02,0,.02,0c.6-.61,.72-.66,1.05-.73,.08-.02,.19-.04,.32-.09h.02s0-.04,0-.04Zm-2.7-2.3h-.07s0,.06,0,.06c0,0-.05,.01-.05,.01v.02c-.03,.06,.01,.09,.03,.1,.23,.14,.46,.28,.69,.42l.25,.15c.54,.33,1.09,.65,1.64,.98,.01,0,.03,.02,.04,.03,.03,.02,.06,.05,.13,.05,0,0,.01,0,.02,0h.03s0-.15,0-.15c0-.1-.01-.21-.01-.32,0-.17,0-.34,.08-.51,.04-.09,.09-.19,.15-.3l.05-.1v-.02s-.01-.04-.01-.04h-.02c-1.07-.05-2.12-.2-2.93-.32v-.06Z"/>
  <g>
    <polygon points="135.31 97.14 135.3 123.37 106.72 102.65 135.31 97.14" style="fill: #f7c961;"/>
    <polygon points="135.3 123.37 106.72 102.65 106.71 132.91 135.3 123.37" style="fill: #eaa13e;"/>
    <path d="M162.89,102.7l-6.8-28.34-20.78,22.79h14.82c1.8,0,3.58,.3,5.27,.9,2.27,.81,5.3,2.26,7.49,4.65Z" style="fill: #eaa13e;"/>
    <polygon points="106.71 132.91 106.71 147.58 106.7 167.63 134.24 148.5 106.71 132.91" style="fill: #d4702c;"/>
    <polygon points="203.72 202.28 175.52 202.28 170.79 193.48 203.72 202.28" style="fill: #87320e;"/>
    <polygon points="134.39 202.28 106.73 202.28 134.73 184.21 134.39 202.28" style="fill: #87320e;"/>
    <polygon points="106.7 167.63 106.73 202.28 134.73 184.21 106.7 167.63" style="fill: #87320e;"/>
    <path d="M162.9,118.11l3.74,29.4-31.33-24.14s14.66,.35,17.07,0c2.41-.34,8.21-2.02,10.53-5.26Z" style="fill: #87320e;"/>
    <path d="M189.22,130.51l-26.31-12.4,3.74,29.4s14.48-2.8,22.58-17Z" style="fill: #87320e;"/>
    <polygon points="167.49 147.51 135.3 123.37 134.24 147.51 167.49 147.51" style="fill: #d4702c;"/>
    <path d="M181.43,80.59l-18.54,22.11-6.8-28.34s12.93-.87,25.34,6.24Z" style="fill: #f7c961;"/>
    <path d="M194.96,110.41l-32.07-7.71,18.53-22.11s13.66,8.24,13.54,29.82Z" style="fill: #d4702c;"/>
    <polygon points="106.73 74.34 135.53 97.18 106.72 102.65 106.73 74.34" style="fill: #87320e;"/>
    <polygon points="156.09 74.36 135.53 97.18 106.73 74.34 156.09 74.36" style="fill: #87320e;"/>
    <path d="M184.46,167.69l-26.59,1.89,9.68-22.01s6.22,2.67,16.92,20.11Z" style="fill: #eaa13e;"/>
    <path d="M167.62,147.58l-9.89,21.94s-4.43-8.08-7.98-12.52c-3.31-4.14-7.92-8.4-15.5-9.49l33.38,.06Z" style="fill: #f7c961;"/>
    <polygon points="203.72 202.28 184.5 167.79 170.79 193.48 203.72 202.28" style="fill: #f7c961;"/>
    <polygon points="157.73 169.52 170.79 193.48 184.43 167.62 157.73 169.52" style="fill: #d4702c;"/>
    <path d="M162.89,102.7s7.49,6.45,.01,15.42l31.92-9.55-31.94-5.87Z" style="fill: #eaa13e;"/>
    <path d="M194.82,108.57l-31.92,9.55,26.32,12.39s6.77-11.61,5.6-21.94Z" style="fill: #eaa13e;"/>
    <polygon points="134.24 148.5 135.3 123.37 106.71 132.91 134.24 148.5" style="fill: #d4702c;"/>
    <polygon points="134.47 147.48 106.7 157.68 106.7 167.63 134.47 147.48" style="fill: #eaa13e;"/>
    <polygon points="134.47 147.48 134.73 184.21 106.7 167.63 134.47 147.48" style="fill: #eaa13e;"/>
  </g>
  <g>
    <path d="M85.02,66.67c-.59,.03-1.17-.05-1.74-.24-.15-.05-.31-.09-.47-.1-.66-.06-1.32-.03-1.96,.21-.26,.1-.54,.17-.82,.2-.23,.03-.4,.12-.53,.28-.08,.09-.15,.19-.21,.3-.24,.49-.49,.99-.71,1.49-.18,.4-.36,.81-.59,1.18-.1,.16-.21,.3-.3,.47-.33,.62-.73,1.19-1.21,1.7-.04,.04-.08,.09-.12,.14-.4,.44-.67,.96-.91,1.5-.06,.13-.1,.28-.12,.42-.05,.35-.06,.71,.03,1.06,.19,.75,.36,1.5,.6,2.24,.35,1.08,.61,2.17,.63,3.31,0,.1,0,.2,.02,.29,.07,.99,.3,1.94,.78,2.81,.16,.29,.32,.58,.49,.86,.16,.27,.36,.52,.58,.76,.3,.34,.61,.67,.87,1.04,.54,.76,1.19,1.4,1.91,1.97,.71,.56,1.44,1.06,2.27,1.42,.44,.19,.83,.48,1.17,.81,.71,.68,1.51,1.25,2.35,1.75,.72,.43,1.4,.9,2.03,1.46,.33,.3,.61,.64,.8,1.04,.13,.3,.25,.61,.35,.93,.11,.37,.2,.76,.29,1.14,.12,.52,.17,1.04,.11,1.57-.05,.47-.18,.92-.46,1.3-.27,.36-.49,.76-.67,1.18-.23,.53-.59,.97-1.06,1.29-.48,.34-.98,.65-1.48,.96-.72,.45-1.51,.62-2.36,.47-.41-.07-.81-.19-1.21-.32-.7-.23-1.31-.63-1.8-1.17-.48-.54-.93-1.1-1.37-1.68-.25-.33-.45-.7-.67-1.05-.4-.65-.85-1.26-1.39-1.8-.07-.07-.13-.14-.19-.22-.27-.39-.09-.81,.38-.87,.2-.03,.41,.01,.62,0,.16,0,.29,.07,.39,.17,.15,.16,.29,.33,.43,.5,.16,.19,.3,.39,.47,.56,.42,.41,.73,.88,.96,1.42,.45,1.05,1.15,1.9,2.05,2.6,.49,.38,1.04,.58,1.65,.66,.22,.03,.44,.02,.65-.06,.59-.23,1.13-.53,1.61-.93,.11-.09,.21-.21,.29-.33,.26-.34,.41-.72,.54-1.12,.19-.56,.25-1.12,.11-1.7-.09-.36-.19-.71-.28-1.07-.14-.6-.42-1.12-.79-1.61-.24-.33-.52-.62-.83-.88-.55-.47-1.11-.93-1.56-1.5-.24-.3-.5-.57-.82-.79-.35-.24-.72-.47-1.08-.7-.26-.17-.52-.33-.78-.49-.19-.12-.37-.24-.56-.35-.34-.19-.71-.32-1.1-.4-.68-.15-1.31-.42-1.86-.84-.44-.33-.88-.67-1.32-1-.09-.07-.16-.15-.24-.23-.37-.38-.68-.8-.96-1.25-.17-.28-.35-.56-.56-.82-.47-.6-.89-1.23-1.24-1.91-.47-.93-.94-1.86-1.39-2.8-.39-.81-.85-1.57-1.38-2.29-.34-.46-.66-.94-.93-1.45-.63-1.21-1.11-2.48-1.51-3.78-.07-.23-.12-.48-.17-.72-.08-.41-.15-.82-.22-1.23-.24-1.4-.18-2.78,.33-4.13,.01-.03,.03-.07,.04-.1,.15-.44,.26-.89,.3-1.36,.04-.53,.16-1.04,.32-1.54,.24-.76,.63-1.44,1.19-2,.35-.36,.73-.69,1.09-1.04,.42-.4,.83-.8,1.25-1.19,.42-.41,.85-.82,1.28-1.22,.5-.47,1-.93,1.51-1.39,.58-.52,1.16-1.06,1.76-1.56,.97-.81,1.95-1.6,2.93-2.4,.41-.33,.81-.68,1.26-.95,1.3-.81,2.74-1.16,4.28-1.1,.42,.02,.83,.08,1.24,.13,.41,.05,.83,.08,1.25,.06,.2,0,.39-.01,.59-.02,.8-.02,1.59,.06,2.37,.24,1.24,.3,2.44,.71,3.59,1.29,.92,.46,1.85,.91,2.82,1.24,.68,.24,1.37,.47,2.05,.71,.96,.33,1.92,.66,2.88,1,1.13,.41,2.24,.87,3.32,1.39,.89,.43,1.8,.83,2.71,1.23,.5,.23,1.01,.44,1.51,.68,.22,.1,.43,.23,.63,.37,.5,.35,1,.71,1.5,1.06,.54,.38,1.09,.75,1.69,1.03,.47,.22,.94,.42,1.41,.63,.08,.03,.17,.04,.25,.04,.91,0,1.81-.1,2.69-.34,.41-.11,.83-.22,1.24-.33,.52-.14,1.05-.27,1.56-.42,.35-.11,.69-.24,1.03-.39,1.07-.46,2.07-1.07,3.08-1.64,.12-.07,.22-.15,.33-.23,.6-.44,1.12-.95,1.62-1.49,.64-.69,1.31-1.36,1.98-2.02,.88-.89,1.6-1.89,2.12-3.02,.4-.87,.75-1.76,1.12-2.64,.07-.17,.14-.34,.23-.5,.06-.11,.13-.21,.22-.29,.13-.13,.29-.19,.47-.12,.18,.08,.24,.24,.23,.42,0,.12-.02,.24-.05,.36-.09,.41-.13,.82-.15,1.24-.02,.37-.06,.73-.1,1.1-.03,.28-.08,.56-.12,.84-.06,.5-.15,.99-.3,1.48-.15,.5-.23,1-.22,1.52,.02,1.08-.21,2.11-.67,3.1-.13,.28-.24,.56-.34,.85-.14,.38-.14,.77-.02,1.15,.09,.25,.18,.51,.3,.75,.08,.16,.04,.26-.07,.36-.04,.03-.07,.07-.12,.09-.38,.23-.75,.47-1.15,.65-.2,.09-.4,.2-.59,.3-1.44,.79-2.93,1.49-4.5,1.97-1.16,.36-2.32,.7-3.48,1.05-.13,.04-.28,.06-.41,.15,.04,.02,.06,.04,.08,.04,.7-.03,1.39-.08,2.09-.1,1.92-.06,3.81-.29,5.7-.61,.44-.08,.86-.19,1.28-.33,.25-.08,.52-.13,.79-.18,.14-.02,.3-.02,.44,.01,.29,.05,.37,.25,.25,.51-.18,.41-.42,.78-.73,1.1-.41,.42-.65,.95-.92,1.45-.03,.06-.06,.14-.07,.21-.02,.3-.19,.43-.47,.46-.17,.02-.34,.05-.51,.08-.17,.03-.34,.05-.5,.11-.39,.15-.8,.22-1.21,.28-.05,0-.1,.03-.19,.05,.17,.11,.31,.15,.45,.18,.63,.15,1.26,.3,1.9,.44,.05,.01,.1,.02,.14,.03,.28,.1,.36,.32,.2,.58-.06,.1-.1,.19-.12,.3-.08,.43-.18,.86-.24,1.3-.05,.3-.08,.61-.08,.91,0,.82,.04,1.64,.07,2.46,.02,.64,.14,1.26,.37,1.87,.11,.3,.21,.6,.29,.91,.34,1.27,.12,2.45-.59,3.55-.43,.67-.97,1.26-1.52,1.84-.62,.66-1.26,1.31-1.78,2.05-.23,.32-.42,.66-.53,1.04-.1,.34-.19,.69-.29,1.02-.08,.26-.17,.51-.28,.76-.13,.31-.33,.57-.59,.79-.26,.21-.55,.37-.85,.5-.61,.27-1.1,.68-1.53,1.18-1.12,1.3-1.81,2.81-2.18,4.48-.09,.39-.18,.79-.27,1.18-.09,.38-.24,.74-.42,1.09-.28,.53-.6,1.03-1.06,1.44-.35,.3-.64,.67-.84,1.1-.13,.28-.39,.34-.64,.16-.14-.11-.28-.24-.39-.38-.31-.37-.6-.74-.9-1.12-.15-.18-.27-.38-.34-.6-.27-.77-.68-1.47-1.11-2.15-.43-.68-.89-1.35-1.32-2.03-.49-.79-.97-1.59-1.45-2.39-.06-.1-.13-.2-.22-.33-.01,.07-.03,.11-.02,.14,.16,.55,.28,1.12,.5,1.65,.37,.88,.71,1.77,1.07,2.66,.52,1.31,.99,2.64,1.59,3.91,.32,.68,.55,1.39,.83,2.08,.07,.16,.09,.33,.04,.53-.09,.05-.2,.11-.3,.17-.33,.19-.7,.3-1.01,.52-.1,.07-.21,.05-.31-.02-.05-.04-.1-.08-.13-.13-.38-.52-.77-1.04-1.05-1.64-.11-.24-.23-.49-.36-.73-.02-.05-.07-.08-.12-.14-.05,.51-.1,.98-.16,1.46-.04,.35-.1,.71-.12,1.06-.01,.24-.08,.45-.21,.65-.68,.1-1.36,.2-2.04,.29-.8,.11-1.59,.08-2.38-.07-.22-.04-.44-.07-.65-.09-.3-.03-.59,0-.87,.11-.37,.14-.72,.31-1.05,.53-.21,.14-.43,.28-.65,.4-.14,.08-.29,.13-.44,.18-.35,.11-.71,.2-1.06,.31-.73,.22-1.47,.28-2.21,.1-.11-.03-.22-.05-.32-.07-.28-.06-.56-.06-.84-.05-.46,.03-.9,.13-1.32,.3-.42,.16-.85,.2-1.3,.14-.28-.04-.56-.06-.84-.09-.43-.04-.85-.1-1.26-.23-.53-.16-.98-.44-1.36-.84-.2-.2-.39-.41-.56-.63-.18-.22-.39-.4-.61-.58-.26-.21-.51-.42-.75-.65-.26-.26-.48-.56-.63-.9-.1-.24-.19-.48-.31-.71-.15-.29-.17-.59-.06-.89,.15-.39,.22-.8,.28-1.21,.05-.38,.16-.74,.37-1.07,.14-.23,.3-.44,.46-.67,.27-.38,.55-.75,.8-1.14,.37-.59,.71-1.2,1.08-1.8,.35-.57,.76-1.08,1.33-1.45,.12-.08,.23-.18,.36-.26,.45-.29,.8-.68,1.04-1.16,.13-.25,.23-.51,.33-.78,.2-.51,.39-1.03,.58-1.55,.21-.56,.51-1.06,.92-1.49,.3-.32,.55-.69,.7-1.12,.18-.52,.19-1.05-.02-1.57-.17-.41-.25-.82-.1-1.25,0-.02,0-.05-.01-.09-.08-.07-.18-.14-.27-.23-.29-.28-.62-.51-1-.67-.59-.26-1.1-.64-1.53-1.12-.53-.59-1.05-1.2-1.49-1.86-.49-.73-1.06-1.38-1.7-1.97-.22-.21-.42-.44-.61-.68-.44-.55-.77-1.16-1.02-1.82-.23-.61-.43-1.23-.65-1.84-.11-.31-.23-.62-.36-.92-.24-.54-.64-.95-1.14-1.26-.25-.15-.5-.32-.73-.5-.57-.45-1.02-1.02-1.38-1.66-.3-.53-.6-1.07-.91-1.6-.31-.54-.52-1.11-.57-1.73-.01-.12-.03-.24-.05-.36-.05-.01-.08-.03-.12-.02Zm14.22,20.43c.02,.58-.22,1.07-.5,1.55-.52,.89-.99,1.8-1.39,2.75-.19,.45-.42,.88-.67,1.31-.25,.43-.61,.76-.98,1.09-.38,.34-.79,.66-1.19,.98-.37,.3-.65,.67-.87,1.08-.15,.28-.28,.57-.39,.87-.24,.65-.58,1.24-1.01,1.78-.22,.28-.42,.57-.63,.86-.21,.3-.33,.63-.34,.99-.03,.6-.12,1.19-.32,1.74,.11,.29,.22,.57,.32,.84,.16,.44,.43,.81,.81,1.06,.45,.29,.82,.66,1.2,1.03,.12,.12,.25,.24,.38,.35,.25,.21,.52,.36,.83,.46,.41,.13,.83,.22,1.26,.27,.41,.04,.83,.07,1.25,.11,.31,.02,.61-.02,.91-.12,.34-.11,.68-.19,1.04-.23,.43-.05,.86-.03,1.28,.08,.09,.02,.19,.04,.28,.07,.74,.23,1.48,.17,2.21-.06,.25-.07,.49-.15,.74-.2,.25-.05,.45-.17,.64-.34,.29-.24,.59-.48,.9-.69,.21-.14,.45-.25,.68-.35,.4-.17,.82-.23,1.26-.19,.26,.03,.51,.06,.76,.11,.71,.13,1.41,.15,2.12,.05,.56-.07,1.12-.16,1.67-.25,.05,0,.09-.03,.16-.05,.01-.12,.04-.24,.04-.36,.04-.82,.07-1.64,.1-2.46,0-.15,.01-.29,.04-.44,.03-.18,.12-.35,.27-.47,.1-.08,.22-.07,.3,.02,.06,.06,.1,.14,.14,.21,.09,.17,.18,.35,.26,.53,.14,.34,.32,.66,.54,.96,.28,.38,.5,.78,.7,1.21,.04,.08,.08,.15,.13,.23,.26-.05,.49-.15,.7-.3,0-.05,0-.09-.02-.12-.47-.9-.78-1.85-1.01-2.83-.09-.38-.21-.75-.34-1.12-.44-1.22-.95-2.42-1.47-3.61-.34-.79-.65-1.59-.95-2.39-.11-.3-.18-.61-.26-.92-.06-.26-.11-.53-.15-.79-.02-.1-.04-.2-.03-.29,.02-.19,.22-.3,.38-.2,.11,.07,.21,.16,.3,.27,.11,.13,.2,.28,.29,.42,.8,1.21,1.56,2.43,2.32,3.66,.95,1.53,1.95,3.03,3.01,4.48,.2,.28,.39,.56,.59,.84,.03,.05,.08,.09,.13,.14,.06-.06,.11-.11,.16-.16,.25-.29,.49-.58,.73-.87,.19-.24,.39-.47,.56-.73,.32-.46,.49-.98,.6-1.53,.11-.58,.22-1.15,.36-1.72,.26-1.04,.71-2.01,1.3-2.91,.4-.62,.87-1.18,1.42-1.68,.36-.32,.76-.58,1.19-.8,.16-.08,.33-.16,.49-.25,.27-.16,.48-.38,.61-.67,.09-.2,.18-.4,.25-.61,.09-.25,.17-.51,.23-.77,.17-.67,.5-1.25,.92-1.78,.24-.3,.48-.59,.74-.87,.43-.47,.87-.93,1.31-1.4,.48-.51,.93-1.05,1.27-1.66,.43-.77,.54-1.59,.37-2.45-.06-.3-.14-.6-.25-.88-.26-.71-.39-1.44-.43-2.19-.04-.84-.07-1.69-.11-2.53-.02-.42,.02-.83,.09-1.24,.05-.29,.1-.58,.15-.87,.02-.13,.04-.26,.06-.4-.71-.28-1.4-.54-2.09-.83-.69-.29-1.38-.57-2-1.04,.06-.05,.09-.1,.14-.12,.09-.03,.19-.05,.29-.06,.24-.01,.49-.03,.73-.02,.98,.05,1.96-.02,2.94-.05,.04,0,.07-.02,.13-.03,.27-.9,.84-1.67,1.33-2.46-.06-.12-.15-.09-.23-.08-.4,.04-.81,.08-1.21,.13-1.01,.14-2.01,.3-3.02,.43-1.17,.15-2.34,.2-3.52,.16-.69-.02-1.37-.02-2.06-.03-.27,0-.54,0-.81-.01-.03,0-.07-.02-.11-.04,.05-.15,.16-.22,.29-.26,.31-.12,.61-.27,.93-.34,1.95-.45,3.83-1.14,5.67-1.9,.94-.39,1.85-.85,2.74-1.33,.54-.29,1.08-.58,1.61-.88,.02-.01,.03-.03,.06-.07-.02-.07-.04-.15-.07-.23-.06-.19-.13-.37-.18-.56-.1-.36-.11-.73-.03-1.09,.07-.3,.16-.59,.26-.88,.07-.21,.15-.41,.23-.62,.2-.56,.32-1.13,.33-1.72,.01-.36,.02-.71,.02-1.07,0-.43,.06-.86,.19-1.27,.2-.65,.34-1.3,.44-1.97,.05-.31,.12-.63,.18-.94,.03-.18,.07-.36,.04-.6-.06,.08-.09,.12-.11,.17-.27,.62-.53,1.24-.81,1.85-.46,1.01-1.06,1.93-1.83,2.74-.41,.44-.86,.84-1.3,1.24-.61,.55-1.22,1.09-1.83,1.64-.69,.63-1.43,1.18-2.25,1.64-.55,.3-1.09,.61-1.65,.89-.83,.42-1.7,.76-2.6,1.01-.79,.22-1.58,.45-2.37,.67-.59,.17-1.2,.24-1.82,.26-.07,0-.15,0-.22,.01-.25,.05-.44,.19-.54,.44-.25,.62-.39,1.26-.42,1.93-.03,.65-.12,1.29-.27,1.93-.08,.34-.18,.66-.42,.93-.08,.09-.13,.21-.16,.33-.08,.42-.26,.79-.47,1.15-.56,.97-.93,2.02-1.26,3.09-.18,.59-.36,1.17-.55,1.75-.28,.84-.67,1.63-1.15,2.37-.46,.71-.9,1.43-1.36,2.14-.28,.43-.58,.85-.89,1.26-.44,.59-.87,1.19-1.34,1.75-.65,.77-1.34,1.49-2.13,2.13-.28,.22-.51,.49-.76,.74-.24,.24-.46,.51-.71,.75-.76,.73-1.67,.93-2.68,.71-.05-.01-.09-.03-.14-.05-.49-.24-1.02-.32-1.55-.45-.02,0-.04,.01-.07,.02-.01,.02-.03,.04-.03,.06Zm12.42-24.85c-.44-.31-.88-.62-1.32-.93-.29-.21-.58-.41-.86-.63-.43-.33-.9-.59-1.4-.81-.79-.34-1.58-.68-2.37-1.01-.92-.38-1.83-.77-2.75-1.13-1.18-.47-2.38-.92-3.56-1.39-1.16-.46-2.33-.91-3.48-1.39-1.3-.54-2.61-1.06-3.99-1.38-.2-.05-.41-.09-.61-.14-.76-.18-1.52-.26-2.3-.22-.9,.04-1.79,0-2.68-.12-.89-.12-1.76-.04-2.62,.19-.76,.21-1.43,.57-2.03,1.08-.58,.51-1.15,1.03-1.74,1.53-.59,.5-1.19,.99-1.78,1.48-.63,.53-1.26,1.05-1.89,1.58-.49,.41-.99,.8-1.48,1.21-.53,.45-1.05,.92-1.58,1.38-.3,.27-.61,.53-.9,.81-.43,.42-.87,.83-1.27,1.28-.59,.66-.94,1.46-1.11,2.33-.04,.23-.07,.46-.08,.69-.03,.51-.12,1-.27,1.48-.06,.17-.1,.35-.16,.53-.37,1.13-.44,2.28-.3,3.45,.14,1.21,.39,2.4,.8,3.54,.22,.62,.46,1.24,.69,1.86,.16,.42,.4,.81,.65,1.19,.45,.69,.91,1.36,1.33,2.07,.43,.74,.82,1.5,1.22,2.26,.4,.77,.78,1.56,1.26,2.28,.14,.2,.28,.4,.42,.6,.23,.33,.47,.66,.69,1,.38,.59,.8,1.14,1.33,1.61,.35,.31,.68,.64,1.03,.94,.51,.44,1.09,.75,1.74,.92,.58,.15,1.11,.39,1.61,.7,.53,.33,1.07,.64,1.6,.98,.4,.26,.79,.54,1.13,.88,.48,.47,1,.9,1.56,1.29,.46,.32,.9,.67,1.29,1.09,.69,.74,1.01,1.64,1.14,2.62,.11,.82,0,1.61-.26,2.39-.15,.44-.28,.89-.53,1.29-.12,.2-.27,.38-.45,.53-.39,.32-.8,.61-1.24,.85-.54,.29-1.09,.34-1.67,.15-.53-.17-1.03-.4-1.46-.75-.47-.37-.95-.73-1.38-1.16-.44-.44-.8-.93-1.06-1.49-.08-.17-.16-.33-.22-.5-.19-.47-.44-.9-.78-1.28-.19-.22-.36-.46-.56-.71-.14,0-.3,.01-.45,.02-.05,.09,.01,.13,.06,.16,.65,.54,1.12,1.23,1.52,1.96,.35,.64,.72,1.25,1.18,1.82,.23,.29,.45,.58,.64,.89,.22,.36,.53,.61,.9,.79,.78,.4,1.61,.58,2.49,.54,.48-.02,.91-.2,1.3-.45,.5-.31,.99-.63,1.47-.97,.42-.29,.76-.66,.98-1.13,.21-.45,.47-.86,.77-1.25,.13-.17,.21-.36,.26-.56,.07-.29,.09-.58,.05-.88-.05-.36-.11-.73-.18-1.09-.07-.33-.17-.66-.27-.99-.14-.49-.37-.92-.69-1.32-.49-.61-1.07-1.11-1.71-1.54-.59-.4-1.2-.76-1.75-1.22-.32-.27-.65-.53-.96-.8-.42-.36-.86-.7-1.39-.88-.8-.27-1.44-.77-2.07-1.3-.7-.59-1.28-1.28-1.8-2.02-.2-.28-.42-.54-.67-.78-.71-.71-1.38-1.46-1.94-2.3-.09-.13-.17-.27-.25-.41-.43-.69-.61-1.44-.59-2.24,0-.28,.02-.56,.04-.84,.05-.63-.02-1.25-.2-1.85-.21-.74-.4-1.49-.62-2.23-.2-.68-.25-1.37-.24-2.07,0-.52,.17-.99,.46-1.41,.19-.29,.37-.58,.59-.84,.56-.67,1.03-1.4,1.42-2.18,.2-.41,.39-.82,.57-1.23,.2-.45,.41-.89,.63-1.33,.08-.16,.19-.31,.28-.46-.04-.08-.11-.06-.17-.05-.16,.05-.33,.1-.49,.16-.7,.27-1.41,.32-2.13,.14-.16-.04-.34-.07-.45-.19-.01-.1,.05-.13,.1-.15,.16-.03,.31-.06,.47-.08,.17-.02,.34-.02,.51-.02,.57-.02,1.11-.14,1.64-.37,.2-.09,.42-.14,.64-.17,.29-.05,.58-.07,.88-.08,.28-.01,.56-.07,.82-.17,.99-.37,1.99-.35,3-.08,.3,.08,.59,.16,.89,.22,.19,.04,.39,.05,.59,0,.11-.84,.09-1.65-.33-2.4-.37-.65-.77-1.28-1.28-1.84-.28-.31-.6-.58-1.03-.67-.06-.01-.12-.04-.17-.07-.13-.09-.13-.28,0-.37,.11-.07,.23-.09,.35-.07,.3,.03,.57,.14,.79,.35,.26,.24,.45,.52,.63,.81,.29,.48,.57,.97,.87,1.45,.56,.91,.91,1.89,.99,2.97,.04,.46,.1,.93,.16,1.39,.04,.31,.13,.6,.27,.88,.22,.47,.43,.94,.65,1.4,.23,.47,.51,.92,.84,1.33,.28,.34,.6,.62,.96,.85,.96,.61,1.66,1.45,2.14,2.47,.22,.47,.41,.95,.6,1.42,.13,.3,.25,.61,.38,.92,.36,.81,.81,1.57,1.42,2.22,.39,.42,.73,.89,1.05,1.37,.46,.68,.92,1.36,1.46,1.98,.17,.19,.34,.39,.52,.57,.34,.36,.75,.63,1.2,.84,.3,.14,.6,.27,.89,.41,.65-.32,1.31-.64,1.97-.96,.45-.22,.91-.43,1.36-.64,.32-.15,.61-.35,.87-.61,.21-.21,.43-.4,.65-.6,.21-.19,.45-.34,.71-.46,.28-.12,.49-.31,.7-.52,.65-.67,1.18-1.44,1.67-2.24,.48-.78,.96-1.57,1.44-2.35,.04-.06,.07-.13,.11-.19,.46-.92,.9-1.85,1.22-2.83,.11-.34,.25-.67,.37-1,.14-.37,.28-.73,.4-1.1,.23-.7,.47-1.39,.75-2.07,.18-.42,.3-.86,.35-1.31,.06-.5,.15-.99,.27-1.48,.11-.45,.16-.92,.17-1.38,0-.22,.03-.44,.08-.66,.08-.42,.18-.84,.27-1.26,.01-.05,0-.1,.01-.15-.07-.06-.13-.12-.2-.17Zm1.14,.8c-.02,.07-.04,.11-.04,.16-.02,.28-.03,.56-.04,.84-.02,.36,0,.71,.06,1.06,.14,.72,.04,1.41-.18,2.1-.08,.25-.2,.47-.34,.69-.49,.76-.86,1.56-1.01,2.46-.09,.51-.27,.99-.48,1.46-.18,.39-.31,.8-.41,1.22-.08,.37-.17,.74-.26,1.11-.23,.96-.66,1.81-1.27,2.59-.33,.42-.66,.85-.98,1.29-.18,.26-.33,.54-.5,.81-.16,.26-.31,.52-.48,.78-.24,.37-.49,.73-.75,1.09-.14,.19-.28,.38-.44,.54-.36,.35-.73,.69-1.1,1.03-.35,.32-.76,.58-1.18,.8-.87,.46-1.74,.9-2.61,1.35-.09,.04-.18,.09-.26,.13-.49,.28-1.01,.43-1.57,.44-.02,0-.04,.02-.08,.03,0,.07,0,.14-.01,.21-.03,.63,.32,1.15,.92,1.34,.37,.12,.75,.24,1.12,.34,.2,.06,.41,.08,.61,.12,.25,.04,.49,0,.71-.13,.54-.32,1.08-.63,1.48-1.13,.05-.06,.1-.11,.16-.16,.56-.44,1.09-.91,1.7-1.29,.28-.18,.52-.4,.76-.63,.68-.66,1.22-1.44,1.8-2.18,.07-.1,.14-.2,.22-.29,.37-.43,.68-.9,.96-1.39,.41-.71,.83-1.42,1.23-2.13,.67-1.21,1.15-2.49,1.47-3.83,.12-.5,.26-1,.37-1.5,.22-1.04,.7-1.95,1.36-2.78,.16-.2,.25-.4,.27-.66,.02-.33,.11-.65,.16-.98,.07-.45,.15-.89,.2-1.34,.09-.81,.28-1.59,.7-2.3,.03-.05,.04-.11,.06-.18-.81-.29-1.57-.65-2.31-1.1Zm-.74-.52c-.04,.08-.07,.13-.08,.18-.07,.32-.14,.65-.2,.97-.05,.25-.06,.51-.02,.77,.04,.24,.04,.49,0,.73-.03,.24-.06,.49-.08,.73-.08,.92-.29,1.81-.56,2.69-.19,.6-.34,1.2-.52,1.8-.22,.74-.53,1.44-.94,2.11-.48,.79-.84,1.63-1.16,2.5-.33,.91-.72,1.79-1.19,2.64-.31,.57-.73,1.07-1.14,1.57-.27,.32-.52,.65-.79,.97-.09,.11-.19,.23-.28,.34-.24,.27-.47,.53-.71,.79-.12,.13-.24,.24-.37,.35-.22,.19-.46,.37-.68,.56-.21,.18-.44,.31-.7,.4-.62,.21-1.17,.56-1.73,.88-.49,.28-.97,.57-1.46,.85-.17,.1-.36,.15-.54,.23-.08,.04-.05,.1,0,.17,.13,0,.23-.11,.36-.14,.37-.11,.74-.26,1.12-.35,.83-.19,1.57-.55,2.25-1.04,.34-.24,.71-.44,1-.74,.08-.09,.18-.17,.24-.27,.44-.66,1.04-1.18,1.66-1.65,.54-.4,.97-.9,1.32-1.46,.36-.57,.74-1.13,1.12-1.68,.39-.58,.71-1.2,.92-1.87,.3-1.02,.61-2.04,.99-3.04,.1-.27,.21-.55,.34-.81,.24-.5,.46-1,.63-1.53,.05-.16,.12-.32,.2-.47,.29-.53,.51-1.08,.73-1.64,.08-.22,.14-.44,.15-.68,.03-.48,.05-.95,.07-1.43,0-.11,0-.22-.01-.33-.08-.61,.01-1.2,.17-1.78,.07-.25,.13-.5,.19-.75,.02-.09,.03-.19,.04-.3-.11-.08-.22-.16-.34-.26Z" style="fill: #93582a;"/>
    <path d="M99.34,87.02c.52,.12,1.06,.21,1.55,.45,.04,.02,.09,.04,.14,.05,1.02,.22,1.92,.02,2.68-.71,.25-.24,.47-.5,.71-.75,.25-.25,.49-.52,.76-.74,.79-.63,1.48-1.36,2.13-2.13,.47-.56,.9-1.16,1.34-1.75,.31-.41,.6-.83,.89-1.26,.46-.71,.9-1.43,1.36-2.14,.48-.74,.88-1.53,1.15-2.37,.19-.58,.38-1.17,.55-1.75,.33-1.07,.7-2.12,1.26-3.09,.21-.36,.39-.74,.47-1.15,.02-.12,.08-.24,.16-.33,.24-.27,.34-.59,.42-.93,.15-.63,.24-1.27,.27-1.93,.03-.67,.17-1.31,.42-1.93,.1-.25,.29-.39,.54-.44,.07-.01,.15,0,.22-.01,.62-.02,1.22-.09,1.82-.26,.79-.22,1.58-.46,2.37-.67,.9-.25,1.77-.59,2.6-1.01,.56-.28,1.1-.59,1.65-.89,.82-.45,1.56-1.01,2.25-1.64,.61-.55,1.22-1.1,1.83-1.64,.45-.4,.89-.81,1.3-1.24,.77-.81,1.37-1.72,1.83-2.74,.28-.61,.54-1.23,.81-1.85,.02-.05,.06-.09,.11-.17,.03,.24-.01,.42-.04,.6-.06,.31-.13,.62-.18,.94-.1,.67-.24,1.33-.44,1.97-.13,.41-.18,.84-.19,1.27,0,.36-.01,.71-.02,1.07-.02,.59-.13,1.17-.33,1.72-.07,.21-.16,.41-.23,.62-.09,.29-.19,.58-.26,.88-.09,.36-.07,.73,.03,1.09,.05,.19,.12,.37,.18,.56,.03,.08,.05,.16,.07,.23-.03,.03-.04,.06-.06,.07-.54,.29-1.07,.59-1.61,.88-.9,.48-1.8,.94-2.74,1.33-1.85,.76-3.72,1.45-5.67,1.9-.32,.07-.62,.22-.93,.34-.12,.05-.24,.11-.29,.26,.04,.02,.08,.04,.11,.04,.27,0,.54,0,.81,.01,.69,0,1.37,0,2.06,.03,1.18,.04,2.35,0,3.52-.16,1.01-.13,2.01-.29,3.02-.43,.4-.06,.8-.09,1.21-.13,.08,0,.17-.04,.23,.08-.49,.79-1.06,1.55-1.33,2.46-.06,.02-.1,.03-.13,.03-.98,.03-1.96,.1-2.94,.05-.24-.01-.49,0-.73,.02-.1,0-.19,.03-.29,.06-.05,.02-.08,.07-.14,.12,.63,.47,1.32,.76,2,1.04,.69,.29,1.38,.55,2.09,.83-.02,.13-.04,.27-.06,.4-.05,.29-.1,.58-.15,.87-.07,.41-.11,.83-.09,1.24,.03,.84,.07,1.69,.11,2.53,.03,.75,.17,1.48,.43,2.19,.11,.29,.19,.58,.25,.88,.17,.86,.06,1.68-.37,2.45-.34,.62-.79,1.15-1.27,1.66-.44,.46-.88,.93-1.31,1.4-.26,.28-.5,.57-.74,.87-.43,.53-.76,1.11-.92,1.78-.06,.26-.14,.52-.23,.77-.07,.21-.16,.41-.25,.61-.13,.29-.34,.51-.61,.67-.16,.09-.32,.17-.49,.25-.43,.21-.83,.47-1.19,.8-.55,.5-1.01,1.06-1.42,1.68-.59,.9-1.04,1.86-1.3,2.91-.14,.57-.25,1.15-.36,1.72-.11,.55-.28,1.07-.6,1.53-.17,.25-.37,.49-.56,.73-.24,.29-.49,.58-.73,.87-.05,.05-.1,.1-.16,.16-.05-.06-.1-.1-.13-.14-.2-.28-.39-.56-.59-.84-1.06-1.45-2.06-2.95-3.01-4.48-.76-1.23-1.52-2.46-2.32-3.66-.09-.14-.18-.29-.29-.42-.08-.1-.19-.2-.3-.27-.16-.1-.37,0-.38,.2,0,.1,0,.2,.03,.29,.05,.27,.09,.53,.15,.79,.07,.31,.15,.62,.26,.92,.3,.8,.61,1.6,.95,2.39,.51,1.19,1.03,2.38,1.47,3.61,.13,.37,.25,.74,.34,1.12,.23,.98,.53,1.94,1.01,2.83,.02,.03,.01,.07,.02,.12-.21,.15-.44,.25-.7,.3-.05-.09-.1-.16-.13-.23-.2-.42-.42-.83-.7-1.21-.22-.3-.4-.62-.54-.96-.07-.18-.17-.35-.26-.53-.04-.08-.09-.15-.14-.21-.08-.09-.2-.1-.3-.02-.15,.12-.24,.28-.27,.47-.03,.14-.03,.29-.04,.44-.04,.82-.07,1.64-.1,2.46,0,.12-.03,.24-.04,.36-.06,.02-.11,.04-.16,.05-.56,.08-1.11,.17-1.67,.25-.71,.1-1.42,.07-2.12-.05-.25-.05-.51-.08-.76-.11-.43-.05-.86,.01-1.26,.19-.24,.1-.47,.21-.68,.35-.31,.21-.61,.45-.9,.69-.19,.16-.39,.28-.64,.34-.25,.05-.5,.13-.74,.2-.73,.22-1.47,.28-2.21,.06-.09-.03-.19-.05-.28-.07-.42-.11-.85-.13-1.28-.08-.36,.04-.7,.12-1.04,.23-.3,.1-.6,.14-.91,.12-.42-.03-.83-.06-1.25-.11-.43-.05-.85-.14-1.26-.27-.31-.1-.58-.25-.83-.46-.13-.11-.25-.23-.38-.35-.38-.37-.75-.74-1.2-1.03-.39-.25-.65-.63-.81-1.06-.1-.27-.21-.55-.32-.84,.2-.55,.3-1.14,.32-1.74,.02-.36,.14-.7,.34-.99,.2-.29,.41-.58,.63-.86,.43-.54,.77-1.13,1.01-1.78,.11-.3,.24-.59,.39-.87,.22-.41,.5-.79,.87-1.08,.4-.32,.8-.64,1.19-.98,.37-.32,.73-.65,.98-1.09,.25-.42,.48-.85,.67-1.31,.4-.95,.87-1.86,1.39-2.75,.28-.48,.51-.98,.5-1.55,0-.02,.02-.04,.03-.06,.02,0,.05-.02,.07-.02Zm29.46-4.09c.11-.18,.2-.37,.25-.57,.14-.52,.26-1.04,.37-1.57,.12-.62,0-1.19-.36-1.72-.14-.2-.26-.41-.4-.62-.25-.38-.45-.79-.6-1.22-.03-.09-.08-.18-.11-.27-.11-.28-.58-.47-.91-.24-.23,.15-.4,.36-.54,.59-.33,.53-.57,1.11-.84,1.67-.18,.37-.38,.74-.59,1.1-.17,.29-.3,.59-.36,.92-.04,.23-.09,.46-.13,.69-.08,.45-.07,.9,0,1.35,.09,.59,.35,1.09,.77,1.51,.23,.23,.51,.37,.83,.44,.2,.04,.39,.03,.57-.09,.38-.25,.76-.5,1.12-.77,.15-.11,.26-.26,.41-.41,.17-.25,.36-.52,.53-.81Zm-14.62-11.6c-.3,.45-.53,.94-.67,1.46-.19,.71-.38,1.42-.56,2.13-.12,.44-.17,.89-.14,1.35,.06,.83-.05,1.64-.25,2.44-.15,.58-.25,1.17-.38,1.76-.11,.48-.27,.94-.49,1.38-.13,.27-.3,.5-.52,.7-.39,.35-.78,.71-1.21,1.02-.49,.36-1.04,.59-1.58,.85-.23,.11-.47,.21-.71,.3-.43,.16-.83,.36-1.21,.61-.33,.22-.66,.42-.98,.64-.18,.12-.35,.27-.52,.41-.36,.31-.75,.59-1.17,.82-.07,.04-.14,.09-.29,.17,.15,0,.22,0,.27-.02,.51-.18,1-.39,1.39-.79,.3-.31,.64-.57,.99-.81,.4-.27,.84-.46,1.3-.59,.21-.06,.43-.11,.64-.16,1.1-.23,2.04-.76,2.83-1.54,.1-.09,.19-.19,.3-.27,.53-.42,.84-.98,.97-1.64,.06-.3,.12-.6,.19-.9,.03-.12,.05-.24,.09-.36,.18-.57,.37-1.14,.55-1.71,.22-.68,.38-1.37,.44-2.08,.04-.5,.14-.99,.29-1.47,.19-.62,.33-1.26,.42-1.9,.08-.59,.24-1.15,.48-1.69,.17-.4,.35-.81,.51-1.22,.05-.13,.13-.26,.11-.49-.39,.56-.75,1.07-1.1,1.59Zm-6.74,15.1c.37-.15,.76-.29,1.11-.49,.59-.33,1.22-.52,1.87-.64,.49-.09,.94-.24,1.36-.51,.22-.14,.45-.24,.68-.37,.25-.14,.5-.27,.73-.43,.56-.38,.74-.95,.73-1.6,0-.1-.02-.2-.04-.29-.08-.44-.09-.88-.07-1.32,.02-.32,.01-.64,.01-.95,0-.08-.02-.17-.02-.24-.09-.03-.1,.03-.12,.07-.15,.58-.31,1.16-.45,1.74-.06,.25-.08,.51-.11,.76-.02,.17-.03,.34-.05,.51-.03,.33-.21,.57-.47,.75-.19,.13-.39,.26-.58,.39-.21,.15-.41,.31-.62,.45-.22,.15-.46,.28-.7,.41-.08,.05-.18,.08-.26,.13-.28,.2-.59,.29-.91,.37-.24,.05-.48,.12-.71,.2-.17,.06-.34,.14-.49,.24-.42,.25-.83,.51-1.25,.77-.04,.02-.07,.06-.13,.11,.2,.03,.35-.02,.49-.08Zm16.45,2.7c.23,.12,.46,.09,.64-.09,.09-.09,.18-.2,.24-.32,.16-.29,.28-.6,.35-.92,.05-.21,.09-.43,.13-.65,.07-.34,.03-.68-.07-1.01-.12-.38-.36-.6-.76-.64-.21-.02-.41-.02-.62-.03-.16,0-.29,.06-.38,.18-.08,.11-.15,.22-.2,.34-.13,.34-.17,.69-.11,1.04,.05,.29,.07,.58,.03,.88-.04,.26,.04,.48,.2,.68,.11,.13,.22,.26,.31,.37,.09,.06,.16,.11,.24,.15Zm-21.93,.02c.03-.05-.03-.14-.09-.13-.07,.01-.15,.02-.21,.06-.18,.09-.35,.17-.52,.27-.5,.31-.99,.63-1.49,.94-.44,.27-.89,.52-1.33,.78-.13,.07-.25,.15-.36,.25-.08,.07-.11,.16-.06,.27,.04,.08,.14,.13,.25,.11,.07-.01,.14-.03,.21-.06,.62-.27,1.24-.52,1.82-.87,.35-.21,.67-.45,.96-.73,.2-.19,.39-.37,.59-.55,.08-.12,.16-.23,.22-.34Zm-.03,1.17c-.18,.08-.36,.15-.53,.26-.47,.3-.94,.62-1.4,.94-.47,.32-.94,.61-1.5,.76-.22,.06-.44,.15-.66,.24-.07,.03-.14,.06-.19,.1-.03,.03-.06,.09-.05,.12,0,.04,.06,.08,.1,.09,.08,.02,.17,.03,.25,.02,.23-.04,.47-.06,.68-.14,.52-.18,1.03-.39,1.52-.65,.63-.34,1.17-.8,1.69-1.28,.09-.08,.16-.19,.23-.29,.03-.04,.03-.11,.06-.2-.09,0-.15,0-.2,.02Zm-3.36,3.08c-.18,.04-.36,.07-.53,.13-.52,.2-1.04,.42-1.56,.63-.15,.06-.29,.13-.39,.26-.06,.08-.1,.17-.04,.27,.05,.09,.14,.14,.24,.13,.1,0,.2-.02,.29-.06,.71-.27,1.38-.63,1.99-1.08,.08-.06,.17-.11,.19-.27-.07-.01-.13-.04-.19-.03Zm-1.06,1.65c-.16,.02-.31,.04-.47,.07-.49,.09-.98,.18-1.47,.28-.14,.03-.28,.08-.41,.13-.04,.02-.09,.1-.08,.14,0,.05,.06,.1,.1,.13,.04,.03,.09,.03,.14,.04,.11,0,.22,.02,.33,0,.66-.07,1.3-.23,1.9-.51,.09-.04,.17-.1,.25-.15,.02-.02,.03-.06,.06-.14-.14,0-.24-.01-.34,0Zm3.2-6.43c-.11,.06-.22,.11-.32,.18-.55,.39-1.09,.78-1.64,1.18-.1,.07-.18,.16-.26,.26-.03,.04-.04,.13-.01,.17,.02,.04,.11,.08,.15,.06,.16-.05,.32-.11,.47-.2,.5-.29,.92-.68,1.32-1.1,.16-.17,.33-.33,.48-.6-.12,.03-.17,.03-.21,.05Zm-4.85,7.64c-.47-.05-.93,.02-1.37,.17-.05,.02-.09,.04-.13,.07-.13,.09-.12,.27,.03,.32,.11,.04,.24,.08,.36,.06,.41-.07,.81-.19,1.16-.42,.04-.02,.06-.07,.09-.13-.06-.03-.1-.06-.14-.07Zm-2.25,2c.36,0,.66-.13,.93-.35,.04-.04,.02-.13-.03-.16-.03-.02-.06-.04-.1-.05-.28-.07-.56-.03-.82,.08-.07,.03-.13,.11-.18,.17-.05,.06-.02,.18,.06,.26,.03,.01,.08,.05,.14,.05Zm5.55-9.41s-.01,.13,.02,.16c.03,.03,.13,.05,.16,.03,.19-.12,.33-.28,.37-.51,0-.03-.03-.06-.05-.09-.21,.09-.39,.22-.5,.41Zm.75,4.15c-.09,.04-.17,.1-.24,.16-.03,.02-.03,.09-.01,.13,.02,.07,.09,.08,.15,.06,.19-.05,.34-.16,.43-.36-.12-.07-.23-.04-.33,0Z"/>
    <path d="M111.84,62.57c-.09,.42-.19,.84-.27,1.26-.04,.22-.07,.44-.08,.66-.01,.47-.07,.93-.17,1.38-.12,.49-.21,.98-.27,1.48-.05,.45-.17,.89-.35,1.31-.29,.68-.52,1.37-.75,2.07-.12,.37-.27,.74-.4,1.1-.12,.33-.26,.66-.37,1-.32,.98-.76,1.91-1.22,2.83-.03,.07-.07,.13-.11,.19-.48,.78-.96,1.57-1.44,2.35-.49,.79-1.01,1.56-1.67,2.24-.21,.21-.42,.4-.7,.52-.26,.11-.5,.27-.71,.46-.22,.2-.44,.39-.65,.6-.25,.26-.54,.46-.87,.61-.45,.22-.91,.43-1.36,.64-.66,.32-1.32,.64-1.97,.96-.3-.14-.6-.27-.89-.41-.45-.21-.86-.48-1.2-.84-.18-.19-.35-.38-.52-.57-.54-.62-1-1.3-1.46-1.98-.32-.48-.65-.95-1.05-1.37-.61-.65-1.06-1.41-1.42-2.22-.13-.3-.25-.61-.38-.92-.2-.47-.39-.96-.6-1.42-.48-1.02-1.18-1.85-2.14-2.47-.36-.23-.69-.51-.96-.85-.34-.41-.61-.86-.84-1.33-.23-.46-.43-.93-.65-1.4-.13-.28-.23-.57-.27-.88-.06-.46-.13-.92-.16-1.39-.08-1.08-.43-2.05-.99-2.97-.29-.48-.58-.97-.87-1.45-.18-.3-.37-.58-.63-.81-.23-.21-.49-.32-.79-.35-.12-.01-.24,0-.35,.07-.13,.09-.14,.28,0,.37,.05,.03,.11,.06,.17,.07,.43,.09,.75,.36,1.03,.67,.51,.56,.91,1.19,1.28,1.84,.43,.75,.45,1.56,.33,2.4-.2,.06-.4,.05-.59,0-.3-.06-.6-.14-.89-.22-1.01-.27-2.01-.28-3,.08-.27,.1-.54,.15-.82,.17-.29,.02-.59,.04-.88,.08-.22,.03-.44,.08-.64,.17-.52,.23-1.07,.35-1.64,.37-.17,0-.34,0-.51,.02-.16,.02-.31,.05-.47,.08-.06,.01-.11,.05-.1,.15,.12,.12,.29,.15,.45,.19,.72,.18,1.43,.13,2.13-.14,.16-.06,.32-.11,.49-.16,.05-.02,.12-.03,.17,.05-.09,.15-.2,.3-.28,.46-.22,.44-.43,.88-.63,1.33-.18,.42-.37,.83-.57,1.23-.39,.78-.85,1.51-1.42,2.18-.22,.26-.4,.56-.59,.84-.28,.43-.45,.89-.46,1.41,0,.7,.04,1.39,.24,2.07,.22,.74,.41,1.49,.62,2.23,.17,.61,.24,1.22,.2,1.85-.02,.28-.03,.56-.04,.84-.02,.8,.15,1.56,.59,2.24,.09,.13,.16,.27,.25,.41,.56,.84,1.23,1.59,1.94,2.3,.24,.24,.47,.5,.67,.78,.52,.75,1.11,1.43,1.8,2.02,.63,.53,1.28,1.03,2.07,1.3,.53,.18,.97,.52,1.39,.88,.32,.27,.64,.53,.96,.8,.55,.46,1.16,.82,1.75,1.22,.65,.43,1.23,.93,1.71,1.54,.32,.4,.55,.83,.69,1.32,.09,.33,.19,.66,.27,.99,.08,.36,.14,.72,.18,1.09,.04,.29,.02,.59-.05,.88-.05,.21-.13,.39-.26,.56-.3,.39-.56,.8-.77,1.25-.22,.47-.56,.84-.98,1.13-.48,.34-.98,.66-1.47,.97-.4,.25-.83,.43-1.3,.45-.88,.04-1.7-.14-2.49-.54-.37-.19-.67-.44-.9-.79-.2-.31-.41-.61-.64-.89-.45-.57-.83-1.18-1.18-1.82-.4-.73-.87-1.42-1.52-1.96-.04-.04-.1-.07-.06-.16,.15,0,.3-.02,.45-.02,.19,.25,.37,.49,.56,.71,.33,.38,.59,.81,.78,1.28,.07,.17,.15,.34,.22,.5,.26,.56,.62,1.05,1.06,1.49,.43,.43,.91,.78,1.38,1.16,.44,.35,.93,.58,1.46,.75,.58,.19,1.13,.14,1.67-.15,.45-.24,.85-.53,1.24-.85,.18-.15,.33-.33,.45-.53,.24-.4,.38-.85,.53-1.29,.26-.78,.37-1.57,.26-2.39-.13-.98-.45-1.88-1.14-2.62-.39-.41-.83-.76-1.29-1.09-.55-.39-1.07-.82-1.56-1.29-.34-.34-.73-.62-1.13-.88-.53-.33-1.07-.65-1.6-.98-.5-.31-1.03-.55-1.61-.7-.65-.17-1.23-.48-1.74-.92-.35-.31-.68-.63-1.03-.94-.53-.47-.95-1.02-1.33-1.61-.22-.34-.46-.67-.69-1-.14-.2-.28-.4-.42-.6-.48-.73-.86-1.51-1.26-2.28-.4-.76-.78-1.53-1.22-2.26-.41-.71-.88-1.39-1.33-2.07-.25-.38-.49-.77-.65-1.19-.24-.62-.47-1.24-.69-1.86-.41-1.15-.65-2.34-.8-3.54-.14-1.17-.07-2.32,.3-3.45,.06-.17,.11-.35,.16-.53,.16-.48,.25-.97,.27-1.48,.01-.23,.03-.47,.08-.69,.17-.87,.52-1.66,1.11-2.33,.4-.45,.84-.86,1.27-1.28,.29-.28,.6-.54,.9-.81,.52-.46,1.05-.92,1.58-1.38,.49-.41,.99-.81,1.48-1.21,.63-.52,1.26-1.05,1.89-1.58,.59-.49,1.19-.98,1.78-1.48,.59-.5,1.16-1.02,1.74-1.53,.59-.51,1.27-.87,2.03-1.08,.86-.23,1.73-.31,2.62-.19,.89,.12,1.78,.16,2.68,.12,.78-.04,1.54,.04,2.3,.22,.2,.05,.41,.1,.61,.14,1.38,.32,2.69,.83,3.99,1.38,1.15,.48,2.32,.93,3.48,1.39,1.19,.47,2.38,.92,3.56,1.39,.92,.37,1.84,.75,2.75,1.13,.79,.33,1.58,.67,2.37,1.01,.5,.22,.97,.48,1.4,.81,.28,.22,.57,.42,.86,.63,.44,.31,.88,.62,1.32,.93,.07,.05,.13,.11,.2,.17,0,.05,0,.1-.01,.15Zm-17.78,8.92c-.25,1.19-.5,2.37-.68,3.57-.08,.51-.17,1.01-.26,1.52-.02,.1-.03,.2-.03,.29,0,.05,.05,.12,.09,.15,.07,.04,.15,.02,.2-.03,.05-.05,.09-.11,.12-.18,.04-.1,.08-.21,.11-.31,.42-1.55,.72-3.13,.84-4.73,.02-.33,.01-.66,.02-.99,0-.07-.01-.15-.14-.17-.13,.3-.2,.6-.26,.89Zm1.96,1.56c-.08,.24-.15,.49-.21,.74-.08,.38-.13,.77-.2,1.16-.2,1.07-.48,2.12-.82,3.16-.06,.17-.12,.35-.16,.53-.02,.12-.02,.24-.01,.36,0,.04,.05,.1,.08,.11,.05,0,.13-.01,.16-.05,.06-.07,.12-.16,.15-.25,.49-1.42,.92-2.86,1.18-4.35,.08-.46,.15-.92,.11-1.39,0-.09,.01-.2-.1-.26-.12,.04-.16,.14-.19,.25Zm-.61-2.27c-.03,.09-.06,.19-.08,.28-.23,.92-.47,1.85-.55,2.8-.04,.46-.1,.92-.16,1.38-.08,.63-.19,1.26-.4,1.86-.04,.13-.08,.26-.11,.39-.02,.08-.03,.17-.02,.25,0,.05,.05,.11,.09,.14,.06,.04,.12-.01,.15-.06,.04-.05,.07-.1,.09-.16,.03-.08,.06-.16,.08-.24,.21-.77,.4-1.54,.51-2.33,.15-1.03,.31-2.05,.46-3.08,.05-.34,.08-.68,.11-1.02,0-.11,.02-.22-.06-.38-.05,.08-.08,.12-.1,.16Zm5.83,7c-.06,.16-.13,.32-.16,.48-.06,.27-.09,.55-.13,.83-.05,.31-.09,.63-.14,.94-.1,.58-.21,1.15-.31,1.73-.02,.11-.03,.22-.03,.33,0,.08,.02,.17,.06,.25,.05,.12,.19,.14,.27,.05,.06-.07,.12-.16,.15-.25,.04-.11,.06-.24,.08-.36,.05-.29,.1-.58,.13-.87,.09-.83,.17-1.65,.29-2.48,.04-.25,.04-.51-.03-.84-.09,.09-.15,.13-.17,.18Zm-4.52-2.35c-.11,.26-.24,.52-.3,.79-.21,.9-.55,1.75-.87,2.61-.08,.21-.17,.41-.25,.61-.05,.11-.09,.23-.06,.36,.02,.12,.14,.18,.25,.12,.06-.04,.12-.09,.16-.15,.05-.08,.08-.18,.12-.27,.31-.93,.63-1.85,.93-2.79,.1-.32,.16-.67,.23-1,.03-.13,.03-.26-.04-.46-.08,.09-.13,.13-.15,.18Zm0,4.65c.25-.78,.53-1.55,.71-2.35,.06-.25,.07-.51,.09-.76,0-.03-.04-.08-.08-.1-.02-.01-.07,.01-.09,.03-.06,.08-.11,.16-.16,.24-.17,.33-.28,.68-.35,1.04-.12,.55-.29,1.09-.49,1.61-.08,.19-.14,.39-.2,.59-.02,.06-.03,.12-.04,.18-.02,.13,.01,.24,.09,.25,.1,.02,.16-.05,.27-.18,.07-.13,.2-.33,.27-.55Zm-3.88-4.53c.1-.25,.21-.5,.28-.75,.17-.63,.29-1.26,.3-1.91,0-.22-.02-.44-.04-.66,0-.07-.04-.13-.08-.23-.07,.04-.14,.06-.16,.1-.06,.13-.12,.27-.15,.41-.06,.29-.1,.58-.14,.87-.07,.56-.14,1.11-.2,1.67-.02,.18-.04,.36-.05,.55,0,.05,.02,.11,.03,.17,.13-.04,.17-.13,.21-.21Zm5.71,3.41c-.06,.14-.12,.27-.14,.41-.08,.46-.16,.92-.22,1.38-.06,.46-.09,.93-.13,1.39-.02,.17-.04,.34,.02,.51,.01,.03,.05,.06,.08,.07,.03,0,.08,0,.09-.03,.05-.08,.1-.17,.12-.26,.2-1.01,.41-2.02,.39-3.05,0-.16-.03-.31-.05-.55-.1,.09-.15,.11-.16,.15Zm-.81-.55c-.1,.29-.21,.57-.28,.87-.12,.51-.22,1.03-.33,1.54-.04,.19-.08,.38-.12,.57-.02,.11-.02,.22,0,.33,0,.04,.05,.09,.09,.1,.04,.01,.11,0,.13-.03,.06-.07,.11-.16,.15-.25,.14-.34,.27-.68,.32-1.05,.09-.59,.17-1.18,.25-1.77,.02-.12,0-.24,0-.37,0-.04-.03-.08-.06-.17-.07,.1-.13,.16-.16,.23Zm-15.53-16.59c.16,.17,.31,.35,.48,.5,.4,.35,.74,.75,1.05,1.17,.28,.37,.44,.78,.5,1.24,.02,.17,.05,.34,.1,.5,.02,.09,.08,.18,.13,.26,.04,.06,.11,.1,.19,.08,.08-.02,.13-.07,.14-.15,.01-.07,.02-.15,.01-.22-.02-.22-.08-.43-.18-.63-.49-.89-1.03-1.75-1.73-2.49-.17-.19-.37-.36-.61-.46-.05-.02-.11-.01-.2-.02,.04,.1,.06,.18,.11,.22Zm23.41,14.1c-.04,.11-.08,.23-.1,.35-.05,.39-.1,.78-.13,1.16-.02,.33-.09,.65-.17,.97-.03,.12-.06,.24-.07,.36,0,.08,0,.17,.04,.25,.05,.12,.21,.15,.31,.07,.1-.08,.17-.18,.19-.3,.02-.13,.04-.27,.06-.4,.04-.36,.07-.73,.11-1.09,.04-.39,.01-.78-.03-1.17-.01-.09-.02-.19-.11-.26-.04,.02-.08,.03-.09,.06Zm-6.21,6.88c.2-.75,.41-1.49,.39-2.27,0-.19-.04-.39-.08-.58,0-.03-.06-.07-.1-.08-.03,0-.08,.02-.09,.05-.06,.12-.13,.24-.16,.37-.06,.29-.12,.58-.15,.87-.05,.46-.08,.93-.11,1.39,0,.12-.02,.24-.01,.37,0,.05,.05,.12,.09,.14,.04,.01,.1-.04,.15-.06,.03-.07,.06-.12,.08-.18Zm3.93-2.52c.15-.66,.31-1.31,.28-1.99,0-.17-.04-.34-.07-.51-.01-.07-.14-.09-.18-.02-.06,.11-.12,.22-.15,.33-.05,.17-.11,.35-.13,.53-.08,.56-.14,1.12-.21,1.68-.01,.09,.01,.19,.04,.29,.03,.11,.16,.13,.24,.05,.02-.02,.03-.04,.07-.08,.03-.07,.08-.17,.1-.28Zm-26.04-11.55s-.07-.03-.1-.03c-.05,0-.1,0-.15,0-.54,.09-1.09,.17-1.63,.27-.13,.02-.25,.09-.37,.14-.05,.02-.1,.07-.13,.12-.06,.07-.02,.19,.06,.21,.11,.03,.21,.05,.32,.05,.17,0,.35,0,.51-.04,.43-.1,.85-.22,1.27-.34,.1-.03,.21-.07,.27-.17,.05-.07,.02-.18-.06-.22Zm27.04,8.22c-.05,.15-.11,.3-.13,.46-.08,.52-.16,1.04-.23,1.56-.01,.1-.02,.2-.02,.29,0,.1,.03,.2,.14,.23,.08,.03,.17-.03,.22-.15,.04-.08,.07-.16,.08-.24,.07-.61,.13-1.21,.19-1.82,.01-.14,0-.29-.11-.48-.07,.07-.12,.1-.14,.15Zm-29.71-6.25c.53,0,1.05-.03,1.56-.18,.14-.04,.27-.11,.4-.18,.05-.03,.09-.09,.09-.15,0-.05-.03-.13-.07-.15-.08-.03-.17-.03-.25-.03-.57,.02-1.12,.14-1.66,.29-.12,.03-.23,.09-.33,.15-.04,.03-.07,.09-.1,.14,.11,.11,.24,.1,.36,.1Zm6.97-8.24c.14,.15,.27,.32,.44,.44,.4,.26,.69,.62,.93,1.02,.19,.32,.38,.66,.5,1.01,.04,.11,.11,.22,.18,.31,.06,.08,.2,.04,.23-.06,.04-.14,0-.27-.06-.39-.21-.36-.4-.73-.66-1.05-.32-.4-.68-.76-1.04-1.13-.11-.11-.25-.19-.38-.28-.04-.03-.11-.02-.19-.03,.02,.07,.02,.13,.05,.16Zm-.42,1.1c.16,.17,.32,.33,.5,.49,.26,.23,.46,.5,.61,.81,.06,.13,.16,.24,.25,.35,.05,.06,.13,.07,.2,.03,.07-.04,.09-.12,.07-.19-.03-.12-.07-.24-.13-.34-.35-.49-.7-.97-1.17-1.35-.11-.09-.25-.15-.38-.22-.04-.02-.09,0-.18-.01,.04,.2,.13,.31,.23,.42Zm5.94,2.79c-.03,.16-.05,.31-.06,.47-.03,.58-.03,1.15,.03,1.72,0,.1,.03,.19,.06,.28,.01,.04,.07,.08,.1,.08,.04,0,.09-.04,.11-.08,.03-.08,.05-.16,.05-.25,.05-.69,.02-1.37-.09-2.05-.02-.1-.02-.22-.13-.3-.03,.05-.06,.09-.07,.13Zm-11.11,5.09s-.07-.01-.11,0c-.3,.02-.61,.03-.91,.05-.26,.02-.51,.03-.77,.07-.13,.02-.26,.07-.38,.12-.03,.01-.05,.08-.06,.12,0,.02,.04,.06,.07,.07,.09,.03,.19,.05,.29,.06,.6,.03,1.19-.04,1.77-.21,.06-.02,.11-.05,.13-.07,.07-.08,.03-.19-.04-.2Zm-.3-3.2c.33,.04,.66,.08,.98,0,.3-.07,.6-.13,.89-.21,.1-.03,.2-.09,.29-.15,.03-.02,.04-.09,.03-.13-.01-.04-.06-.09-.1-.09-.12,0-.24,0-.36,.03-.3,.05-.6,.11-.9,.16-.23,.04-.45,.09-.68,.15-.09,.02-.17,.08-.31,.15,.09,.05,.12,.08,.15,.09Zm4.36-4.26c.14,.15,.28,.31,.44,.43,.25,.18,.47,.38,.68,.61,.07,.08,.16,.15,.24,.22,.06,.05,.13,.07,.2,.02,.07-.05,.08-.12,.05-.2-.02-.06-.04-.11-.08-.16-.36-.48-.81-.84-1.36-1.07-.06-.03-.14-.02-.24-.03,.03,.08,.03,.15,.07,.19Zm12.08,10.3c.18-.51,.24-1.04,.23-1.58,0-.06-.02-.12-.04-.18-.01-.04-.1-.04-.12,0-.03,.04-.05,.08-.07,.13-.2,.53-.29,1.08-.39,1.63,0,.05,0,.1,0,.15,.01,.07,.03,.16,.12,.16,.06,0,.12-.05,.18-.07,.04-.09,.07-.15,.09-.22Zm14.11,.79c-.04,.2-.08,.41-.1,.61-.03,.29-.04,.58-.05,.88,0,.13-.03,.27,.08,.38,.14-.03,.2-.13,.22-.22,.16-.57,.26-1.14,.13-1.73-.01-.05-.06-.1-.09-.16-.15,.06-.19,.15-.2,.25Zm-3.88,3.57s-.07,.02-.08,.05c-.04,.09-.07,.18-.09,.27-.14,.64-.14,1.28-.08,1.92,0,.02,.03,.04,.04,.06,.3-.41,.42-1.63,.21-2.3Zm-13.97-8.89c-.02,.43,0,.85,.09,1.27,.03,.13,.07,.26,.19,.34,.1,.07,.23,.03,.26-.09,.02-.08,.03-.17,.01-.25-.09-.45-.22-.89-.4-1.32,0-.02-.03-.04-.08-.1-.04,.07-.07,.11-.08,.15Zm-.61-1.08c-.08,.46-.1,.92-.03,1.38,.01,.09,.07,.18,.12,.26,.05,.07,.17,.06,.21-.02,.03-.05,.05-.11,.06-.17,.01-.1,.02-.2,0-.29-.05-.4-.12-.79-.18-1.19,0-.03-.03-.06-.08-.16-.06,.1-.1,.14-.11,.2Zm-14.23,4.29c.38,0,.75,0,1.13-.01,.16,0,.31-.05,.45-.14,.07-.05,.1-.12,.07-.19-.02-.05-.08-.1-.13-.11-.08-.02-.17-.03-.25,0-.45,.1-.9,.21-1.35,.31-.03,0-.05,.05-.11,.11,.1,.02,.14,.05,.19,.05Zm33.63,1.25c-.05,.28-.09,.56-.11,.84-.02,.24,.02,.33,.2,.54,.04-.03,.09-.04,.11-.08,.05-.08,.1-.17,.11-.27,.05-.4,.04-.81-.06-1.2,0-.04-.05-.07-.12-.16-.06,.16-.1,.25-.12,.34Zm-26.95-8.76c.09,.06,.2,.11,.31,.03,.07-.06,.04-.2-.08-.32-.3-.3-.66-.51-1.06-.64-.06-.02-.12-.02-.18-.02-.02,0-.05,.02-.06,.03-.01,.03-.02,.08,0,.1,.07,.08,.15,.16,.2,.21,.32,.21,.6,.41,.88,.6Zm-6.67,8.72c.27,.02,.53,.04,.8,.03,.17,0,.28-.16,.26-.29-.02-.13-.14-.22-.31-.2-.31,.04-.63,.09-.95,.31,.09,.07,.14,.14,.2,.14Zm15.75-3.33c0,.28,0,.56,.03,.84,0,.09,.06,.18,.12,.26,.06,.09,.2,.06,.23-.04,.02-.06,.04-.12,.03-.18-.04-.35-.13-.69-.33-1.08-.05,.12-.09,.16-.09,.2Zm-2.61-3.8c.08-.21,.13-.74,.11-1.17-.01-.2,0-.41-.13-.66-.13,.53-.11,1.45,.03,1.84Zm-13.09,8.1c.19,.06,.38,.04,.57,0,.06-.01,.11-.05,.16-.09,.06-.05,.08-.12,.06-.2-.02-.08-.09-.14-.19-.14-.2,0-.38,.07-.55,.16-.05,.03-.09,.07-.14,.11-.01,.01-.01,.04-.03,.08,.03,.02,.07,.06,.11,.07Zm34.08-1.58c0,.12,.1,.21,.21,.22,.11,0,.21-.06,.24-.18,.05-.16,.04-.31-.02-.47-.06-.15-.18-.17-.29-.03-.1,.12-.15,.28-.14,.46Zm-33.23,3.75c.14,0,.27,0,.38-.09,.08-.06,.11-.17,.08-.26-.03-.09-.11-.13-.2-.14-.04,0-.07,0-.11,0-.15,.03-.31,.13-.51,.3,.09,.16,.23,.17,.36,.18Zm-.17-.97s.09-.03,.13-.05c.09-.05,.13-.16,.1-.25-.03-.1-.11-.14-.2-.13-.21,.01-.4,.08-.53,.26-.01,.02,0,.05-.01,.1,.17,.1,.34,.11,.51,.07Zm4.38-11.08c.21,.15,.41,.29,.63,.44,.04,.02,.09,.03,.14,.03,.08,0,.15-.07,.12-.14-.02-.05-.05-.12-.1-.15-.24-.15-.49-.28-.78-.27,0,0-.01,.02-.02,.03,0,.02,0,.06,.01,.06Zm-.41,.32c-.14-.08-.3-.16-.48-.06,0,.15,.09,.23,.18,.3,.19,.13,.29,.16,.57,.14,0-.22-.14-.3-.27-.37Zm30.15,6.89s.08,.1,.13,.12c.07,.03,.14,0,.19-.06,.11-.13,.09-.38-.04-.5-.04-.04-.15-.02-.21,.05-.08,.1-.14,.24-.07,.39Zm-33.3,6.14c.12-.01,.21-.12,.19-.23-.02-.09-.12-.16-.22-.15-.13,.01-.2,.06-.35,.25,.12,.12,.26,.13,.39,.12Zm16.36-5.29s.08,.09,.13,.1c.07,.02,.12-.04,.13-.1,.03-.19,.04-.38-.12-.59-.15,.21-.18,.39-.14,.58Zm-14.11-7.04s.11-.02,.16-.06c.04-.04,.02-.15-.04-.19-.16-.09-.32-.16-.51-.1,.07,.2,.22,.3,.4,.34Zm-1.2,.15c.08,.05,.17,.09,.27,.05,.03-.01,.07-.05,.06-.08,0-.05-.02-.12-.06-.16-.08-.06-.2-.07-.43-.07-.01,.13,.07,.2,.15,.25Zm14.01,5.71s.06,.08,.1,.09c.07,.01,.11-.05,.12-.11,.03-.16-.02-.31-.13-.51-.11,.22-.14,.37-.09,.53Zm-14.97,7.16c.09,.04,.17,.02,.22-.06,.03-.05,0-.13-.05-.15-.09-.04-.18-.02-.22,.06-.02,.03,0,.09,0,.12,.03,.02,.04,.03,.05,.03Zm15.47-6.57s-.06,.07-.02,.11c.02,.02,.08,.03,.09,.02,.02-.03,.03-.07,.05-.12-.06,0-.1-.02-.12-.01Z"/>
    <path d="M115.11,64.15c-.81-.29-1.57-.65-2.31-1.1-.02,.07-.04,.11-.04,.16-.02,.28-.03,.56-.04,.84-.02,.36,0,.71,.06,1.06,.14,.72,.04,1.41-.18,2.1-.08,.25-.2,.47-.34,.69-.49,.76-.86,1.56-1.01,2.46-.09,.51-.27,.99-.48,1.46-.18,.39-.31,.8-.41,1.22-.08,.37-.17,.74-.26,1.11-.23,.96-.66,1.81-1.27,2.59-.33,.42-.66,.85-.98,1.29-.18,.26-.33,.54-.5,.81-.16,.26-.31,.52-.48,.78-.24,.37-.49,.73-.75,1.09-.14,.19-.28,.38-.44,.54-.36,.35-.73,.69-1.1,1.03-.35,.32-.76,.58-1.18,.8-.87,.46-1.74,.9-2.61,1.35-.09,.04-.18,.09-.26,.13-.49,.28-1.01,.43-1.57,.44-.02,0-.04,.02-.08,.03,0,.07,0,.14-.01,.21-.03,.63,.32,1.15,.92,1.34,.37,.12,.75,.24,1.12,.34,.2,.06,.41,.08,.61,.12,.25,.04,.49,0,.71-.13,.54-.32,1.08-.63,1.48-1.13,.05-.06,.1-.11,.16-.16,.56-.44,1.09-.91,1.7-1.29,.28-.18,.52-.4,.76-.63,.68-.66,1.22-1.44,1.8-2.18,.07-.1,.14-.2,.22-.29,.37-.43,.68-.9,.96-1.39,.41-.71,.83-1.42,1.23-2.13,.67-1.21,1.15-2.49,1.47-3.83,.12-.5,.26-1,.37-1.5,.22-1.04,.7-1.95,1.36-2.78,.16-.2,.25-.4,.27-.66,.02-.33,.11-.65,.16-.98,.07-.45,.15-.89,.2-1.34,.09-.81,.28-1.59,.7-2.3,.03-.05,.04-.11,.06-.18Z" style="fill: #f1a82a;"/>
    <path d="M112.41,62.79c-.11-.08-.22-.16-.34-.26-.04,.08-.07,.13-.08,.18-.07,.32-.14,.65-.2,.97-.05,.25-.06,.51-.02,.77,.04,.24,.04,.49,0,.73-.03,.24-.06,.49-.08,.73-.08,.92-.29,1.81-.56,2.69-.19,.6-.34,1.2-.52,1.8-.22,.74-.53,1.44-.94,2.11-.48,.79-.84,1.63-1.16,2.5-.33,.91-.72,1.79-1.19,2.64-.31,.57-.73,1.07-1.14,1.57-.27,.32-.52,.65-.79,.97-.09,.11-.19,.23-.28,.34-.24,.27-.47,.53-.71,.79-.12,.13-.24,.24-.37,.35-.22,.19-.46,.37-.68,.56-.21,.18-.44,.31-.7,.4-.62,.21-1.17,.56-1.73,.88-.49,.28-.97,.57-1.46,.85-.17,.1-.36,.15-.54,.23-.08,.04-.05,.1,0,.17,.13,0,.23-.11,.36-.14,.37-.11,.74-.26,1.12-.35,.83-.19,1.57-.55,2.25-1.04,.34-.24,.71-.44,1-.74,.08-.09,.18-.17,.24-.27,.44-.66,1.04-1.18,1.66-1.65,.54-.4,.97-.9,1.32-1.46,.36-.57,.74-1.13,1.12-1.68,.39-.58,.71-1.2,.92-1.87,.3-1.02,.61-2.04,.99-3.04,.1-.27,.21-.55,.34-.81,.24-.5,.46-1,.63-1.53,.05-.16,.12-.32,.2-.47,.29-.53,.51-1.08,.73-1.64,.08-.22,.14-.44,.15-.68,.03-.48,.05-.95,.07-1.43,0-.11,0-.22-.01-.33-.08-.61,.01-1.2,.17-1.78,.07-.25,.13-.5,.19-.75,.02-.09,.03-.19,.04-.3Z" style="fill: #f1a82a;"/>
    <path d="M127.86,84.15c-.37,.27-.74,.52-1.12,.77-.17,.11-.37,.13-.57,.09-.32-.07-.6-.21-.83-.44-.43-.42-.69-.92-.77-1.51-.07-.45-.07-.9,0-1.35,.04-.23,.08-.46,.13-.69,.06-.33,.19-.63,.36-.92,.21-.36,.4-.73,.59-1.1,.28-.56,.52-1.14,.84-1.67,.14-.23,.32-.43,.54-.59,.34-.23,.8-.04,.91,.24,.04,.09,.08,.18,.11,.27,.15,.43,.35,.83,.6,1.22,.13,.2,.26,.42,.4,.62,.36,.52,.48,1.1,.36,1.72-.1,.53-.23,1.05-.37,1.57-.05,.2-.15,.39-.25,.57-.17,.28-.36,.55-.53,.81-.15,.15-.26,.3-.41,.41Zm-.79-6.78c-.11,.17-.21,.36-.29,.55-.23,.49-.44,.98-.66,1.47-.19,.44-.44,.84-.67,1.27-.32,.6-.52,1.24-.56,1.92-.04,.7,.26,1.26,.74,1.73,.15,.15,.34,.24,.54,.3,.13,.04,.24,.02,.35-.06,.06-.05,.12-.09,.17-.14,.21-.19,.4-.4,.62-.57,.29-.23,.48-.52,.66-.83,.25-.43,.41-.88,.46-1.38,.02-.24,.06-.49,.12-.72,.12-.51,.06-1-.13-1.48-.08-.22-.19-.42-.29-.64-.09-.19-.17-.38-.25-.57-.13-.32-.16-.66-.13-1.02-.39-.14-.5-.12-.68,.17Z" style="fill: #93582a;"/>
    <path d="M115.29,69.74c-.39,.56-.75,1.07-1.1,1.59-.3,.45-.53,.94-.67,1.46-.19,.71-.38,1.42-.56,2.13-.12,.44-.17,.89-.14,1.35,.06,.83-.05,1.64-.25,2.44-.15,.58-.25,1.17-.38,1.76-.11,.48-.27,.94-.49,1.38-.13,.27-.3,.5-.52,.7-.39,.35-.78,.71-1.21,1.02-.49,.36-1.04,.59-1.58,.85-.23,.11-.47,.21-.71,.3-.43,.16-.83,.36-1.21,.61-.33,.22-.66,.42-.98,.64-.18,.12-.35,.27-.52,.41-.36,.31-.75,.59-1.17,.82-.07,.04-.14,.09-.29,.17,.15,0,.22,0,.27-.02,.51-.18,1-.39,1.39-.79,.3-.31,.64-.57,.99-.81,.4-.27,.84-.46,1.3-.59,.21-.06,.43-.11,.64-.16,1.1-.23,2.04-.76,2.83-1.54,.1-.09,.19-.19,.3-.27,.53-.42,.84-.98,.97-1.64,.06-.3,.12-.6,.19-.9,.03-.12,.05-.24,.09-.36,.18-.57,.37-1.14,.55-1.71,.22-.68,.38-1.37,.44-2.08,.04-.5,.14-.99,.29-1.47,.19-.62,.33-1.26,.42-1.9,.08-.59,.24-1.15,.48-1.69,.17-.4,.35-.81,.51-1.22,.05-.13,.13-.26,.11-.49Z" style="fill: #93582a;"/>
    <path d="M106.94,86.51c.2,.03,.35-.02,.49-.08,.37-.15,.76-.29,1.11-.49,.59-.33,1.22-.52,1.87-.64,.49-.09,.94-.24,1.36-.51,.22-.14,.45-.24,.68-.37,.25-.14,.5-.27,.73-.43,.56-.38,.74-.95,.73-1.6,0-.1-.02-.2-.04-.29-.08-.44-.09-.88-.07-1.32,.02-.32,.01-.64,.01-.95,0-.08-.02-.17-.02-.24-.09-.03-.1,.03-.12,.07-.15,.58-.31,1.16-.45,1.74-.06,.25-.08,.51-.11,.76-.02,.17-.03,.34-.05,.51-.03,.33-.21,.57-.47,.75-.19,.13-.39,.26-.58,.39-.21,.15-.41,.31-.62,.45-.22,.15-.46,.28-.7,.41-.08,.05-.18,.08-.26,.13-.28,.2-.59,.29-.91,.37-.24,.05-.48,.12-.71,.2-.17,.06-.34,.14-.49,.24-.42,.25-.83,.51-1.25,.77-.04,.02-.07,.06-.13,.11Z" style="fill: #93582a;"/>
    <path d="M123.34,88.61c-.16-.2-.23-.42-.2-.68,.04-.29,.02-.58-.03-.88-.06-.36-.02-.71,.11-1.04,.05-.12,.12-.24,.2-.34,.09-.12,.23-.19,.38-.18,.21,0,.41,0,.62,.03,.4,.04,.64,.26,.76,.64,.1,.33,.14,.67,.07,1.01-.04,.22-.08,.43-.13,.65-.07,.32-.19,.63-.35,.92-.06,.12-.15,.22-.24,.32-.18,.18-.41,.21-.64,.09-.08-.04-.14-.09-.24-.15-.1-.11-.21-.24-.31-.37Zm.26-1.92c-.01,.14-.01,.29,0,.44,.04,.32,.01,.63-.07,.94-.02,.08-.04,.17-.04,.25-.01,.32,.22,.59,.51,.6,.1,0,.19-.03,.26-.11,.11-.13,.16-.27,.18-.43,.03-.22,.05-.44,.08-.65,.03-.28,.05-.56,.08-.84,.02-.21,.01-.41-.06-.61-.05-.12-.12-.21-.25-.24-.09-.02-.18-.06-.29-.09-.25,.21-.36,.46-.39,.75Z" style="fill: #93582a;"/>
    <path d="M101.74,89.49c.08-.12,.16-.23,.22-.34,.03-.05-.03-.14-.09-.13-.07,.01-.15,.02-.21,.06-.18,.09-.35,.17-.52,.27-.5,.31-.99,.63-1.49,.94-.44,.27-.89,.52-1.33,.78-.13,.07-.25,.15-.36,.25-.08,.07-.11,.16-.06,.27,.04,.08,.14,.13,.25,.11,.07-.01,.14-.03,.21-.06,.62-.27,1.24-.52,1.82-.87,.35-.21,.67-.45,.96-.73,.2-.19,.39-.37,.59-.55Z" style="fill: #93582a;"/>
    <path d="M102.13,90.3c-.09,0-.15,0-.2,.02-.18,.08-.36,.15-.53,.26-.47,.3-.94,.62-1.4,.94-.47,.32-.94,.61-1.5,.76-.22,.06-.44,.15-.66,.24-.07,.03-.14,.06-.19,.1-.03,.03-.06,.09-.05,.12,0,.04,.06,.08,.1,.09,.08,.02,.17,.03,.25,.02,.23-.04,.47-.06,.68-.14,.52-.18,1.03-.39,1.52-.65,.63-.34,1.17-.8,1.69-1.28,.09-.08,.16-.19,.23-.29,.03-.04,.03-.11,.06-.2Z" style="fill: #93582a;"/>
    <path d="M98.76,93.43c-.07-.01-.13-.04-.19-.03-.18,.04-.36,.07-.53,.13-.52,.2-1.04,.42-1.56,.63-.15,.06-.29,.13-.39,.26-.06,.08-.1,.17-.04,.27,.05,.09,.14,.14,.24,.13,.1,0,.2-.02,.29-.06,.71-.27,1.38-.63,1.99-1.08,.08-.06,.17-.11,.19-.27Z" style="fill: #93582a;"/>
    <path d="M97.85,95.06c-.14,0-.24-.01-.34,0-.16,.02-.31,.04-.47,.07-.49,.09-.98,.18-1.47,.28-.14,.03-.28,.08-.41,.13-.04,.02-.09,.1-.08,.14,0,.05,.06,.1,.1,.13,.04,.03,.09,.03,.14,.04,.11,0,.22,.02,.33,0,.66-.07,1.3-.23,1.9-.51,.09-.04,.17-.1,.25-.15,.02-.02,.03-.06,.06-.14Z" style="fill: #93582a;"/>
    <path d="M100.92,88.58c-.12,.03-.17,.03-.21,.05-.11,.06-.22,.11-.32,.18-.55,.39-1.09,.78-1.64,1.18-.1,.07-.18,.16-.26,.26-.03,.04-.04,.13-.01,.17,.02,.04,.11,.08,.15,.06,.16-.05,.32-.11,.47-.2,.5-.29,.92-.68,1.32-1.1,.16-.17,.33-.33,.48-.6Z" style="fill: #93582a;"/>
    <path d="M96.01,96.33c-.06-.03-.1-.06-.14-.07-.47-.05-.93,.02-1.37,.17-.05,.02-.09,.04-.13,.07-.13,.09-.12,.27,.03,.32,.11,.04,.24,.08,.36,.06,.41-.07,.81-.19,1.16-.42,.04-.02,.06-.07,.09-.13Z" style="fill: #93582a;"/>
    <path d="M93.48,98.21s.08,.05,.14,.05c.36,0,.66-.13,.93-.35,.04-.04,.02-.13-.03-.16-.03-.02-.06-.04-.1-.05-.28-.07-.56-.03-.82,.08-.07,.03-.13,.11-.18,.17-.05,.06-.02,.18,.06,.26Z" style="fill: #93582a;"/>
    <path d="M99.67,88.45c-.21,.09-.39,.22-.5,.41-.02,.04-.01,.13,.02,.16,.03,.03,.13,.05,.16,.03,.19-.12,.33-.28,.37-.51,0-.03-.03-.06-.05-.09Z" style="fill: #93582a;"/>
    <path d="M100.24,93.01c-.12-.07-.23-.04-.33,0-.09,.04-.17,.1-.24,.16-.03,.02-.03,.09-.01,.13,.02,.07,.09,.08,.15,.06,.19-.05,.34-.16,.43-.36Z" style="fill: #93582a;"/>
    <path d="M94.32,70.59c-.13,.3-.2,.6-.26,.89-.25,1.19-.5,2.37-.68,3.57-.08,.51-.17,1.01-.26,1.52-.02,.1-.03,.2-.03,.29,0,.05,.05,.12,.09,.15,.07,.04,.15,.02,.2-.03,.05-.05,.09-.11,.12-.18,.04-.1,.08-.21,.11-.31,.42-1.55,.72-3.13,.84-4.73,.02-.33,.01-.66,.02-.99,0-.07-.01-.15-.14-.17Z" style="fill: #93582a;"/>
    <path d="M96.21,72.8c-.12,.04-.16,.14-.19,.25-.08,.24-.15,.49-.21,.74-.08,.38-.13,.77-.2,1.16-.2,1.07-.48,2.12-.82,3.16-.06,.17-.12,.35-.16,.53-.02,.12-.02,.24-.01,.36,0,.04,.05,.1,.08,.11,.05,0,.13-.01,.16-.05,.06-.07,.12-.16,.15-.25,.49-1.42,.92-2.86,1.18-4.35,.08-.46,.15-.92,.11-1.39,0-.09,.01-.2-.1-.26Z" style="fill: #93582a;"/>
    <path d="M95.51,70.62c-.05,.08-.08,.12-.1,.16-.03,.09-.06,.19-.08,.28-.23,.92-.47,1.85-.55,2.8-.04,.46-.1,.92-.16,1.38-.08,.63-.19,1.26-.4,1.86-.04,.13-.08,.26-.11,.39-.02,.08-.03,.17-.02,.25,0,.05,.05,.11,.09,.14,.06,.04,.12-.01,.15-.06,.04-.05,.07-.1,.09-.16,.03-.08,.06-.16,.08-.24,.21-.77,.4-1.54,.51-2.33,.15-1.03,.31-2.05,.46-3.08,.05-.34,.08-.68,.11-1.02,0-.11,.02-.22-.06-.38Z" style="fill: #93582a;"/>
    <path d="M101.41,77.6c-.09,.09-.15,.13-.17,.18-.06,.16-.13,.32-.16,.48-.06,.27-.09,.55-.13,.83-.05,.31-.09,.63-.14,.94-.1,.58-.21,1.15-.31,1.73-.02,.11-.03,.22-.03,.33,0,.08,.02,.17,.06,.25,.05,.12,.19,.14,.27,.05,.06-.07,.12-.16,.15-.25,.04-.11,.06-.24,.08-.36,.05-.29,.1-.58,.13-.87,.09-.83,.17-1.65,.29-2.48,.04-.25,.04-.51-.03-.84Z" style="fill: #93582a;"/>
    <path d="M96.87,75.25c-.08,.09-.13,.13-.15,.18-.11,.26-.24,.52-.3,.79-.21,.9-.55,1.75-.87,2.61-.08,.21-.17,.41-.25,.61-.05,.11-.09,.23-.06,.36,.02,.12,.14,.18,.25,.12,.06-.04,.12-.09,.16-.15,.05-.08,.08-.18,.12-.27,.31-.93,.63-1.85,.93-2.79,.1-.32,.16-.67,.23-1,.03-.13,.03-.26-.04-.46Z" style="fill: #93582a;"/>
    <path d="M96.46,80.63c.07-.13,.2-.33,.27-.55,.25-.78,.53-1.55,.71-2.35,.06-.25,.07-.51,.09-.76,0-.03-.04-.08-.08-.1-.02-.01-.07,.01-.09,.03-.06,.08-.11,.16-.16,.24-.17,.33-.28,.68-.35,1.04-.12,.55-.29,1.09-.49,1.61-.08,.19-.14,.39-.2,.59-.02,.06-.03,.12-.04,.18-.02,.13,.01,.24,.09,.25,.1,.02,.16-.05,.27-.18Z" style="fill: #93582a;"/>
    <path d="M92.64,75.77c.13-.04,.17-.13,.21-.21,.1-.25,.21-.5,.28-.75,.17-.63,.29-1.26,.3-1.91,0-.22-.02-.44-.04-.66,0-.07-.04-.13-.08-.23-.07,.04-.14,.06-.16,.1-.06,.13-.12,.27-.15,.41-.06,.29-.1,.58-.14,.87-.07,.56-.14,1.11-.2,1.67-.02,.18-.04,.36-.05,.55,0,.05,.02,.11,.03,.17Z" style="fill: #93582a;"/>
    <path d="M98.72,78.81c-.1,.09-.15,.11-.16,.15-.06,.14-.12,.27-.14,.41-.08,.46-.16,.92-.22,1.38-.06,.46-.09,.93-.13,1.39-.02,.17-.04,.34,.02,.51,.01,.03,.05,.06,.08,.07,.03,0,.08,0,.09-.03,.05-.08,.1-.17,.12-.26,.2-1.01,.41-2.02,.39-3.05,0-.16-.03-.31-.05-.55Z" style="fill: #93582a;"/>
    <path d="M97.91,78.18c-.07,.1-.13,.16-.16,.23-.1,.29-.21,.57-.28,.87-.12,.51-.22,1.03-.33,1.54-.04,.19-.08,.38-.12,.57-.02,.11-.02,.22,0,.33,0,.04,.05,.09,.09,.1,.04,.01,.11,0,.13-.03,.06-.07,.11-.16,.15-.25,.14-.34,.27-.68,.32-1.05,.09-.59,.17-1.18,.25-1.77,.02-.12,0-.24,0-.37,0-.04-.03-.08-.06-.17Z" style="fill: #93582a;"/>
    <path d="M82.11,61.6c.04,.1,.06,.18,.11,.22,.16,.17,.31,.35,.48,.5,.4,.35,.74,.75,1.05,1.17,.28,.37,.44,.78,.5,1.24,.02,.17,.05,.34,.1,.5,.02,.09,.08,.18,.13,.26,.04,.06,.11,.1,.19,.08,.08-.02,.13-.07,.14-.15,.01-.07,.02-.15,.01-.22-.02-.22-.08-.43-.18-.63-.49-.89-1.03-1.75-1.73-2.49-.17-.19-.37-.36-.61-.46-.05-.02-.11-.01-.2-.02Z" style="fill: #93582a;"/>
    <path d="M105.71,75.86s-.08,.03-.09,.06c-.04,.11-.08,.23-.1,.35-.05,.39-.1,.78-.13,1.16-.02,.33-.09,.65-.17,.97-.03,.12-.06,.24-.07,.36,0,.08,0,.17,.04,.25,.05,.12,.21,.15,.31,.07,.1-.08,.17-.18,.19-.3,.02-.13,.04-.27,.06-.4,.04-.36,.07-.73,.11-1.09,.04-.39,.01-.78-.03-1.17-.01-.09-.02-.19-.11-.26Z" style="fill: #93582a;"/>
    <path d="M99.33,82.99c.03-.07,.06-.12,.08-.18,.2-.75,.41-1.49,.39-2.27,0-.19-.04-.39-.08-.58,0-.03-.06-.07-.1-.08-.03,0-.08,.02-.09,.05-.06,.12-.13,.24-.16,.37-.06,.29-.12,.58-.15,.87-.05,.46-.08,.93-.11,1.39,0,.12-.02,.24-.01,.37,0,.05,.05,.12,.09,.14,.04,.01,.1-.04,.15-.06Z" style="fill: #93582a;"/>
    <path d="M103.24,80.56c.03-.07,.08-.17,.1-.28,.15-.66,.31-1.31,.28-1.99,0-.17-.04-.34-.07-.51-.01-.07-.14-.09-.18-.02-.06,.11-.12,.22-.15,.33-.05,.17-.11,.35-.13,.53-.08,.56-.14,1.12-.21,1.68-.01,.09,.01,.19,.04,.29,.03,.11,.16,.13,.24,.05,.02-.02,.03-.04,.07-.08Z" style="fill: #93582a;"/>
    <path d="M77.37,68.96c.05-.07,.02-.18-.06-.22-.03-.01-.07-.03-.1-.03-.05,0-.1,0-.15,0-.54,.09-1.09,.17-1.63,.27-.13,.02-.25,.09-.37,.14-.05,.02-.1,.07-.13,.12-.06,.07-.02,.19,.06,.21,.11,.03,.21,.05,.32,.05,.17,0,.35,0,.51-.04,.43-.1,.85-.22,1.27-.34,.1-.03,.21-.07,.27-.17Z" style="fill: #93582a;"/>
    <path d="M104.49,76.81c-.07,.07-.12,.1-.14,.15-.05,.15-.11,.3-.13,.46-.08,.52-.16,1.04-.23,1.56-.01,.1-.02,.2-.02,.29,0,.1,.03,.2,.14,.23,.08,.03,.17-.03,.22-.15,.04-.08,.07-.16,.08-.24,.07-.61,.13-1.21,.19-1.82,.01-.14,0-.29-.11-.48Z" style="fill: #93582a;"/>
    <path d="M74.28,70.61c.11,.11,.24,.1,.36,.1,.53,0,1.05-.03,1.56-.18,.14-.04,.27-.11,.4-.18,.05-.03,.09-.09,.09-.15,0-.05-.03-.13-.07-.15-.08-.03-.17-.03-.25-.03-.57,.02-1.12,.14-1.66,.29-.12,.03-.23,.09-.33,.15-.04,.03-.07,.09-.1,.14Z" style="fill: #93582a;"/>
    <path d="M81.57,62.31c.02,.07,.02,.13,.05,.16,.14,.15,.27,.32,.44,.44,.4,.26,.69,.62,.93,1.02,.19,.32,.38,.66,.5,1.01,.04,.11,.11,.22,.18,.31,.06,.08,.2,.04,.23-.06,.04-.14,0-.27-.06-.39-.21-.36-.4-.73-.66-1.05-.32-.4-.68-.76-1.04-1.13-.11-.11-.25-.19-.38-.28-.04-.03-.11-.02-.19-.03Z" style="fill: #93582a;"/>
    <path d="M80.96,63.15c.04,.2,.13,.31,.23,.42,.16,.17,.32,.33,.5,.49,.26,.23,.46,.5,.61,.81,.06,.13,.16,.24,.25,.35,.05,.06,.13,.07,.2,.03,.07-.04,.09-.12,.07-.19-.03-.12-.07-.24-.13-.34-.35-.49-.7-.97-1.17-1.35-.11-.09-.25-.15-.38-.22-.04-.02-.09,0-.18-.01Z" style="fill: #93582a;"/>
    <path d="M87.2,66.23c-.03,.05-.06,.09-.07,.13-.03,.16-.05,.31-.06,.47-.03,.58-.03,1.15,.03,1.72,0,.1,.03,.19,.06,.28,.01,.04,.07,.08,.1,.08,.04,0,.09-.04,.11-.08,.03-.08,.05-.16,.05-.25,.05-.69,.02-1.37-.09-2.05-.02-.1-.02-.22-.13-.3Z" style="fill: #93582a;"/>
    <path d="M76.05,71.65c.07-.08,.03-.19-.04-.2-.04,0-.07-.01-.11,0-.3,.02-.61,.03-.91,.05-.26,.02-.51,.03-.77,.07-.13,.02-.26,.07-.38,.12-.03,.01-.05,.08-.06,.12,0,.02,.04,.06,.07,.07,.09,.03,.19,.05,.29,.06,.6,.03,1.19-.04,1.77-.21,.06-.02,.11-.05,.13-.07Z" style="fill: #93582a;"/>
    <path d="M75.57,68.16c.09,.05,.12,.08,.15,.09,.33,.04,.66,.08,.98,0,.3-.07,.6-.13,.89-.21,.1-.03,.2-.09,.29-.15,.03-.02,.04-.09,.03-.13-.01-.04-.06-.09-.1-.09-.12,0-.24,0-.36,.03-.3,.05-.6,.11-.9,.16-.23,.04-.45,.09-.68,.15-.09,.02-.17,.08-.31,.15Z" style="fill: #93582a;"/>
    <path d="M80.01,63.79c.03,.08,.03,.15,.07,.19,.14,.15,.28,.31,.44,.43,.25,.18,.47,.38,.68,.61,.07,.08,.16,.15,.24,.22,.06,.05,.13,.07,.2,.02,.07-.05,.08-.12,.05-.2-.02-.06-.04-.11-.08-.16-.36-.48-.81-.84-1.36-1.07-.06-.03-.14-.02-.24-.03Z" style="fill: #93582a;"/>
    <path d="M92.06,74.5c.04-.09,.07-.15,.09-.22,.18-.51,.24-1.04,.23-1.58,0-.06-.02-.12-.04-.18-.01-.04-.1-.04-.12,0-.03,.04-.05,.08-.07,.13-.2,.53-.29,1.08-.39,1.63,0,.05,0,.1,0,.15,.01,.07,.03,.16,.12,.16,.06,0,.12-.05,.18-.07Z" style="fill: #93582a;"/>
    <path d="M106.46,74.82c-.15,.06-.19,.15-.2,.25-.04,.2-.08,.41-.1,.61-.03,.29-.04,.58-.05,.88,0,.13-.03,.27,.08,.38,.14-.03,.2-.13,.22-.22,.16-.57,.26-1.14,.13-1.73-.01-.05-.06-.1-.09-.16Z" style="fill: #93582a;"/>
    <path d="M102.17,80.93c.3-.41,.42-1.63,.21-2.3-.03,.02-.07,.02-.08,.05-.04,.09-.07,.18-.09,.27-.14,.64-.14,1.28-.08,1.92,0,.02,.03,.04,.04,.06Z" style="fill: #93582a;"/>
    <path d="M88.48,69.59c-.04,.07-.07,.11-.08,.15-.02,.43,0,.85,.09,1.27,.03,.13,.07,.26,.19,.34,.1,.07,.23,.03,.26-.09,.02-.08,.03-.17,.01-.25-.09-.45-.22-.89-.4-1.32,0-.02-.03-.04-.08-.1Z" style="fill: #93582a;"/>
    <path d="M87.9,68.47c-.06,.1-.1,.14-.11,.2-.08,.46-.1,.92-.03,1.38,.01,.09,.07,.18,.12,.26,.05,.07,.17,.06,.21-.02,.03-.05,.05-.11,.06-.17,.01-.1,.02-.2,0-.29-.05-.4-.12-.79-.18-1.19,0-.03-.03-.06-.08-.16Z" style="fill: #93582a;"/>
    <path d="M73.37,72.91c.1,.02,.14,.05,.19,.05,.38,0,.75,0,1.13-.01,.16,0,.31-.05,.45-.14,.07-.05,.1-.12,.07-.19-.02-.05-.08-.1-.13-.11-.08-.02-.17-.03-.25,0-.45,.1-.9,.21-1.35,.31-.03,0-.05,.05-.11,.11Z" style="fill: #93582a;"/>
    <path d="M107.31,73.87c-.06,.16-.1,.25-.12,.34-.05,.28-.09,.56-.11,.84-.02,.24,.02,.33,.2,.54,.04-.03,.09-.04,.11-.08,.05-.08,.1-.17,.11-.27,.05-.4,.04-.81-.06-1.2,0-.04-.05-.07-.12-.16Z" style="fill: #93582a;"/>
    <path d="M79.36,64.85c.32,.21,.6,.41,.88,.6,.09,.06,.2,.11,.31,.03,.07-.06,.04-.2-.08-.32-.3-.3-.66-.51-1.06-.64-.06-.02-.12-.02-.18-.02-.02,0-.05,.02-.06,.03-.01,.03-.02,.08,0,.1,.07,.08,.15,.16,.2,.21Z" style="fill: #93582a;"/>
    <path d="M73.38,74.02c.09,.07,.14,.14,.2,.14,.27,.02,.53,.04,.8,.03,.17,0,.28-.16,.26-.29-.02-.13-.14-.22-.31-.2-.31,.04-.63,.09-.95,.31Z" style="fill: #93582a;"/>
    <path d="M89.41,70.63c-.05,.12-.09,.16-.09,.2,0,.28,0,.56,.03,.84,0,.09,.06,.18,.12,.26,.06,.09,.2,.06,.23-.04,.02-.06,.04-.12,.03-.18-.04-.35-.13-.69-.33-1.08Z" style="fill: #93582a;"/>
    <path d="M86.69,65.2c-.13,.53-.11,1.45,.03,1.84,.08-.21,.13-.74,.11-1.17-.01-.2,0-.41-.13-.66Z" style="fill: #93582a;"/>
    <path d="M73.51,75.07s.07,.06,.11,.07c.19,.06,.38,.04,.57,0,.06-.01,.11-.05,.16-.09,.06-.05,.08-.12,.06-.2-.02-.08-.09-.14-.19-.14-.2,0-.38,.07-.55,.16-.05,.03-.09,.07-.14,.11-.01,.01-.01,.04-.03,.08Z" style="fill: #93582a;"/>
    <path d="M107.84,73.11c-.1,.12-.15,.28-.14,.46,0,.12,.1,.21,.21,.22,.11,0,.21-.06,.24-.18,.05-.16,.04-.31-.02-.47-.06-.15-.18-.17-.29-.03Z" style="fill: #93582a;"/>
    <path d="M74.11,77.14c.09,.16,.23,.17,.36,.18,.14,0,.27,0,.38-.09,.08-.06,.11-.17,.08-.26-.03-.09-.11-.13-.2-.14-.04,0-.07,0-.11,0-.15,.03-.31,.13-.51,.3Z" style="fill: #93582a;"/>
    <path d="M73.79,76.27c.17,.1,.34,.11,.51,.07,.05-.01,.09-.03,.13-.05,.09-.05,.13-.16,.1-.25-.03-.1-.11-.14-.2-.13-.21,.01-.4,.08-.53,.26-.01,.02,0,.05-.01,.1Z" style="fill: #93582a;"/>
    <path d="M78.67,65.19s0,.06,.01,.06c.21,.15,.41,.29,.63,.44,.04,.02,.09,.03,.14,.03,.08,0,.15-.07,.12-.14-.02-.05-.05-.12-.1-.15-.24-.15-.49-.28-.78-.27,0,0-.01,.02-.02,.03Z" style="fill: #93582a;"/>
    <path d="M78.54,65.95c0-.22-.14-.3-.27-.37-.14-.08-.3-.16-.48-.06,0,.15,.09,.23,.18,.3,.19,.13,.29,.16,.57,.14Z" style="fill: #93582a;"/>
    <path d="M108.49,72.08c-.08,.1-.14,.24-.07,.39,.02,.05,.08,.1,.13,.12,.07,.03,.14,0,.19-.06,.11-.13,.09-.38-.04-.5-.04-.04-.15-.02-.21,.05Z" style="fill: #93582a;"/>
    <path d="M74.73,78.49c.12,.12,.26,.13,.39,.12,.12-.01,.21-.12,.19-.23-.02-.09-.12-.16-.22-.15-.13,.01-.2,.06-.35,.25Z" style="fill: #93582a;"/>
    <path d="M91.62,72.73c-.15,.21-.18,.39-.14,.58,0,.04,.08,.09,.13,.1,.07,.02,.12-.04,.13-.1,.03-.19,.04-.38-.12-.59Z" style="fill: #93582a;"/>
    <path d="M76.97,65.93c.07,.2,.22,.3,.4,.34,.05,.01,.11-.02,.16-.06,.04-.04,.02-.15-.04-.19-.16-.09-.32-.16-.51-.1Z" style="fill: #93582a;"/>
    <path d="M76.01,66.17c-.01,.13,.07,.2,.15,.25,.08,.05,.17,.09,.27,.05,.03-.01,.07-.05,.06-.08,0-.05-.02-.12-.06-.16-.08-.06-.2-.07-.43-.07Z" style="fill: #93582a;"/>
    <path d="M90.26,71.6c-.11,.22-.14,.37-.09,.53,.01,.04,.06,.08,.1,.09,.07,.01,.11-.05,.12-.11,.03-.16-.02-.31-.13-.51Z" style="fill: #93582a;"/>
    <path d="M75.15,79.25s.04,.03,.05,.03c.09,.04,.17,.02,.22-.06,.03-.05,0-.13-.05-.15-.09-.04-.18-.02-.22,.06-.02,.03,0,.09,0,.12Z" style="fill: #93582a;"/>
    <path d="M90.8,72.72c-.06,0-.1-.02-.12-.01-.04,.02-.06,.07-.02,.11,.02,.02,.08,.03,.09,.02,.02-.03,.03-.07,.05-.12Z" style="fill: #93582a;"/>
  </g>
  <g>
    <path d="M113.63,232.87c.66,1.24,1.29,2.33,1.91,3.29,.62,.96,1.23,1.61,1.83,1.96-.19-.02-.47-.02-.83-.01-.36,0-.57,.01-.62,.01h-2.23c-.31-1.2-.94-2.69-1.88-4.47l-1.07-2-.81-1.54c-.83-1.62-1.4-2.7-1.71-3.22-.17,.02-.45,.03-.81,.03,0,1.29,0,2.13,.03,2.49v.78c0,.93,.05,1.93,.16,3.02,.11,1.08,.34,1.88,.71,2.41-.17-.02-.45-.02-.81-.01-.37,0-.58,.01-.64,.01h-2c.17-.35,.32-.86,.45-1.54,.13-.68,.19-1.48,.19-2.41l.03-2,.06-4v-1.13l-.03-2.35c0-.64,.03-1.8,.09-3.48v-3.39c0-1.91,0-2.99,.03-3.22,0-.15,0-.6-.01-1.33-.01-.73-.07-1.45-.17-2.15-.11-.7-.28-1.25-.51-1.65l2.87,.03c1-.04,1.84,0,2.49,.09,.85,.13,1.61,.5,2.29,1.09,.68,.59,1.15,1.44,1.42,2.54,.33,1.29,.56,2.67,.7,4.12,.08,.79,.12,1.7,.12,2.73,0,.85-.02,1.47-.06,1.86-.23,2.67-.98,4.6-2.23,5.8-.66,.62-1.45,1.06-2.38,1.33l2,3.77c.1,.19,.19,.36,.29,.51,.1,.14,.17,.27,.23,.36l.61,1.07,.32,.61Zm-6.15-11.48c0,1.35,0,2.59-.03,3.71h1.04c1.02-.15,1.88-.56,2.58-1.22,.95-.91,1.49-2.24,1.62-4,.04-.66,.06-1.16,.06-1.51,0-1.18-.1-2.46-.29-3.86-.19-1.33-.41-2.4-.64-3.19-.21-.77-.47-1.38-.78-1.81-.31-.43-.82-.66-1.54-.68l-1.68-.06c-.16,1.12-.24,2.45-.26,3.97v.93c-.04,1.39-.06,2.84-.06,4.35l-.03,3.36Z" style="fill: #d4702c;"/>
    <path d="M125.26,207.62v1.45c0,.06,0,.27-.01,.64,0,.37,0,.64,.01,.81-.27-.41-.6-.7-.99-.87s-.93-.26-1.62-.26l-1.57,.03h-.78c-.16,.87-.26,2.04-.32,3.51l-.03,1.94-.06,5.97c-.02,.42-.03,1.06-.03,1.91-.02,.27-.03,.69-.03,1.25l.55,.03c.7-.04,1.21-.11,1.55-.2,.34-.1,.7-.36,1.09-.78-.02,.1-.02,.26-.01,.48,0,.22,.01,.39,.01,.51v1.65c0,.12,0,.29-.01,.51,0,.22,0,.38,.01,.48-.41-.43-.75-.69-1.03-.8s-.58-.16-.91-.17c-.33,0-.56-.01-.7-.01-.19,0-.38,0-.55,.03-.02,.29-.03,.72-.03,1.3v1.65c0,1.68,.06,2.95,.17,3.8l1.39,.03c.48,0,.8,0,.96,.01,.15,0,.26,.01,.32,.01,.71-.04,1.23-.11,1.55-.22,.32-.11,.67-.39,1.06-.86-.02,.17-.02,.45-.01,.81s.01,.58,.01,.64v1.45h-3.04l-1.86-.03-3.28,.03c.33-.52,.54-1.17,.62-1.94,.09-.77,.14-1.44,.15-2.02,0-.57,.01-.93,.01-1.09,0-.25,.02-.59,.06-1.02l.03-.96v-4.99c.04-1.78,.06-3.09,.06-3.94l.03-3.33v-3.54c0-.93-.05-1.73-.15-2.41-.1-.68-.21-1.19-.35-1.54h4.67l3.04,.03Z" style="fill: #d4702c;"/>
    <path d="M139.41,231.86c0,1.51,.04,2.68,.13,3.51s.19,1.42,.3,1.75c.12,.34,.17,.47,.17,.39l-3.33,.03c.21-.62,.39-1.45,.54-2.48,.14-1.03,.23-1.89,.25-2.57l.03-2.55,.06-4.32v-3.28l.06-3.94,.03-2.35v-5.19l-.43,1.31-.9,2.55-1.19,3.62-.84,2.46,.06,.2,.2,.55c.7,1.95,1.15,3.05,1.36,3.31l-1.65,2.41c0-.08-.21-.83-.62-2.26s-.81-2.63-1.17-3.6l-1.54-4.09-.44-1.3c-.08-.25-.27-.82-.58-1.71v1.74l.03,2.35,.06,3.94v2.12l.06,3.07,.03,1.77c.04,1.14,.1,2.12,.17,2.94,.08,.82,.28,1.52,.61,2.1l-3.33-.03c.19-.29,.34-.93,.45-1.91,.11-.99,.16-2.23,.16-3.74v-.78l-.03-3.1v-1.97c0-.87,0-1.53-.03-1.97-.02-.43-.03-2.09-.03-4.99l-.03-.96c-.04-.42-.06-.75-.06-.99-.02-.99-.1-2-.23-3.04-.13-1.04-.38-1.81-.72-2.29,.17,.02,.44,.02,.81,.01s.58-.01,.64-.01l1.45,.03h.12l.12,.26,.7,2.03,.78,2.26,.41,1.13c.04,.16,.24,.76,.61,1.83l.72,2.06c.04-.08,.21-.46,.51-1.16,.3-.7,.79-2.07,1.46-4.12l.75-2.32c.89-2.73,1.37-4.18,1.45-4.35l.12-.26h1.77c.08,0,.25,0,.51,.01,.26,.01,.47,0,.62-.01-.35,.48-.59,1.21-.72,2.19-.14,.98-.21,1.93-.23,2.86,0,.23-.02,.56-.06,.99l-.03,.96c0,4.83,0,7.46-.03,7.89v2.55c0,1.26,0,2.11-.03,2.55l-.03,4.26v1.65Z" style="fill: #d4702c;"/>
    <path d="M145.41,210.49c-.08,.91-.14,2.05-.17,3.42,0,.23-.02,.56-.06,.99l-.03,.96v4.99c-.02,.54-.03,1.33-.03,2.38-.02,.35-.03,.87-.03,1.57l-.03,2.23v1.65c0,1.51,.04,2.68,.12,3.51s.17,1.42,.28,1.75c.11,.34,.16,.47,.16,.39l-3.33,.03c.33-.58,.53-1.28,.61-2.1s.14-1.8,.17-2.94c0-.25,.02-.59,.06-1.02l.03-.96v-4.99l.06-3.94,.03-2.35v-3.54c0-.93-.05-1.73-.15-2.41s-.21-1.19-.35-1.54h1.94c.08,0,.27,0,.58,.03,.31,.02,.54,.02,.7,0-.29,.35-.47,.98-.55,1.88Z" style="fill: #d4702c;"/>
    <path d="M155.27,237.46c.15-.29,.27-.91,.35-1.86s.12-2.15,.12-3.6c-.06-.54-.19-1.15-.39-1.81s-.52-1.65-.94-2.94c-.58-1.74-1.04-3.15-1.36-4.23-.16-.5-.28-.88-.38-1.13-.08-.25-.18-.57-.3-.94-.13-.38-.26-.82-.39-1.32-.39-1.26-.78-2.47-1.19-3.65l-.17-.55v2.99l.06,3.94v2.12l.06,3.07,.03,1.77-.03,1.65c0,1.58,.21,2.72,.64,3.39l-3.13-.03c.23-.29,.41-.93,.54-1.91,.12-.99,.19-2.23,.19-3.74v-.78l-.03-3.1v-1.97c0-.87,0-1.53-.03-1.97-.02-.62-.05-1.43-.09-2.44-.04-1-.06-1.86-.06-2.55l-.03-.96c-.04-.42-.06-.75-.06-.99-.02-.99-.1-2-.23-3.04-.13-1.04-.38-1.81-.72-2.29,.17,.02,.44,.02,.81,.01s.58-.01,.64-.01l1.45,.03c.02,.06,.1,.46,.25,1.22,.14,.75,.42,1.81,.83,3.16,.23,.81,.59,1.94,1.07,3.39,.7,2.24,1.13,3.65,1.3,4.23,.12,.41,.57,1.88,1.36,4.41,.06,.17,.11,.34,.16,.49,.05,.15,.09,.29,.13,.41,0-.89,0-1.54-.01-1.96s-.01-.68-.01-.8c-.02-.42-.02-.73-.01-.91s.01-.33,.01-.45l-.03-.96v-4.99c0-2.15-.01-3.45-.03-3.92v-.78c-.02-.93-.1-1.88-.23-2.86-.13-.98-.38-1.71-.72-2.19,.19,.02,.46,.02,.81,.01,.35,0,.54-.01,.58-.01h2c-.15,.35-.29,.86-.39,1.54s-.16,1.48-.16,2.41v6l.03,2.35,.06,3.94v3.48l.06,3.39,.03,3.22v.64c.02,1.02,.06,1.89,.12,2.61,.06,.71,.16,1.31,.32,1.8l-2.84-.03Z" style="fill: #d4702c;"/>
    <path d="M170.61,223.22c0,1.51-.12,3.03-.35,4.55-.16,1.16-.32,2.03-.49,2.61-.37,1.26-.95,2.22-1.74,2.9-.81,.66-1.75,1.06-2.81,1.22-.66,.1-1.49,.13-2.49,.09l-2.87,.03c.33-.58,.53-1.29,.61-2.13,.08-.84,.14-1.84,.17-3l.03-3.22,.06-3.39,.03-4.32,.06-4.03v-2c0-.93-.05-1.73-.16-2.41-.11-.68-.24-1.19-.39-1.54h2c.06,0,.27,0,.64,.01s.64,0,.81-.01c.91-.08,1.89,.1,2.94,.52,1.05,.42,1.84,1.03,2.36,1.83,.29,.42,.52,.9,.68,1.42,.16,.52,.3,1.14,.42,1.86,.14,.99,.25,2.61,.35,4.87,.1,1.61,.14,2.99,.14,4.15Zm-2.03-.9c0-1.39-.03-2.45-.09-3.16l-.06-.61c-.1-1.53-.2-2.68-.32-3.45-.12-.87-.28-1.59-.49-2.17s-.5-1.04-.87-1.39c-.5-.48-1.01-.84-1.52-1.07-.51-.23-1.21-.36-2.1-.38-.19,.83-.32,2.01-.38,3.54l-.03,5.54c-.04,2.28-.06,4.05-.06,5.31-.02,1.58-.04,2.69-.06,3.31-.02,.62-.03,.98-.03,1.07,0,1.58,.05,2.84,.15,3.77l1.74-.06c.35-.02,.76-.13,1.25-.32,.52-.27,.93-.59,1.23-.96,.3-.37,.55-.82,.74-1.36,.17-.48,.35-1.19,.52-2.12,.21-1.1,.33-2.24,.35-3.42,.02-.23,.03-.92,.03-2.06Z" style="fill: #d4702c;"/>
    <path d="M181.11,207.62v1.45c0,.06,0,.27-.01,.64,0,.37,0,.64,.01,.81-.27-.41-.6-.7-.99-.87s-.93-.26-1.62-.26l-1.57,.03h-.78c-.16,.87-.26,2.04-.32,3.51l-.03,1.94-.06,5.97c-.02,.42-.03,1.06-.03,1.91-.02,.27-.03,.69-.03,1.25l.55,.03c.7-.04,1.21-.11,1.55-.2,.34-.1,.7-.36,1.09-.78-.02,.1-.02,.26-.01,.48,0,.22,.01,.39,.01,.51v1.65c0,.12,0,.29-.01,.51,0,.22,0,.38,.01,.48-.41-.43-.75-.69-1.03-.8s-.58-.16-.91-.17c-.33,0-.56-.01-.7-.01-.19,0-.38,0-.55,.03-.02,.29-.03,.72-.03,1.3v1.65c0,1.68,.06,2.95,.17,3.8l1.39,.03c.48,0,.8,0,.96,.01,.15,0,.26,.01,.32,.01,.71-.04,1.23-.11,1.55-.22,.32-.11,.67-.39,1.06-.86-.02,.17-.02,.45-.01,.81s.01,.58,.01,.64v1.45h-3.04l-1.86-.03-3.28,.03c.33-.52,.54-1.17,.62-1.94,.09-.77,.14-1.44,.15-2.02,0-.57,.01-.93,.01-1.09,0-.25,.02-.59,.06-1.02l.03-.96v-4.99c.04-1.78,.06-3.09,.06-3.94l.03-3.33v-3.54c0-.93-.05-1.73-.15-2.41-.1-.68-.21-1.19-.35-1.54h4.67l3.04,.03Z" style="fill: #d4702c;"/>
    <path d="M191.64,232.87c.66,1.24,1.29,2.33,1.91,3.29,.62,.96,1.23,1.61,1.83,1.96-.19-.02-.47-.02-.83-.01-.36,0-.57,.01-.62,.01h-2.23c-.31-1.2-.94-2.69-1.88-4.47l-1.07-2-.81-1.54c-.83-1.62-1.4-2.7-1.71-3.22-.17,.02-.45,.03-.81,.03,0,1.29,0,2.13,.03,2.49v.78c0,.93,.05,1.93,.16,3.02,.11,1.08,.34,1.88,.71,2.41-.17-.02-.45-.02-.81-.01-.37,0-.58,.01-.64,.01h-2c.17-.35,.32-.86,.45-1.54,.13-.68,.19-1.48,.19-2.41l.03-2,.06-4v-1.13l-.03-2.35c0-.64,.03-1.8,.09-3.48v-3.39c0-1.91,0-2.99,.03-3.22,0-.15,0-.6-.01-1.33-.01-.73-.07-1.45-.17-2.15-.11-.7-.28-1.25-.51-1.65l2.87,.03c1-.04,1.84,0,2.49,.09,.85,.13,1.61,.5,2.29,1.09,.68,.59,1.15,1.44,1.42,2.54,.33,1.29,.56,2.67,.7,4.12,.08,.79,.12,1.7,.12,2.73,0,.85-.02,1.47-.06,1.86-.23,2.67-.98,4.6-2.23,5.8-.66,.62-1.45,1.06-2.38,1.33l2,3.77c.1,.19,.19,.36,.29,.51,.1,.14,.17,.27,.23,.36l.61,1.07,.32,.61Zm-6.15-11.48c0,1.35,0,2.59-.03,3.71h1.04c1.02-.15,1.88-.56,2.58-1.22,.95-.91,1.49-2.24,1.62-4,.04-.66,.06-1.16,.06-1.51,0-1.18-.1-2.46-.29-3.86-.19-1.33-.41-2.4-.64-3.19-.21-.77-.47-1.38-.78-1.81-.31-.43-.82-.66-1.54-.68l-1.68-.06c-.16,1.12-.24,2.45-.26,3.97v.93c-.04,1.39-.06,2.84-.06,4.35l-.03,3.36Z" style="fill: #d4702c;"/>
    <path d="M197.6,208.05c.65-.37,1.42-.55,2.3-.55,.75,0,1.42,.16,2,.48,.58,.32,1.06,.76,1.45,1.32,.25,.37,.45,.75,.59,1.16,.14,.41,.22,.72,.22,.93l-1.65,1.1c-.29-2.22-1.26-3.33-2.9-3.33-.66,.02-1.27,.38-1.83,1.07-.35,.46-.52,1-.52,1.59,0,.52,.11,1.16,.32,1.91,.27,1.1,.97,2.86,2.09,5.28,.77,1.64,1.72,3.6,2.84,5.86,.91,1.86,1.36,3.6,1.36,5.22,0,.48-.05,1-.15,1.54-.21,1.1-.6,2.04-1.16,2.81-.33,.44-.72,.8-1.17,1.07-.46,.27-.88,.42-1.26,.46-.19,.02-.47,.03-.84,.03-.95,0-1.73-.2-2.35-.61-.44-.29-.81-.57-1.09-.84-.28-.27-.54-.64-.77-1.1l.87-2.2c.48,1.06,1,1.8,1.54,2.2,.35,.27,.66,.47,.93,.59,.27,.13,.55,.19,.84,.19,.6,0,1.09-.22,1.48-.67,.39-.44,.66-1.06,.81-1.86,.08-.39,.12-.83,.12-1.33,0-1.64-.55-3.48-1.65-5.51-.14-.25-.55-1.07-1.25-2.46-.48-1-.93-1.88-1.33-2.64-1-1.88-1.68-3.54-2.03-4.99-.19-.79-.29-1.54-.29-2.23,0-1.14,.29-2.15,.87-3.02,.43-.62,.96-1.11,1.61-1.48Z" style="fill: #d4702c;"/>
  </g>
</svg>