<?xml version="1.0" encoding="UTF-8"?>
<svg id="Calque_2" data-name="Calque 2" xmlns="http://www.w3.org/2000/svg" viewBox="0 0 928 911">
  <defs>
    <style>
      .cls-1 {
        fill: #581116;
        stroke: #581116;
      }

      .cls-1, .cls-2, .cls-3, .cls-4 {
        stroke-linecap: round;
        stroke-linejoin: round;
      }

      .cls-2 {
        fill: #c04a54;
        stroke: #c04a54;
      }

      .cls-3 {
        fill: #9f6b6e;
        stroke: #9f6b6e;
      }

      .cls-4 {
        fill: #ad1327;
        stroke: #ad1327;
      }

      .cls-5 {
        letter-spacing: 0em;
      }

      .cls-6 {
        letter-spacing: 0em;
      }

      .cls-7 {
        letter-spacing: 0em;
      }

      .cls-8 {
        fill: #b8001f;
        font-family: Kiona-Regular, Kiona;
        font-size: 69.01px;
      }

      .cls-9 {
        letter-spacing: 0em;
      }
    </style>
  </defs>
  <text class="cls-8" transform="translate(274.58 684.54)"><tspan x="0" y="0">R</tspan><tspan class="cls-7" x="42.65" y="0">E</tspan><tspan class="cls-5" x="83.5" y="0">MIN</tspan><tspan class="cls-9" x="208.62" y="0">D</tspan><tspan class="cls-7" x="253.68" y="0">E</tspan><tspan class="cls-6" x="294.53" y="0">R</tspan><tspan x="336.84" y="0">S</tspan></text>
  <g>
    <polygon class="cls-2" points="412.59 308.74 412.57 376.89 338.3 323.04 412.59 308.74"/>
    <polygon class="cls-4" points="412.57 376.89 338.3 323.04 338.28 401.67 412.57 376.89"/>
    <path class="cls-4" d="M484.25,323.17l-17.67-73.64-53.99,59.21h38.52c4.67,.01,9.3,.78,13.69,2.35,5.91,2.11,13.78,5.86,19.45,12.09Z"/>
    <polygon class="cls-3" points="338.28 401.67 338.27 439.79 338.25 491.88 409.82 442.19 338.28 401.67"/>
    <polygon class="cls-1" points="590.33 581.93 517.06 581.93 504.78 559.05 590.33 581.93"/>
    <polygon class="cls-1" points="410.21 581.93 338.34 581.93 411.09 534.95 410.21 581.93"/>
    <polygon class="cls-1" points="338.25 491.88 338.34 581.93 411.09 534.95 338.25 491.88"/>
    <path class="cls-1" d="M484.28,363.23l9.71,76.39-81.42-62.74s38.1,.9,44.36,.01c6.25-.89,21.33-5.26,27.35-13.67Z"/>
    <path class="cls-1" d="M552.65,395.45l-68.37-32.22,9.71,76.39s37.61-7.28,58.67-44.17Z"/>
    <polygon class="cls-3" points="496.19 439.62 412.57 376.89 409.82 439.62 496.19 439.62"/>
    <path class="cls-2" d="M532.42,265.74l-48.16,57.44-17.67-73.64s33.6-2.26,65.83,16.21Z"/>
    <path class="cls-3" d="M567.58,343.22l-83.32-20.03,48.15-57.45s35.5,21.42,35.17,77.48Z"/>
    <polygon class="cls-1" points="338.33 249.49 413.15 308.83 338.3 323.04 338.33 249.49"/>
    <polygon class="cls-1" points="466.58 249.53 413.15 308.83 338.33 249.49 466.58 249.53"/>
    <path class="cls-4" d="M540.28,492.05l-69.1,4.92,25.14-57.18s16.15,6.94,43.95,52.26Z"/>
    <path class="cls-2" d="M496.54,439.79l-25.7,57.01s-11.5-20.98-20.74-32.53c-8.6-10.75-20.57-21.83-40.28-24.65l86.72,.17Z"/>
    <polygon class="cls-2" points="590.33 581.93 540.4 492.29 504.78 559.05 590.33 581.93"/>
    <polygon class="cls-3" points="470.84 496.8 504.78 559.05 540.22 491.86 470.84 496.8"/>
    <path class="cls-4" d="M484.25,323.19s19.46,16.75,.04,40.06l82.95-24.81-82.99-15.25Z"/>
    <path class="cls-4" d="M567.22,338.44l-82.95,24.81,68.38,32.2s17.6-30.17,14.56-57.01Z"/>
    <polygon class="cls-3" points="409.82 442.19 412.57 376.89 338.28 401.67 409.82 442.19"/>
    <polygon class="cls-4" points="410.4 439.53 338.25 466.02 338.25 491.88 410.4 439.53"/>
    <polygon class="cls-4" points="410.4 439.53 411.09 534.95 338.25 491.88 410.4 439.53"/>
  </g>
</svg>